M48
; DRILL file {KiCad 9.0.7} date 2026-02-19T21:54:33-0500
; FORMAT={-:-/ absolute / metric / decimal}
; #@! TF.CreationDate,2026-02-19T21:54:33-05:00
; #@! TF.GenerationSoftware,Kicad,Pcbnew,9.0.7
; #@! TF.FileFunction,Plated,1,4,PTH
FMAT,2
METRIC
; #@! TA.AperFunction,Plated,PTH,ComponentDrill
T1C0.800
; #@! TA.AperFunction,Plated,PTH,ComponentDrill
T2C0.900
; #@! TA.AperFunction,Plated,PTH,ComponentDrill
T3C1.000
; #@! TA.AperFunction,Plated,PTH,ComponentDrill
T4C1.100
%
G90
G05
T1
X109.64Y-72.5
X109.64Y-75.04
X109.64Y-77.58
X109.64Y-80.12
X109.64Y-82.66
X109.64Y-85.2
X109.64Y-87.74
X109.64Y-90.28
X109.64Y-92.82
X109.64Y-95.36
X109.64Y-97.9
X109.64Y-100.44
X109.64Y-102.98
X109.64Y-105.52
X109.64Y-108.06
X109.64Y-110.6
X132.5Y-72.5
X132.5Y-75.04
X132.5Y-77.58
X132.5Y-80.12
X132.5Y-82.66
X132.5Y-85.2
X132.5Y-87.74
X132.5Y-90.28
X132.5Y-92.82
X132.5Y-95.36
X132.5Y-97.9
X132.5Y-100.44
X132.5Y-102.98
X132.5Y-105.52
X132.5Y-108.06
X132.5Y-110.6
T2
X96.96Y-82.0
X99.5Y-82.0
T3
X84.0Y-89.18
X84.0Y-91.72
X84.0Y-94.26
X84.0Y-96.8
X84.0Y-99.34
X84.0Y-101.88
X84.0Y-104.42
X84.0Y-106.96
X84.0Y-109.5
X84.0Y-112.04
X105.16Y-132.92
X105.16Y-135.46
X105.16Y-140.54
X105.16Y-143.08
X137.15Y-113.605
X137.15Y-116.145
X137.15Y-118.685
X137.15Y-121.225
T4
X138.0Y-83.0
X138.0Y-89.5
X142.5Y-83.0
X142.5Y-89.5
M30
