%TF.GenerationSoftware,KiCad,Pcbnew,9.0.7*%
%TF.CreationDate,2026-02-19T21:55:12-05:00*%
%TF.ProjectId,HRCStepTracker,48524353-7465-4705-9472-61636b65722e,rev?*%
%TF.SameCoordinates,Original*%
%TF.FileFunction,Copper,L1,Top*%
%TF.FilePolarity,Positive*%
%FSLAX46Y46*%
G04 Gerber Fmt 4.6, Leading zero omitted, Abs format (unit mm)*
G04 Created by KiCad (PCBNEW 9.0.7) date 2026-02-19 21:55:12*
%MOMM*%
%LPD*%
G01*
G04 APERTURE LIST*
%ADD10C,0.200000*%
%TA.AperFunction,NonConductor*%
%ADD11C,0.200000*%
%TD*%
%ADD12C,0.304800*%
%TA.AperFunction,NonConductor*%
%ADD13C,0.304800*%
%TD*%
%ADD14C,0.150000*%
%TA.AperFunction,NonConductor*%
%ADD15C,0.150000*%
%TD*%
%TA.AperFunction,ComponentPad*%
%ADD16R,1.800000X1.800000*%
%TD*%
%TA.AperFunction,ComponentPad*%
%ADD17R,2.000000X1.200000*%
%TD*%
%TA.AperFunction,ComponentPad*%
%ADD18O,2.000000X1.200000*%
%TD*%
%TA.AperFunction,ComponentPad*%
%ADD19C,1.800000*%
%TD*%
%TA.AperFunction,ComponentPad*%
%ADD20C,2.000000*%
%TD*%
%TA.AperFunction,Conductor*%
%ADD21C,0.200000*%
%TD*%
G04 APERTURE END LIST*
D10*
D11*
X142642742Y-122854136D02*
X142642742Y-122625564D01*
X142642742Y-122625564D02*
X142699885Y-122511279D01*
X142699885Y-122511279D02*
X142814171Y-122396993D01*
X142814171Y-122396993D02*
X143042742Y-122339850D01*
X143042742Y-122339850D02*
X143442742Y-122339850D01*
X143442742Y-122339850D02*
X143671314Y-122396993D01*
X143671314Y-122396993D02*
X143785600Y-122511279D01*
X143785600Y-122511279D02*
X143842742Y-122625564D01*
X143842742Y-122625564D02*
X143842742Y-122854136D01*
X143842742Y-122854136D02*
X143785600Y-122968422D01*
X143785600Y-122968422D02*
X143671314Y-123082707D01*
X143671314Y-123082707D02*
X143442742Y-123139850D01*
X143442742Y-123139850D02*
X143042742Y-123139850D01*
X143042742Y-123139850D02*
X142814171Y-123082707D01*
X142814171Y-123082707D02*
X142699885Y-122968422D01*
X142699885Y-122968422D02*
X142642742Y-122854136D01*
X143842742Y-121254136D02*
X143842742Y-121825564D01*
X143842742Y-121825564D02*
X142642742Y-121825564D01*
X143214171Y-120854135D02*
X143214171Y-120454135D01*
X143842742Y-120282707D02*
X143842742Y-120854135D01*
X143842742Y-120854135D02*
X142642742Y-120854135D01*
X142642742Y-120854135D02*
X142642742Y-120282707D01*
X143842742Y-119768421D02*
X142642742Y-119768421D01*
X142642742Y-119768421D02*
X142642742Y-119482707D01*
X142642742Y-119482707D02*
X142699885Y-119311278D01*
X142699885Y-119311278D02*
X142814171Y-119196993D01*
X142814171Y-119196993D02*
X142928457Y-119139850D01*
X142928457Y-119139850D02*
X143157028Y-119082707D01*
X143157028Y-119082707D02*
X143328457Y-119082707D01*
X143328457Y-119082707D02*
X143557028Y-119139850D01*
X143557028Y-119139850D02*
X143671314Y-119196993D01*
X143671314Y-119196993D02*
X143785600Y-119311278D01*
X143785600Y-119311278D02*
X143842742Y-119482707D01*
X143842742Y-119482707D02*
X143842742Y-119768421D01*
D12*
D13*
X97289097Y-86797641D02*
X96563383Y-86797641D01*
X96563383Y-86797641D02*
X96563383Y-85273641D01*
X97797097Y-85999355D02*
X98305097Y-85999355D01*
X98522811Y-86797641D02*
X97797097Y-86797641D01*
X97797097Y-86797641D02*
X97797097Y-85273641D01*
X97797097Y-85273641D02*
X98522811Y-85273641D01*
X99175954Y-86797641D02*
X99175954Y-85273641D01*
X99175954Y-85273641D02*
X99538811Y-85273641D01*
X99538811Y-85273641D02*
X99756525Y-85346212D01*
X99756525Y-85346212D02*
X99901668Y-85491355D01*
X99901668Y-85491355D02*
X99974239Y-85636498D01*
X99974239Y-85636498D02*
X100046811Y-85926784D01*
X100046811Y-85926784D02*
X100046811Y-86144498D01*
X100046811Y-86144498D02*
X99974239Y-86434784D01*
X99974239Y-86434784D02*
X99901668Y-86579927D01*
X99901668Y-86579927D02*
X99756525Y-86725070D01*
X99756525Y-86725070D02*
X99538811Y-86797641D01*
X99538811Y-86797641D02*
X99175954Y-86797641D01*
D12*
D13*
X118063383Y-91499355D02*
X118571383Y-91499355D01*
X118789097Y-92297641D02*
X118063383Y-92297641D01*
X118063383Y-92297641D02*
X118063383Y-90773641D01*
X118063383Y-90773641D02*
X118789097Y-90773641D01*
X119369668Y-92225070D02*
X119587383Y-92297641D01*
X119587383Y-92297641D02*
X119950240Y-92297641D01*
X119950240Y-92297641D02*
X120095383Y-92225070D01*
X120095383Y-92225070D02*
X120167954Y-92152498D01*
X120167954Y-92152498D02*
X120240525Y-92007355D01*
X120240525Y-92007355D02*
X120240525Y-91862212D01*
X120240525Y-91862212D02*
X120167954Y-91717070D01*
X120167954Y-91717070D02*
X120095383Y-91644498D01*
X120095383Y-91644498D02*
X119950240Y-91571927D01*
X119950240Y-91571927D02*
X119659954Y-91499355D01*
X119659954Y-91499355D02*
X119514811Y-91426784D01*
X119514811Y-91426784D02*
X119442240Y-91354212D01*
X119442240Y-91354212D02*
X119369668Y-91209070D01*
X119369668Y-91209070D02*
X119369668Y-91063927D01*
X119369668Y-91063927D02*
X119442240Y-90918784D01*
X119442240Y-90918784D02*
X119514811Y-90846212D01*
X119514811Y-90846212D02*
X119659954Y-90773641D01*
X119659954Y-90773641D02*
X120022811Y-90773641D01*
X120022811Y-90773641D02*
X120240525Y-90846212D01*
X120893669Y-92297641D02*
X120893669Y-90773641D01*
X120893669Y-90773641D02*
X121474240Y-90773641D01*
X121474240Y-90773641D02*
X121619383Y-90846212D01*
X121619383Y-90846212D02*
X121691954Y-90918784D01*
X121691954Y-90918784D02*
X121764526Y-91063927D01*
X121764526Y-91063927D02*
X121764526Y-91281641D01*
X121764526Y-91281641D02*
X121691954Y-91426784D01*
X121691954Y-91426784D02*
X121619383Y-91499355D01*
X121619383Y-91499355D02*
X121474240Y-91571927D01*
X121474240Y-91571927D02*
X120893669Y-91571927D01*
X122272526Y-90773641D02*
X123215954Y-90773641D01*
X123215954Y-90773641D02*
X122707954Y-91354212D01*
X122707954Y-91354212D02*
X122925669Y-91354212D01*
X122925669Y-91354212D02*
X123070812Y-91426784D01*
X123070812Y-91426784D02*
X123143383Y-91499355D01*
X123143383Y-91499355D02*
X123215954Y-91644498D01*
X123215954Y-91644498D02*
X123215954Y-92007355D01*
X123215954Y-92007355D02*
X123143383Y-92152498D01*
X123143383Y-92152498D02*
X123070812Y-92225070D01*
X123070812Y-92225070D02*
X122925669Y-92297641D01*
X122925669Y-92297641D02*
X122490240Y-92297641D01*
X122490240Y-92297641D02*
X122345097Y-92225070D01*
X122345097Y-92225070D02*
X122272526Y-92152498D01*
X123796526Y-90918784D02*
X123869098Y-90846212D01*
X123869098Y-90846212D02*
X124014241Y-90773641D01*
X124014241Y-90773641D02*
X124377098Y-90773641D01*
X124377098Y-90773641D02*
X124522241Y-90846212D01*
X124522241Y-90846212D02*
X124594812Y-90918784D01*
X124594812Y-90918784D02*
X124667383Y-91063927D01*
X124667383Y-91063927D02*
X124667383Y-91209070D01*
X124667383Y-91209070D02*
X124594812Y-91426784D01*
X124594812Y-91426784D02*
X123723955Y-92297641D01*
X123723955Y-92297641D02*
X124667383Y-92297641D01*
D14*
D15*
X92845342Y-107115601D02*
X91645342Y-107115601D01*
X91645342Y-107115601D02*
X92502485Y-106715601D01*
X92502485Y-106715601D02*
X91645342Y-106315601D01*
X91645342Y-106315601D02*
X92845342Y-106315601D01*
X92845342Y-105744172D02*
X91645342Y-105744172D01*
X91645342Y-105744172D02*
X91645342Y-105287029D01*
X91645342Y-105287029D02*
X91702485Y-105172744D01*
X91702485Y-105172744D02*
X91759628Y-105115601D01*
X91759628Y-105115601D02*
X91873914Y-105058458D01*
X91873914Y-105058458D02*
X92045342Y-105058458D01*
X92045342Y-105058458D02*
X92159628Y-105115601D01*
X92159628Y-105115601D02*
X92216771Y-105172744D01*
X92216771Y-105172744D02*
X92273914Y-105287029D01*
X92273914Y-105287029D02*
X92273914Y-105744172D01*
X91645342Y-104544172D02*
X92616771Y-104544172D01*
X92616771Y-104544172D02*
X92731057Y-104487029D01*
X92731057Y-104487029D02*
X92788200Y-104429887D01*
X92788200Y-104429887D02*
X92845342Y-104315601D01*
X92845342Y-104315601D02*
X92845342Y-104087029D01*
X92845342Y-104087029D02*
X92788200Y-103972744D01*
X92788200Y-103972744D02*
X92731057Y-103915601D01*
X92731057Y-103915601D02*
X92616771Y-103858458D01*
X92616771Y-103858458D02*
X91645342Y-103858458D01*
X92845342Y-103229886D02*
X92845342Y-103001315D01*
X92845342Y-103001315D02*
X92788200Y-102887029D01*
X92788200Y-102887029D02*
X92731057Y-102829886D01*
X92731057Y-102829886D02*
X92559628Y-102715601D01*
X92559628Y-102715601D02*
X92331057Y-102658458D01*
X92331057Y-102658458D02*
X91873914Y-102658458D01*
X91873914Y-102658458D02*
X91759628Y-102715601D01*
X91759628Y-102715601D02*
X91702485Y-102772744D01*
X91702485Y-102772744D02*
X91645342Y-102887029D01*
X91645342Y-102887029D02*
X91645342Y-103115601D01*
X91645342Y-103115601D02*
X91702485Y-103229886D01*
X91702485Y-103229886D02*
X91759628Y-103287029D01*
X91759628Y-103287029D02*
X91873914Y-103344172D01*
X91873914Y-103344172D02*
X92159628Y-103344172D01*
X92159628Y-103344172D02*
X92273914Y-103287029D01*
X92273914Y-103287029D02*
X92331057Y-103229886D01*
X92331057Y-103229886D02*
X92388200Y-103115601D01*
X92388200Y-103115601D02*
X92388200Y-102887029D01*
X92388200Y-102887029D02*
X92331057Y-102772744D01*
X92331057Y-102772744D02*
X92273914Y-102715601D01*
X92273914Y-102715601D02*
X92159628Y-102658458D01*
X91759628Y-102201315D02*
X91702485Y-102144172D01*
X91702485Y-102144172D02*
X91645342Y-102029887D01*
X91645342Y-102029887D02*
X91645342Y-101744172D01*
X91645342Y-101744172D02*
X91702485Y-101629887D01*
X91702485Y-101629887D02*
X91759628Y-101572744D01*
X91759628Y-101572744D02*
X91873914Y-101515601D01*
X91873914Y-101515601D02*
X91988200Y-101515601D01*
X91988200Y-101515601D02*
X92159628Y-101572744D01*
X92159628Y-101572744D02*
X92845342Y-102258458D01*
X92845342Y-102258458D02*
X92845342Y-101515601D01*
X91645342Y-100429887D02*
X91645342Y-101001315D01*
X91645342Y-101001315D02*
X92216771Y-101058458D01*
X92216771Y-101058458D02*
X92159628Y-101001315D01*
X92159628Y-101001315D02*
X92102485Y-100887030D01*
X92102485Y-100887030D02*
X92102485Y-100601315D01*
X92102485Y-100601315D02*
X92159628Y-100487030D01*
X92159628Y-100487030D02*
X92216771Y-100429887D01*
X92216771Y-100429887D02*
X92331057Y-100372744D01*
X92331057Y-100372744D02*
X92616771Y-100372744D01*
X92616771Y-100372744D02*
X92731057Y-100429887D01*
X92731057Y-100429887D02*
X92788200Y-100487030D01*
X92788200Y-100487030D02*
X92845342Y-100601315D01*
X92845342Y-100601315D02*
X92845342Y-100887030D01*
X92845342Y-100887030D02*
X92788200Y-101001315D01*
X92788200Y-101001315D02*
X92731057Y-101058458D01*
X91645342Y-99629887D02*
X91645342Y-99515601D01*
X91645342Y-99515601D02*
X91702485Y-99401315D01*
X91702485Y-99401315D02*
X91759628Y-99344173D01*
X91759628Y-99344173D02*
X91873914Y-99287030D01*
X91873914Y-99287030D02*
X92102485Y-99229887D01*
X92102485Y-99229887D02*
X92388200Y-99229887D01*
X92388200Y-99229887D02*
X92616771Y-99287030D01*
X92616771Y-99287030D02*
X92731057Y-99344173D01*
X92731057Y-99344173D02*
X92788200Y-99401315D01*
X92788200Y-99401315D02*
X92845342Y-99515601D01*
X92845342Y-99515601D02*
X92845342Y-99629887D01*
X92845342Y-99629887D02*
X92788200Y-99744173D01*
X92788200Y-99744173D02*
X92731057Y-99801315D01*
X92731057Y-99801315D02*
X92616771Y-99858458D01*
X92616771Y-99858458D02*
X92388200Y-99915601D01*
X92388200Y-99915601D02*
X92102485Y-99915601D01*
X92102485Y-99915601D02*
X91873914Y-99858458D01*
X91873914Y-99858458D02*
X91759628Y-99801315D01*
X91759628Y-99801315D02*
X91702485Y-99744173D01*
X91702485Y-99744173D02*
X91645342Y-99629887D01*
D16*
%TO.P,U1,1,OUT+*%
%TO.N,+5V*%
X105160000Y-132920000D03*
%TO.P,U1,2,B+*%
%TO.N,Net-(BT1-+)*%
X105160000Y-135460000D03*
%TO.P,U1,3,B-*%
%TO.N,Net-(BT1--)*%
X105160000Y-140540000D03*
%TO.P,U1,4,OUT-*%
%TO.N,GND*%
X105160000Y-143080000D03*
%TD*%
D17*
%TO.P,U4,1,3V3*%
%TO.N,+3V3*%
X109640000Y-72500000D03*
D18*
%TO.P,U4,2,EN/RESET*%
%TO.N,unconnected-(U4-EN{slash}RESET-Pad2)*%
X109640000Y-75040000D03*
%TO.P,U4,3,GPIO2/MTMS*%
%TO.N,Net-(D2-A)*%
X109640000Y-77580000D03*
%TO.P,U4,4,GPIO3/MTDI*%
%TO.N,unconnected-(U4-GPIO3{slash}MTDI-Pad4)*%
X109640000Y-80120000D03*
%TO.P,U4,5,GPIO4/MTCK*%
%TO.N,Net-(U4-GPIO4{slash}MTCK)*%
X109640000Y-82660000D03*
%TO.P,U4,6,GPIO5/MTDO*%
%TO.N,unconnected-(U4-GPIO5{slash}MTDO-Pad6)*%
X109640000Y-85200000D03*
%TO.P,U4,7,GPIO0*%
%TO.N,unconnected-(U4-GPIO0-Pad7)*%
X109640000Y-87740000D03*
%TO.P,U4,8,GPIO1*%
%TO.N,unconnected-(U4-GPIO1-Pad8)*%
X109640000Y-90280000D03*
%TO.P,U4,9,GPIO27*%
%TO.N,unconnected-(U4-GPIO27-Pad9)*%
X109640000Y-92820000D03*
%TO.P,U4,10,GPIO6*%
%TO.N,unconnected-(U4-GPIO6-Pad10)*%
X109640000Y-95360000D03*
%TO.P,U4,11,GPIO7*%
%TO.N,unconnected-(U4-GPIO7-Pad11)*%
X109640000Y-97900000D03*
%TO.P,U4,12,GPIO26*%
%TO.N,Net-(U4-GPIO26)*%
X109640000Y-100440000D03*
%TO.P,U4,13,GPIO25*%
%TO.N,Net-(U4-GPIO25)*%
X109640000Y-102980000D03*
%TO.P,U4,14,5V*%
%TO.N,+5V*%
X109640000Y-105520000D03*
%TO.P,U4,15,GND*%
%TO.N,GND*%
X109640000Y-108060000D03*
%TO.P,U4,16,NC*%
%TO.N,unconnected-(U4-NC-Pad16)*%
X109640000Y-110600000D03*
%TO.P,U4,17,NC*%
%TO.N,unconnected-(U4-NC-Pad17)*%
X132500000Y-110600000D03*
%TO.P,U4,18,GND*%
%TO.N,GND*%
X132500000Y-108060000D03*
%TO.P,U4,19,GPIO13/USB_D-*%
%TO.N,unconnected-(U4-GPIO13{slash}USB_D--Pad19)*%
X132500000Y-105520000D03*
%TO.P,U4,20,GPIO14/USB_D+*%
%TO.N,unconnected-(U4-GPIO14{slash}USB_D+-Pad20)*%
X132500000Y-102980000D03*
%TO.P,U4,21,GND*%
%TO.N,GND*%
X132500000Y-100440000D03*
%TO.P,U4,22,GPIO28*%
%TO.N,unconnected-(U4-GPIO28-Pad22)*%
X132500000Y-97900000D03*
%TO.P,U4,23,NC*%
%TO.N,unconnected-(U4-NC-Pad23)*%
X132500000Y-95360000D03*
%TO.P,U4,24,GPIO8*%
%TO.N,unconnected-(U4-GPIO8-Pad24)*%
X132500000Y-92820000D03*
%TO.P,U4,25,GPIO9*%
%TO.N,unconnected-(U4-GPIO9-Pad25)*%
X132500000Y-90280000D03*
%TO.P,U4,26,GPIO10*%
%TO.N,unconnected-(U4-GPIO10-Pad26)*%
X132500000Y-87740000D03*
%TO.P,U4,27,GPIO15*%
%TO.N,unconnected-(U4-GPIO15-Pad27)*%
X132500000Y-85200000D03*
%TO.P,U4,28,GPIO23*%
%TO.N,Net-(U4-GPIO23)*%
X132500000Y-82660000D03*
%TO.P,U4,29,GPIO24*%
%TO.N,Net-(U4-GPIO24)*%
X132500000Y-80120000D03*
%TO.P,U4,30,GPIO12/U0RXD*%
%TO.N,unconnected-(U4-GPIO12{slash}U0RXD-Pad30)*%
X132500000Y-77580000D03*
%TO.P,U4,31,GPIO11/U0TXD*%
%TO.N,unconnected-(U4-GPIO11{slash}U0TXD-Pad31)*%
X132500000Y-75040000D03*
%TO.P,U4,32,GND*%
%TO.N,GND*%
X132500000Y-72500000D03*
%TD*%
D16*
%TO.P,D2,1,K*%
%TO.N,GND*%
X96960000Y-82000000D03*
D19*
%TO.P,D2,2,A*%
%TO.N,Net-(D2-A)*%
X99500000Y-82000000D03*
%TD*%
%TO.P,U6,1,VCC*%
%TO.N,+3V3*%
X84000000Y-89180000D03*
%TO.P,U6,2,GND*%
%TO.N,GND*%
X84000000Y-91720000D03*
%TO.P,U6,3,SCL*%
%TO.N,Net-(U4-GPIO26)*%
X84000000Y-94260000D03*
%TO.P,U6,4,SDA*%
%TO.N,Net-(U4-GPIO25)*%
X84000000Y-96800000D03*
%TO.P,U6,5,EDA*%
%TO.N,unconnected-(U6-EDA-Pad5)*%
X84000000Y-99340000D03*
%TO.P,U6,6,ECL*%
%TO.N,unconnected-(U6-ECL-Pad6)*%
X84000000Y-101880000D03*
%TO.P,U6,7,ADO*%
%TO.N,unconnected-(U6-ADO-Pad7)*%
X84000000Y-104420000D03*
%TO.P,U6,8,INT*%
%TO.N,unconnected-(U6-INT-Pad8)*%
X84000000Y-106960000D03*
%TO.P,U6,9,NCS*%
%TO.N,unconnected-(U6-NCS-Pad9)*%
X84000000Y-109500000D03*
%TO.P,U6,10,FSYNC*%
%TO.N,unconnected-(U6-FSYNC-Pad10)*%
X84000000Y-112040000D03*
%TD*%
D20*
%TO.P,SW2,1,1*%
%TO.N,GND*%
X142500000Y-83000000D03*
X142500000Y-89500000D03*
%TO.P,SW2,2,2*%
%TO.N,Net-(U4-GPIO4{slash}MTCK)*%
X138000000Y-83000000D03*
X138000000Y-89500000D03*
%TD*%
D19*
%TO.P,U5,1,GND*%
%TO.N,GND*%
X137150000Y-113605000D03*
%TO.P,U5,2,VCC*%
%TO.N,+3V3*%
X137150000Y-116145000D03*
%TO.P,U5,3,SCL*%
%TO.N,Net-(U4-GPIO24)*%
X137150000Y-118685000D03*
%TO.P,U5,4,SDA*%
%TO.N,Net-(U4-GPIO23)*%
X137150000Y-121225000D03*
%TD*%
D21*
%TO.N,+3V3*%
X109140000Y-72000000D02*
X109640000Y-72500000D01*
%TO.N,Net-(D2-A)*%
X103920000Y-77580000D02*
X109640000Y-77580000D01*
X99500000Y-82000000D02*
X100000000Y-82000000D01*
X99500000Y-82000000D02*
X103920000Y-77580000D01*
%TO.N,Net-(U4-GPIO4{slash}MTCK)*%
X138000000Y-83000000D02*
X137439000Y-83561000D01*
X138000000Y-89500000D02*
X138000000Y-83000000D01*
X137500000Y-83500000D02*
X110480000Y-83500000D01*
X110480000Y-83500000D02*
X109640000Y-82660000D01*
X138000000Y-83000000D02*
X137500000Y-83500000D01*
%TO.N,Net-(U4-GPIO26)*%
X103460000Y-94260000D02*
X109640000Y-100440000D01*
X84000000Y-94260000D02*
X103460000Y-94260000D01*
%TO.N,Net-(U4-GPIO25)*%
X101300000Y-96800000D02*
X107480000Y-102980000D01*
X107480000Y-102980000D02*
X109640000Y-102980000D01*
X84000000Y-96800000D02*
X101300000Y-96800000D01*
%TD*%
%TA.AperFunction,Conductor*%
%TO.N,+3V3*%
G36*
X145942539Y-64020185D02*
G01*
X145988294Y-64072989D01*
X145999500Y-64124500D01*
X145999500Y-146375500D01*
X145979815Y-146442539D01*
X145927011Y-146488294D01*
X145875500Y-146499500D01*
X82124500Y-146499500D01*
X82057461Y-146479815D01*
X82011706Y-146427011D01*
X82000500Y-146375500D01*
X82000500Y-139592135D01*
X103759500Y-139592135D01*
X103759500Y-141487870D01*
X103759501Y-141487876D01*
X103765908Y-141547483D01*
X103816202Y-141682328D01*
X103816203Y-141682330D01*
X103856148Y-141735689D01*
X103880565Y-141801153D01*
X103865714Y-141869426D01*
X103856148Y-141884311D01*
X103816203Y-141937669D01*
X103816202Y-141937671D01*
X103765908Y-142072517D01*
X103759501Y-142132116D01*
X103759501Y-142132123D01*
X103759500Y-142132135D01*
X103759500Y-144027870D01*
X103759501Y-144027876D01*
X103765908Y-144087483D01*
X103816202Y-144222328D01*
X103816206Y-144222335D01*
X103902452Y-144337544D01*
X103902455Y-144337547D01*
X104017664Y-144423793D01*
X104017671Y-144423797D01*
X104152517Y-144474091D01*
X104152516Y-144474091D01*
X104159444Y-144474835D01*
X104212127Y-144480500D01*
X106107872Y-144480499D01*
X106167483Y-144474091D01*
X106302331Y-144423796D01*
X106417546Y-144337546D01*
X106503796Y-144222331D01*
X106554091Y-144087483D01*
X106560500Y-144027873D01*
X106560499Y-142132128D01*
X106554091Y-142072517D01*
X106503796Y-141937669D01*
X106463851Y-141884310D01*
X106439435Y-141818847D01*
X106454286Y-141750574D01*
X106463852Y-141735689D01*
X106503796Y-141682331D01*
X106554091Y-141547483D01*
X106560500Y-141487873D01*
X106560499Y-139592128D01*
X106554091Y-139532517D01*
X106503796Y-139397669D01*
X106503795Y-139397668D01*
X106503793Y-139397664D01*
X106417547Y-139282455D01*
X106417544Y-139282452D01*
X106302335Y-139196206D01*
X106302328Y-139196202D01*
X106167482Y-139145908D01*
X106167483Y-139145908D01*
X106107883Y-139139501D01*
X106107881Y-139139500D01*
X106107873Y-139139500D01*
X106107864Y-139139500D01*
X104212129Y-139139500D01*
X104212123Y-139139501D01*
X104152516Y-139145908D01*
X104017671Y-139196202D01*
X104017664Y-139196206D01*
X103902455Y-139282452D01*
X103902452Y-139282455D01*
X103816206Y-139397664D01*
X103816202Y-139397671D01*
X103765908Y-139532517D01*
X103759501Y-139592116D01*
X103759501Y-139592123D01*
X103759500Y-139592135D01*
X82000500Y-139592135D01*
X82000500Y-131972135D01*
X103759500Y-131972135D01*
X103759500Y-133867870D01*
X103759501Y-133867876D01*
X103765908Y-133927483D01*
X103816202Y-134062328D01*
X103816203Y-134062330D01*
X103856148Y-134115689D01*
X103880565Y-134181153D01*
X103865714Y-134249426D01*
X103856148Y-134264311D01*
X103816203Y-134317669D01*
X103816202Y-134317671D01*
X103765908Y-134452517D01*
X103759501Y-134512116D01*
X103759501Y-134512123D01*
X103759500Y-134512135D01*
X103759500Y-136407870D01*
X103759501Y-136407876D01*
X103765908Y-136467483D01*
X103816202Y-136602328D01*
X103816206Y-136602335D01*
X103902452Y-136717544D01*
X103902455Y-136717547D01*
X104017664Y-136803793D01*
X104017671Y-136803797D01*
X104152517Y-136854091D01*
X104152516Y-136854091D01*
X104159444Y-136854835D01*
X104212127Y-136860500D01*
X106107872Y-136860499D01*
X106167483Y-136854091D01*
X106302331Y-136803796D01*
X106417546Y-136717546D01*
X106503796Y-136602331D01*
X106554091Y-136467483D01*
X106560500Y-136407873D01*
X106560499Y-134512128D01*
X106554091Y-134452517D01*
X106503796Y-134317669D01*
X106463851Y-134264310D01*
X106439435Y-134198847D01*
X106454286Y-134130574D01*
X106463852Y-134115689D01*
X106503796Y-134062331D01*
X106554091Y-133927483D01*
X106560500Y-133867873D01*
X106560499Y-131972128D01*
X106554091Y-131912517D01*
X106503796Y-131777669D01*
X106503795Y-131777668D01*
X106503793Y-131777664D01*
X106417547Y-131662455D01*
X106417544Y-131662452D01*
X106302335Y-131576206D01*
X106302328Y-131576202D01*
X106167482Y-131525908D01*
X106167483Y-131525908D01*
X106107883Y-131519501D01*
X106107881Y-131519500D01*
X106107873Y-131519500D01*
X106107864Y-131519500D01*
X104212129Y-131519500D01*
X104212123Y-131519501D01*
X104152516Y-131525908D01*
X104017671Y-131576202D01*
X104017664Y-131576206D01*
X103902455Y-131662452D01*
X103902452Y-131662455D01*
X103816206Y-131777664D01*
X103816202Y-131777671D01*
X103765908Y-131912517D01*
X103759501Y-131972116D01*
X103759501Y-131972123D01*
X103759500Y-131972135D01*
X82000500Y-131972135D01*
X82000500Y-123747135D01*
X142036097Y-123747135D01*
X144449388Y-123747135D01*
X144449388Y-118475422D01*
X142036097Y-118475422D01*
X142036097Y-123747135D01*
X82000500Y-123747135D01*
X82000500Y-113494778D01*
X135749500Y-113494778D01*
X135749500Y-113715221D01*
X135783985Y-113932952D01*
X135852103Y-114142603D01*
X135852104Y-114142606D01*
X135952187Y-114339025D01*
X136081752Y-114517358D01*
X136081756Y-114517363D01*
X136237640Y-114673247D01*
X136377679Y-114774990D01*
X136420345Y-114830319D01*
X136426324Y-114899933D01*
X136393719Y-114961728D01*
X136377679Y-114975626D01*
X136352485Y-114993930D01*
X136352485Y-114993932D01*
X137020590Y-115662037D01*
X136957007Y-115679075D01*
X136842993Y-115744901D01*
X136749901Y-115837993D01*
X136684075Y-115952007D01*
X136667037Y-116015590D01*
X135998932Y-115347485D01*
X135998931Y-115347485D01*
X135952616Y-115411233D01*
X135852567Y-115607589D01*
X135784473Y-115817164D01*
X135750000Y-116034818D01*
X135750000Y-116255181D01*
X135784473Y-116472835D01*
X135852567Y-116682410D01*
X135952611Y-116878756D01*
X135998932Y-116942513D01*
X136667037Y-116274408D01*
X136684075Y-116337993D01*
X136749901Y-116452007D01*
X136842993Y-116545099D01*
X136957007Y-116610925D01*
X137020590Y-116627962D01*
X136352485Y-117296065D01*
X136352485Y-117296066D01*
X136377680Y-117314371D01*
X136420346Y-117369701D01*
X136426325Y-117439314D01*
X136393720Y-117501110D01*
X136377681Y-117515008D01*
X136237636Y-117616756D01*
X136081756Y-117772636D01*
X136081752Y-117772641D01*
X135952187Y-117950974D01*
X135852104Y-118147393D01*
X135852103Y-118147396D01*
X135783985Y-118357047D01*
X135749500Y-118574778D01*
X135749500Y-118795221D01*
X135783985Y-119012952D01*
X135852103Y-119222603D01*
X135852104Y-119222606D01*
X135952187Y-119419025D01*
X136081752Y-119597358D01*
X136081756Y-119597363D01*
X136237636Y-119753243D01*
X136237641Y-119753247D01*
X136377254Y-119854682D01*
X136419920Y-119910012D01*
X136425899Y-119979625D01*
X136393293Y-120041420D01*
X136377254Y-120055318D01*
X136237641Y-120156752D01*
X136237636Y-120156756D01*
X136081756Y-120312636D01*
X136081752Y-120312641D01*
X135952187Y-120490974D01*
X135852104Y-120687393D01*
X135852103Y-120687396D01*
X135783985Y-120897047D01*
X135749500Y-121114778D01*
X135749500Y-121335221D01*
X135783985Y-121552952D01*
X135852103Y-121762603D01*
X135852104Y-121762606D01*
X135952187Y-121959025D01*
X136081752Y-122137358D01*
X136081756Y-122137363D01*
X136237636Y-122293243D01*
X136237641Y-122293247D01*
X136393192Y-122406260D01*
X136415978Y-122422815D01*
X136544375Y-122488237D01*
X136612393Y-122522895D01*
X136612396Y-122522896D01*
X136717221Y-122556955D01*
X136822049Y-122591015D01*
X137039778Y-122625500D01*
X137039779Y-122625500D01*
X137260221Y-122625500D01*
X137260222Y-122625500D01*
X137477951Y-122591015D01*
X137687606Y-122522895D01*
X137884022Y-122422815D01*
X138062365Y-122293242D01*
X138218242Y-122137365D01*
X138347815Y-121959022D01*
X138447895Y-121762606D01*
X138516015Y-121552951D01*
X138550500Y-121335222D01*
X138550500Y-121114778D01*
X138516015Y-120897049D01*
X138447895Y-120687394D01*
X138447895Y-120687393D01*
X138413237Y-120619375D01*
X138347815Y-120490978D01*
X138331260Y-120468192D01*
X138218247Y-120312641D01*
X138218243Y-120312636D01*
X138062363Y-120156756D01*
X138062358Y-120156752D01*
X137922745Y-120055318D01*
X137880079Y-119999989D01*
X137874100Y-119930375D01*
X137906705Y-119868580D01*
X137922745Y-119854682D01*
X138062358Y-119753247D01*
X138062356Y-119753247D01*
X138062365Y-119753242D01*
X138218242Y-119597365D01*
X138347815Y-119419022D01*
X138447895Y-119222606D01*
X138516015Y-119012951D01*
X138550500Y-118795222D01*
X138550500Y-118574778D01*
X138516015Y-118357049D01*
X138447895Y-118147394D01*
X138447895Y-118147393D01*
X138413237Y-118079375D01*
X138347815Y-117950978D01*
X138331260Y-117928192D01*
X138218247Y-117772641D01*
X138218243Y-117772636D01*
X138062363Y-117616756D01*
X138062358Y-117616752D01*
X137922319Y-117515008D01*
X137879653Y-117459678D01*
X137873674Y-117390065D01*
X137906279Y-117328270D01*
X137922319Y-117314372D01*
X137947513Y-117296066D01*
X137947514Y-117296066D01*
X137279409Y-116627962D01*
X137342993Y-116610925D01*
X137457007Y-116545099D01*
X137550099Y-116452007D01*
X137615925Y-116337993D01*
X137632962Y-116274410D01*
X138301066Y-116942514D01*
X138301066Y-116942513D01*
X138347386Y-116878760D01*
X138447432Y-116682410D01*
X138515526Y-116472835D01*
X138550000Y-116255181D01*
X138550000Y-116034818D01*
X138515526Y-115817164D01*
X138447432Y-115607589D01*
X138347388Y-115411243D01*
X138301066Y-115347485D01*
X138301065Y-115347485D01*
X137632962Y-116015589D01*
X137615925Y-115952007D01*
X137550099Y-115837993D01*
X137457007Y-115744901D01*
X137342993Y-115679075D01*
X137279407Y-115662037D01*
X137947513Y-114993932D01*
X137922319Y-114975628D01*
X137879653Y-114920298D01*
X137873674Y-114850685D01*
X137906279Y-114788889D01*
X137922313Y-114774994D01*
X138062365Y-114673242D01*
X138218242Y-114517365D01*
X138347815Y-114339022D01*
X138447895Y-114142606D01*
X138516015Y-113932951D01*
X138550500Y-113715222D01*
X138550500Y-113494778D01*
X138516015Y-113277049D01*
X138461169Y-113108247D01*
X138447896Y-113067396D01*
X138447895Y-113067393D01*
X138389283Y-112952363D01*
X138347815Y-112870978D01*
X138277373Y-112774022D01*
X138218247Y-112692641D01*
X138218243Y-112692636D01*
X138062363Y-112536756D01*
X138062358Y-112536752D01*
X137884025Y-112407187D01*
X137884024Y-112407186D01*
X137884022Y-112407185D01*
X137807022Y-112367951D01*
X137687606Y-112307104D01*
X137687603Y-112307103D01*
X137477952Y-112238985D01*
X137369086Y-112221742D01*
X137260222Y-112204500D01*
X137039778Y-112204500D01*
X136967201Y-112215995D01*
X136822047Y-112238985D01*
X136612396Y-112307103D01*
X136612393Y-112307104D01*
X136415974Y-112407187D01*
X136237641Y-112536752D01*
X136237636Y-112536756D01*
X136081756Y-112692636D01*
X136081752Y-112692641D01*
X135952187Y-112870974D01*
X135852104Y-113067393D01*
X135852103Y-113067396D01*
X135783985Y-113277047D01*
X135749500Y-113494778D01*
X82000500Y-113494778D01*
X82000500Y-91609778D01*
X82599500Y-91609778D01*
X82599500Y-91830221D01*
X82633985Y-92047952D01*
X82702103Y-92257603D01*
X82702104Y-92257606D01*
X82802187Y-92454025D01*
X82931752Y-92632358D01*
X82931756Y-92632363D01*
X83087636Y-92788243D01*
X83087641Y-92788247D01*
X83227254Y-92889682D01*
X83269920Y-92945012D01*
X83275899Y-93014625D01*
X83243293Y-93076420D01*
X83227254Y-93090318D01*
X83087641Y-93191752D01*
X83087636Y-93191756D01*
X82931756Y-93347636D01*
X82931752Y-93347641D01*
X82802187Y-93525974D01*
X82702104Y-93722393D01*
X82702103Y-93722396D01*
X82633985Y-93932047D01*
X82599500Y-94149778D01*
X82599500Y-94370221D01*
X82633985Y-94587952D01*
X82702103Y-94797603D01*
X82702104Y-94797606D01*
X82802187Y-94994025D01*
X82931752Y-95172358D01*
X82931756Y-95172363D01*
X83087636Y-95328243D01*
X83087641Y-95328247D01*
X83227254Y-95429682D01*
X83269920Y-95485012D01*
X83275899Y-95554625D01*
X83243293Y-95616420D01*
X83227254Y-95630318D01*
X83087641Y-95731752D01*
X83087636Y-95731756D01*
X82931756Y-95887636D01*
X82931752Y-95887641D01*
X82802187Y-96065974D01*
X82702104Y-96262393D01*
X82702103Y-96262396D01*
X82633985Y-96472047D01*
X82599500Y-96689778D01*
X82599500Y-96910221D01*
X82633985Y-97127952D01*
X82702103Y-97337603D01*
X82702104Y-97337606D01*
X82802187Y-97534025D01*
X82931752Y-97712358D01*
X82931756Y-97712363D01*
X83087636Y-97868243D01*
X83087641Y-97868247D01*
X83227254Y-97969682D01*
X83269920Y-98025012D01*
X83275899Y-98094625D01*
X83243293Y-98156420D01*
X83227254Y-98170318D01*
X83087641Y-98271752D01*
X83087636Y-98271756D01*
X82931756Y-98427636D01*
X82931752Y-98427641D01*
X82802187Y-98605974D01*
X82702104Y-98802393D01*
X82702103Y-98802396D01*
X82633985Y-99012047D01*
X82599500Y-99229778D01*
X82599500Y-99450221D01*
X82633985Y-99667952D01*
X82702103Y-99877603D01*
X82702104Y-99877606D01*
X82802187Y-100074025D01*
X82931752Y-100252358D01*
X82931756Y-100252363D01*
X83087636Y-100408243D01*
X83087641Y-100408247D01*
X83227254Y-100509682D01*
X83269920Y-100565012D01*
X83275899Y-100634625D01*
X83243293Y-100696420D01*
X83227254Y-100710318D01*
X83087641Y-100811752D01*
X83087636Y-100811756D01*
X82931756Y-100967636D01*
X82931752Y-100967641D01*
X82802187Y-101145974D01*
X82702104Y-101342393D01*
X82702103Y-101342396D01*
X82633985Y-101552047D01*
X82599500Y-101769778D01*
X82599500Y-101990221D01*
X82633985Y-102207952D01*
X82702103Y-102417603D01*
X82702104Y-102417606D01*
X82802187Y-102614025D01*
X82931752Y-102792358D01*
X82931756Y-102792363D01*
X83087636Y-102948243D01*
X83087641Y-102948247D01*
X83227254Y-103049682D01*
X83269920Y-103105012D01*
X83275899Y-103174625D01*
X83243293Y-103236420D01*
X83227254Y-103250318D01*
X83087641Y-103351752D01*
X83087636Y-103351756D01*
X82931758Y-103507635D01*
X82931752Y-103507641D01*
X82802187Y-103685974D01*
X82702104Y-103882393D01*
X82702103Y-103882396D01*
X82633985Y-104092047D01*
X82599500Y-104309778D01*
X82599500Y-104530221D01*
X82633985Y-104747952D01*
X82702103Y-104957603D01*
X82702104Y-104957606D01*
X82802187Y-105154025D01*
X82931752Y-105332358D01*
X82931756Y-105332363D01*
X83087636Y-105488243D01*
X83087641Y-105488247D01*
X83227254Y-105589682D01*
X83269920Y-105645012D01*
X83275899Y-105714625D01*
X83243293Y-105776420D01*
X83227254Y-105790318D01*
X83087641Y-105891752D01*
X83087636Y-105891756D01*
X82931756Y-106047636D01*
X82931752Y-106047641D01*
X82802187Y-106225974D01*
X82702104Y-106422393D01*
X82702103Y-106422396D01*
X82633985Y-106632047D01*
X82599500Y-106849778D01*
X82599500Y-107070221D01*
X82633985Y-107287952D01*
X82702103Y-107497603D01*
X82702104Y-107497606D01*
X82802187Y-107694025D01*
X82931752Y-107872358D01*
X82931756Y-107872363D01*
X83087636Y-108028243D01*
X83087641Y-108028247D01*
X83227254Y-108129682D01*
X83269920Y-108185012D01*
X83275899Y-108254625D01*
X83243293Y-108316420D01*
X83227254Y-108330318D01*
X83087641Y-108431752D01*
X83087636Y-108431756D01*
X82931756Y-108587636D01*
X82931752Y-108587641D01*
X82802187Y-108765974D01*
X82702104Y-108962393D01*
X82702103Y-108962396D01*
X82633985Y-109172047D01*
X82599500Y-109389778D01*
X82599500Y-109610221D01*
X82633985Y-109827952D01*
X82702103Y-110037603D01*
X82702104Y-110037606D01*
X82802187Y-110234025D01*
X82931752Y-110412358D01*
X82931756Y-110412363D01*
X83087636Y-110568243D01*
X83087641Y-110568247D01*
X83227254Y-110669682D01*
X83269920Y-110725012D01*
X83275899Y-110794625D01*
X83243293Y-110856420D01*
X83227254Y-110870318D01*
X83087641Y-110971752D01*
X83087636Y-110971756D01*
X82931756Y-111127636D01*
X82931752Y-111127641D01*
X82802187Y-111305974D01*
X82702104Y-111502393D01*
X82702103Y-111502396D01*
X82633985Y-111712047D01*
X82599500Y-111929778D01*
X82599500Y-112150221D01*
X82633985Y-112367952D01*
X82702103Y-112577603D01*
X82702104Y-112577606D01*
X82802187Y-112774025D01*
X82931752Y-112952358D01*
X82931756Y-112952363D01*
X83087636Y-113108243D01*
X83087641Y-113108247D01*
X83243192Y-113221260D01*
X83265978Y-113237815D01*
X83394375Y-113303237D01*
X83462393Y-113337895D01*
X83462396Y-113337896D01*
X83567221Y-113371955D01*
X83672049Y-113406015D01*
X83889778Y-113440500D01*
X83889779Y-113440500D01*
X84110221Y-113440500D01*
X84110222Y-113440500D01*
X84327951Y-113406015D01*
X84397444Y-113383435D01*
X84432718Y-113371975D01*
X84537603Y-113337896D01*
X84537606Y-113337895D01*
X84734022Y-113237815D01*
X84912365Y-113108242D01*
X85068242Y-112952365D01*
X85197815Y-112774022D01*
X85297895Y-112577606D01*
X85366015Y-112367951D01*
X85400500Y-112150222D01*
X85400500Y-111929778D01*
X85366015Y-111712049D01*
X85297895Y-111502394D01*
X85297895Y-111502393D01*
X85203395Y-111316930D01*
X85197815Y-111305978D01*
X85103954Y-111176788D01*
X85068247Y-111127641D01*
X85068243Y-111127636D01*
X84912363Y-110971756D01*
X84912358Y-110971752D01*
X84772745Y-110870318D01*
X84730079Y-110814989D01*
X84724100Y-110745375D01*
X84756705Y-110683580D01*
X84772745Y-110669682D01*
X84912358Y-110568247D01*
X84912356Y-110568247D01*
X84912365Y-110568242D01*
X84967218Y-110513389D01*
X108139500Y-110513389D01*
X108139500Y-110686610D01*
X108164140Y-110842185D01*
X108166598Y-110857701D01*
X108220127Y-111022445D01*
X108298768Y-111176788D01*
X108400586Y-111316928D01*
X108523072Y-111439414D01*
X108663212Y-111541232D01*
X108817555Y-111619873D01*
X108982299Y-111673402D01*
X109153389Y-111700500D01*
X109153390Y-111700500D01*
X110126610Y-111700500D01*
X110126611Y-111700500D01*
X110297701Y-111673402D01*
X110462445Y-111619873D01*
X110616788Y-111541232D01*
X110756928Y-111439414D01*
X110879414Y-111316928D01*
X110981232Y-111176788D01*
X111059873Y-111022445D01*
X111113402Y-110857701D01*
X111140500Y-110686611D01*
X111140500Y-110513389D01*
X130999500Y-110513389D01*
X130999500Y-110686610D01*
X131024140Y-110842185D01*
X131026598Y-110857701D01*
X131080127Y-111022445D01*
X131158768Y-111176788D01*
X131260586Y-111316928D01*
X131383072Y-111439414D01*
X131523212Y-111541232D01*
X131677555Y-111619873D01*
X131842299Y-111673402D01*
X132013389Y-111700500D01*
X132013390Y-111700500D01*
X132986610Y-111700500D01*
X132986611Y-111700500D01*
X133157701Y-111673402D01*
X133322445Y-111619873D01*
X133476788Y-111541232D01*
X133616928Y-111439414D01*
X133739414Y-111316928D01*
X133841232Y-111176788D01*
X133919873Y-111022445D01*
X133973402Y-110857701D01*
X134000500Y-110686611D01*
X134000500Y-110513389D01*
X133973402Y-110342299D01*
X133919873Y-110177555D01*
X133841232Y-110023212D01*
X133739414Y-109883072D01*
X133616928Y-109760586D01*
X133476788Y-109658768D01*
X133322445Y-109580127D01*
X133157701Y-109526598D01*
X133157699Y-109526597D01*
X133157698Y-109526597D01*
X133026271Y-109505781D01*
X132986611Y-109499500D01*
X132013389Y-109499500D01*
X131973728Y-109505781D01*
X131842302Y-109526597D01*
X131677552Y-109580128D01*
X131523211Y-109658768D01*
X131443256Y-109716859D01*
X131383072Y-109760586D01*
X131383070Y-109760588D01*
X131383069Y-109760588D01*
X131260588Y-109883069D01*
X131260588Y-109883070D01*
X131260586Y-109883072D01*
X131216859Y-109943256D01*
X131158768Y-110023211D01*
X131080128Y-110177552D01*
X131026597Y-110342302D01*
X130999500Y-110513389D01*
X111140500Y-110513389D01*
X111113402Y-110342299D01*
X111059873Y-110177555D01*
X110981232Y-110023212D01*
X110879414Y-109883072D01*
X110756928Y-109760586D01*
X110616788Y-109658768D01*
X110462445Y-109580127D01*
X110297701Y-109526598D01*
X110297699Y-109526597D01*
X110297698Y-109526597D01*
X110166271Y-109505781D01*
X110126611Y-109499500D01*
X109153389Y-109499500D01*
X109113728Y-109505781D01*
X108982302Y-109526597D01*
X108817552Y-109580128D01*
X108663211Y-109658768D01*
X108583256Y-109716859D01*
X108523072Y-109760586D01*
X108523070Y-109760588D01*
X108523069Y-109760588D01*
X108400588Y-109883069D01*
X108400588Y-109883070D01*
X108400586Y-109883072D01*
X108356859Y-109943256D01*
X108298768Y-110023211D01*
X108220128Y-110177552D01*
X108166597Y-110342302D01*
X108139500Y-110513389D01*
X84967218Y-110513389D01*
X85068242Y-110412365D01*
X85197815Y-110234022D01*
X85297895Y-110037606D01*
X85366015Y-109827951D01*
X85400500Y-109610222D01*
X85400500Y-109389778D01*
X85366015Y-109172049D01*
X85297895Y-108962394D01*
X85297895Y-108962393D01*
X85203395Y-108776930D01*
X85197815Y-108765978D01*
X85103954Y-108636788D01*
X85068247Y-108587641D01*
X85068243Y-108587636D01*
X84912363Y-108431756D01*
X84912358Y-108431752D01*
X84772745Y-108330318D01*
X84730079Y-108274989D01*
X84724100Y-108205375D01*
X84756705Y-108143580D01*
X84772745Y-108129682D01*
X84912358Y-108028247D01*
X84912356Y-108028247D01*
X84912365Y-108028242D01*
X84967218Y-107973389D01*
X108139500Y-107973389D01*
X108139500Y-108146610D01*
X108164140Y-108302185D01*
X108166598Y-108317701D01*
X108220127Y-108482445D01*
X108298768Y-108636788D01*
X108400586Y-108776928D01*
X108523072Y-108899414D01*
X108663212Y-109001232D01*
X108817555Y-109079873D01*
X108982299Y-109133402D01*
X109153389Y-109160500D01*
X109153390Y-109160500D01*
X110126610Y-109160500D01*
X110126611Y-109160500D01*
X110297701Y-109133402D01*
X110462445Y-109079873D01*
X110616788Y-109001232D01*
X110756928Y-108899414D01*
X110879414Y-108776928D01*
X110981232Y-108636788D01*
X111059873Y-108482445D01*
X111113402Y-108317701D01*
X111140500Y-108146611D01*
X111140500Y-107973389D01*
X130999500Y-107973389D01*
X130999500Y-108146610D01*
X131024140Y-108302185D01*
X131026598Y-108317701D01*
X131080127Y-108482445D01*
X131158768Y-108636788D01*
X131260586Y-108776928D01*
X131383072Y-108899414D01*
X131523212Y-109001232D01*
X131677555Y-109079873D01*
X131842299Y-109133402D01*
X132013389Y-109160500D01*
X132013390Y-109160500D01*
X132986610Y-109160500D01*
X132986611Y-109160500D01*
X133157701Y-109133402D01*
X133322445Y-109079873D01*
X133476788Y-109001232D01*
X133616928Y-108899414D01*
X133739414Y-108776928D01*
X133841232Y-108636788D01*
X133919873Y-108482445D01*
X133973402Y-108317701D01*
X134000500Y-108146611D01*
X134000500Y-107973389D01*
X133973402Y-107802299D01*
X133919873Y-107637555D01*
X133841232Y-107483212D01*
X133739414Y-107343072D01*
X133616928Y-107220586D01*
X133476788Y-107118768D01*
X133322445Y-107040127D01*
X133157701Y-106986598D01*
X133157699Y-106986597D01*
X133157698Y-106986597D01*
X133026271Y-106965781D01*
X132986611Y-106959500D01*
X132013389Y-106959500D01*
X131973728Y-106965781D01*
X131842302Y-106986597D01*
X131677552Y-107040128D01*
X131523211Y-107118768D01*
X131443256Y-107176859D01*
X131383072Y-107220586D01*
X131383070Y-107220588D01*
X131383069Y-107220588D01*
X131260588Y-107343069D01*
X131260588Y-107343070D01*
X131260586Y-107343072D01*
X131216859Y-107403256D01*
X131158768Y-107483211D01*
X131080128Y-107637552D01*
X131026597Y-107802302D01*
X130999500Y-107973389D01*
X111140500Y-107973389D01*
X111113402Y-107802299D01*
X111059873Y-107637555D01*
X110981232Y-107483212D01*
X110879414Y-107343072D01*
X110756928Y-107220586D01*
X110616788Y-107118768D01*
X110462445Y-107040127D01*
X110297701Y-106986598D01*
X110297699Y-106986597D01*
X110297698Y-106986597D01*
X110166271Y-106965781D01*
X110126611Y-106959500D01*
X109153389Y-106959500D01*
X109113728Y-106965781D01*
X108982302Y-106986597D01*
X108817552Y-107040128D01*
X108663211Y-107118768D01*
X108583256Y-107176859D01*
X108523072Y-107220586D01*
X108523070Y-107220588D01*
X108523069Y-107220588D01*
X108400588Y-107343069D01*
X108400588Y-107343070D01*
X108400586Y-107343072D01*
X108356859Y-107403256D01*
X108298768Y-107483211D01*
X108220128Y-107637552D01*
X108166597Y-107802302D01*
X108139500Y-107973389D01*
X84967218Y-107973389D01*
X85068242Y-107872365D01*
X85195885Y-107696679D01*
X91063755Y-107696679D01*
X93426698Y-107696679D01*
X93426698Y-105433389D01*
X108139500Y-105433389D01*
X108139500Y-105606610D01*
X108164140Y-105762185D01*
X108166598Y-105777701D01*
X108220127Y-105942445D01*
X108298768Y-106096788D01*
X108400586Y-106236928D01*
X108523072Y-106359414D01*
X108663212Y-106461232D01*
X108817555Y-106539873D01*
X108982299Y-106593402D01*
X109153389Y-106620500D01*
X109153390Y-106620500D01*
X110126610Y-106620500D01*
X110126611Y-106620500D01*
X110297701Y-106593402D01*
X110462445Y-106539873D01*
X110616788Y-106461232D01*
X110756928Y-106359414D01*
X110879414Y-106236928D01*
X110981232Y-106096788D01*
X111059873Y-105942445D01*
X111113402Y-105777701D01*
X111140500Y-105606611D01*
X111140500Y-105433389D01*
X130999500Y-105433389D01*
X130999500Y-105606610D01*
X131024140Y-105762185D01*
X131026598Y-105777701D01*
X131080127Y-105942445D01*
X131158768Y-106096788D01*
X131260586Y-106236928D01*
X131383072Y-106359414D01*
X131523212Y-106461232D01*
X131677555Y-106539873D01*
X131842299Y-106593402D01*
X132013389Y-106620500D01*
X132013390Y-106620500D01*
X132986610Y-106620500D01*
X132986611Y-106620500D01*
X133157701Y-106593402D01*
X133322445Y-106539873D01*
X133476788Y-106461232D01*
X133616928Y-106359414D01*
X133739414Y-106236928D01*
X133841232Y-106096788D01*
X133919873Y-105942445D01*
X133973402Y-105777701D01*
X134000500Y-105606611D01*
X134000500Y-105433389D01*
X133973402Y-105262299D01*
X133919873Y-105097555D01*
X133841232Y-104943212D01*
X133739414Y-104803072D01*
X133616928Y-104680586D01*
X133476788Y-104578768D01*
X133322445Y-104500127D01*
X133157701Y-104446598D01*
X133157699Y-104446597D01*
X133157698Y-104446597D01*
X133026271Y-104425781D01*
X132986611Y-104419500D01*
X132013389Y-104419500D01*
X131973728Y-104425781D01*
X131842302Y-104446597D01*
X131677552Y-104500128D01*
X131523211Y-104578768D01*
X131443256Y-104636859D01*
X131383072Y-104680586D01*
X131383070Y-104680588D01*
X131383069Y-104680588D01*
X131260588Y-104803069D01*
X131260588Y-104803070D01*
X131260586Y-104803072D01*
X131216859Y-104863256D01*
X131158768Y-104943211D01*
X131080128Y-105097552D01*
X131026597Y-105262302D01*
X130999500Y-105433389D01*
X111140500Y-105433389D01*
X111113402Y-105262299D01*
X111059873Y-105097555D01*
X110981232Y-104943212D01*
X110879414Y-104803072D01*
X110756928Y-104680586D01*
X110616788Y-104578768D01*
X110462445Y-104500127D01*
X110297701Y-104446598D01*
X110297699Y-104446597D01*
X110297698Y-104446597D01*
X110166271Y-104425781D01*
X110126611Y-104419500D01*
X109153389Y-104419500D01*
X109113728Y-104425781D01*
X108982302Y-104446597D01*
X108817552Y-104500128D01*
X108663211Y-104578768D01*
X108583256Y-104636859D01*
X108523072Y-104680586D01*
X108523070Y-104680588D01*
X108523069Y-104680588D01*
X108400588Y-104803069D01*
X108400588Y-104803070D01*
X108400586Y-104803072D01*
X108356859Y-104863256D01*
X108298768Y-104943211D01*
X108220128Y-105097552D01*
X108166597Y-105262302D01*
X108139500Y-105433389D01*
X93426698Y-105433389D01*
X93426698Y-98648062D01*
X91063755Y-98648062D01*
X91063755Y-107696679D01*
X85195885Y-107696679D01*
X85197815Y-107694022D01*
X85297895Y-107497606D01*
X85366015Y-107287951D01*
X85400500Y-107070222D01*
X85400500Y-106849778D01*
X85366015Y-106632049D01*
X85297895Y-106422394D01*
X85297895Y-106422393D01*
X85203395Y-106236930D01*
X85197815Y-106225978D01*
X85103954Y-106096788D01*
X85068247Y-106047641D01*
X85068243Y-106047636D01*
X84912363Y-105891756D01*
X84912358Y-105891752D01*
X84772745Y-105790318D01*
X84730079Y-105734989D01*
X84724100Y-105665375D01*
X84756705Y-105603580D01*
X84772745Y-105589682D01*
X84912358Y-105488247D01*
X84912356Y-105488247D01*
X84912365Y-105488242D01*
X85068242Y-105332365D01*
X85197815Y-105154022D01*
X85297895Y-104957606D01*
X85366015Y-104747951D01*
X85400500Y-104530222D01*
X85400500Y-104309778D01*
X85366015Y-104092049D01*
X85297895Y-103882394D01*
X85297895Y-103882393D01*
X85203395Y-103696930D01*
X85197815Y-103685978D01*
X85181260Y-103663192D01*
X85068247Y-103507641D01*
X85068242Y-103507635D01*
X84912363Y-103351756D01*
X84912358Y-103351752D01*
X84772745Y-103250318D01*
X84730079Y-103194989D01*
X84724100Y-103125375D01*
X84756705Y-103063580D01*
X84772745Y-103049682D01*
X84912358Y-102948247D01*
X84912356Y-102948247D01*
X84912365Y-102948242D01*
X85068242Y-102792365D01*
X85197815Y-102614022D01*
X85297895Y-102417606D01*
X85366015Y-102207951D01*
X85400500Y-101990222D01*
X85400500Y-101769778D01*
X85366015Y-101552049D01*
X85297895Y-101342394D01*
X85297895Y-101342393D01*
X85203395Y-101156930D01*
X85197815Y-101145978D01*
X85103954Y-101016788D01*
X85068247Y-100967641D01*
X85068243Y-100967636D01*
X84912363Y-100811756D01*
X84912358Y-100811752D01*
X84772745Y-100710318D01*
X84730079Y-100654989D01*
X84724100Y-100585375D01*
X84756705Y-100523580D01*
X84772745Y-100509682D01*
X84912358Y-100408247D01*
X84912356Y-100408247D01*
X84912365Y-100408242D01*
X85068242Y-100252365D01*
X85197815Y-100074022D01*
X85297895Y-99877606D01*
X85366015Y-99667951D01*
X85400500Y-99450222D01*
X85400500Y-99229778D01*
X85366015Y-99012049D01*
X85297895Y-98802394D01*
X85297895Y-98802393D01*
X85221772Y-98652995D01*
X85221771Y-98652993D01*
X85197814Y-98605976D01*
X85068247Y-98427641D01*
X85068243Y-98427636D01*
X84912363Y-98271756D01*
X84912358Y-98271752D01*
X84772745Y-98170318D01*
X84730079Y-98114989D01*
X84724100Y-98045375D01*
X84756705Y-97983580D01*
X84772745Y-97969682D01*
X84912358Y-97868247D01*
X84912356Y-97868247D01*
X84912365Y-97868242D01*
X85068242Y-97712365D01*
X85197815Y-97534022D01*
X85226587Y-97477555D01*
X85231352Y-97468204D01*
X85279326Y-97417409D01*
X85341836Y-97400500D01*
X100999903Y-97400500D01*
X101066942Y-97420185D01*
X101087584Y-97436819D01*
X106995139Y-103344374D01*
X106995149Y-103344385D01*
X106999479Y-103348715D01*
X106999480Y-103348716D01*
X107111284Y-103460520D01*
X107111286Y-103460521D01*
X107111290Y-103460524D01*
X107192889Y-103507635D01*
X107192890Y-103507635D01*
X107248215Y-103539577D01*
X107400943Y-103580501D01*
X107400946Y-103580501D01*
X107566653Y-103580501D01*
X107566669Y-103580500D01*
X108252815Y-103580500D01*
X108319854Y-103600185D01*
X108353131Y-103631612D01*
X108400586Y-103696928D01*
X108523072Y-103819414D01*
X108663212Y-103921232D01*
X108817555Y-103999873D01*
X108982299Y-104053402D01*
X109153389Y-104080500D01*
X109153390Y-104080500D01*
X110126610Y-104080500D01*
X110126611Y-104080500D01*
X110297701Y-104053402D01*
X110462445Y-103999873D01*
X110616788Y-103921232D01*
X110756928Y-103819414D01*
X110879414Y-103696928D01*
X110981232Y-103556788D01*
X111059873Y-103402445D01*
X111113402Y-103237701D01*
X111140500Y-103066611D01*
X111140500Y-102893389D01*
X130999500Y-102893389D01*
X130999500Y-103066610D01*
X131024140Y-103222185D01*
X131026598Y-103237701D01*
X131080127Y-103402445D01*
X131158768Y-103556788D01*
X131260586Y-103696928D01*
X131383072Y-103819414D01*
X131523212Y-103921232D01*
X131677555Y-103999873D01*
X131842299Y-104053402D01*
X132013389Y-104080500D01*
X132013390Y-104080500D01*
X132986610Y-104080500D01*
X132986611Y-104080500D01*
X133157701Y-104053402D01*
X133322445Y-103999873D01*
X133476788Y-103921232D01*
X133616928Y-103819414D01*
X133739414Y-103696928D01*
X133841232Y-103556788D01*
X133919873Y-103402445D01*
X133973402Y-103237701D01*
X134000500Y-103066611D01*
X134000500Y-102893389D01*
X133973402Y-102722299D01*
X133919873Y-102557555D01*
X133841232Y-102403212D01*
X133739414Y-102263072D01*
X133616928Y-102140586D01*
X133476788Y-102038768D01*
X133322445Y-101960127D01*
X133157701Y-101906598D01*
X133157699Y-101906597D01*
X133157698Y-101906597D01*
X133026271Y-101885781D01*
X132986611Y-101879500D01*
X132013389Y-101879500D01*
X131973728Y-101885781D01*
X131842302Y-101906597D01*
X131677552Y-101960128D01*
X131523211Y-102038768D01*
X131443256Y-102096859D01*
X131383072Y-102140586D01*
X131383070Y-102140588D01*
X131383069Y-102140588D01*
X131260588Y-102263069D01*
X131260588Y-102263070D01*
X131260586Y-102263072D01*
X131216859Y-102323256D01*
X131158768Y-102403211D01*
X131080128Y-102557552D01*
X131026597Y-102722302D01*
X130999500Y-102893389D01*
X111140500Y-102893389D01*
X111113402Y-102722299D01*
X111059873Y-102557555D01*
X110981232Y-102403212D01*
X110879414Y-102263072D01*
X110756928Y-102140586D01*
X110616788Y-102038768D01*
X110462445Y-101960127D01*
X110297701Y-101906598D01*
X110297699Y-101906597D01*
X110297698Y-101906597D01*
X110166271Y-101885781D01*
X110126611Y-101879500D01*
X109153389Y-101879500D01*
X109113728Y-101885781D01*
X108982302Y-101906597D01*
X108817552Y-101960128D01*
X108663211Y-102038768D01*
X108583256Y-102096859D01*
X108523072Y-102140586D01*
X108523070Y-102140588D01*
X108523069Y-102140588D01*
X108400588Y-102263069D01*
X108400588Y-102263070D01*
X108400586Y-102263072D01*
X108353133Y-102328386D01*
X108297803Y-102371051D01*
X108252815Y-102379500D01*
X107780097Y-102379500D01*
X107713058Y-102359815D01*
X107692416Y-102343181D01*
X101787590Y-96438355D01*
X101787588Y-96438352D01*
X101668717Y-96319481D01*
X101668709Y-96319475D01*
X101566560Y-96260500D01*
X101531788Y-96240424D01*
X101531787Y-96240423D01*
X101470693Y-96224053D01*
X101379057Y-96199499D01*
X101220943Y-96199499D01*
X101213347Y-96199499D01*
X101213331Y-96199500D01*
X85341836Y-96199500D01*
X85274797Y-96179815D01*
X85231352Y-96131796D01*
X85197814Y-96065976D01*
X85068247Y-95887641D01*
X85068243Y-95887636D01*
X84912363Y-95731756D01*
X84912358Y-95731752D01*
X84772745Y-95630318D01*
X84730079Y-95574989D01*
X84724100Y-95505375D01*
X84756705Y-95443580D01*
X84772745Y-95429682D01*
X84912358Y-95328247D01*
X84912356Y-95328247D01*
X84912365Y-95328242D01*
X85068242Y-95172365D01*
X85197815Y-94994022D01*
X85226587Y-94937555D01*
X85231352Y-94928204D01*
X85279326Y-94877409D01*
X85341836Y-94860500D01*
X103159903Y-94860500D01*
X103226942Y-94880185D01*
X103247584Y-94896819D01*
X108206443Y-99855678D01*
X108239928Y-99917001D01*
X108234944Y-99986693D01*
X108229250Y-99999648D01*
X108220125Y-100017557D01*
X108166597Y-100182301D01*
X108139500Y-100353389D01*
X108139500Y-100526610D01*
X108164140Y-100682185D01*
X108166598Y-100697701D01*
X108220127Y-100862445D01*
X108298768Y-101016788D01*
X108400586Y-101156928D01*
X108523072Y-101279414D01*
X108663212Y-101381232D01*
X108817555Y-101459873D01*
X108982299Y-101513402D01*
X109153389Y-101540500D01*
X109153390Y-101540500D01*
X110126610Y-101540500D01*
X110126611Y-101540500D01*
X110297701Y-101513402D01*
X110462445Y-101459873D01*
X110616788Y-101381232D01*
X110756928Y-101279414D01*
X110879414Y-101156928D01*
X110981232Y-101016788D01*
X111059873Y-100862445D01*
X111113402Y-100697701D01*
X111140500Y-100526611D01*
X111140500Y-100353389D01*
X130999500Y-100353389D01*
X130999500Y-100526610D01*
X131024140Y-100682185D01*
X131026598Y-100697701D01*
X131080127Y-100862445D01*
X131158768Y-101016788D01*
X131260586Y-101156928D01*
X131383072Y-101279414D01*
X131523212Y-101381232D01*
X131677555Y-101459873D01*
X131842299Y-101513402D01*
X132013389Y-101540500D01*
X132013390Y-101540500D01*
X132986610Y-101540500D01*
X132986611Y-101540500D01*
X133157701Y-101513402D01*
X133322445Y-101459873D01*
X133476788Y-101381232D01*
X133616928Y-101279414D01*
X133739414Y-101156928D01*
X133841232Y-101016788D01*
X133919873Y-100862445D01*
X133973402Y-100697701D01*
X134000500Y-100526611D01*
X134000500Y-100353389D01*
X133973402Y-100182299D01*
X133919873Y-100017555D01*
X133841232Y-99863212D01*
X133739414Y-99723072D01*
X133616928Y-99600586D01*
X133476788Y-99498768D01*
X133322445Y-99420127D01*
X133157701Y-99366598D01*
X133157699Y-99366597D01*
X133157698Y-99366597D01*
X133026271Y-99345781D01*
X132986611Y-99339500D01*
X132013389Y-99339500D01*
X131973728Y-99345781D01*
X131842302Y-99366597D01*
X131677552Y-99420128D01*
X131523211Y-99498768D01*
X131443256Y-99556859D01*
X131383072Y-99600586D01*
X131383070Y-99600588D01*
X131383069Y-99600588D01*
X131260588Y-99723069D01*
X131260588Y-99723070D01*
X131260586Y-99723072D01*
X131216859Y-99783256D01*
X131158768Y-99863211D01*
X131080128Y-100017552D01*
X131026597Y-100182302D01*
X130999500Y-100353389D01*
X111140500Y-100353389D01*
X111113402Y-100182299D01*
X111059873Y-100017555D01*
X110981232Y-99863212D01*
X110879414Y-99723072D01*
X110756928Y-99600586D01*
X110616788Y-99498768D01*
X110462445Y-99420127D01*
X110297701Y-99366598D01*
X110297699Y-99366597D01*
X110297698Y-99366597D01*
X110166271Y-99345781D01*
X110126611Y-99339500D01*
X110126610Y-99339500D01*
X109440097Y-99339500D01*
X109410656Y-99330855D01*
X109380670Y-99324332D01*
X109375654Y-99320577D01*
X109373058Y-99319815D01*
X109352416Y-99303181D01*
X109261416Y-99212181D01*
X109227931Y-99150858D01*
X109232915Y-99081166D01*
X109274787Y-99025233D01*
X109340251Y-99000816D01*
X109349097Y-99000500D01*
X110126610Y-99000500D01*
X110126611Y-99000500D01*
X110297701Y-98973402D01*
X110462445Y-98919873D01*
X110616788Y-98841232D01*
X110756928Y-98739414D01*
X110879414Y-98616928D01*
X110981232Y-98476788D01*
X111059873Y-98322445D01*
X111113402Y-98157701D01*
X111140500Y-97986611D01*
X111140500Y-97813389D01*
X130999500Y-97813389D01*
X130999500Y-97986610D01*
X131024140Y-98142185D01*
X131026598Y-98157701D01*
X131080127Y-98322445D01*
X131158768Y-98476788D01*
X131260586Y-98616928D01*
X131383072Y-98739414D01*
X131523212Y-98841232D01*
X131677555Y-98919873D01*
X131842299Y-98973402D01*
X132013389Y-99000500D01*
X132013390Y-99000500D01*
X132986610Y-99000500D01*
X132986611Y-99000500D01*
X133157701Y-98973402D01*
X133322445Y-98919873D01*
X133476788Y-98841232D01*
X133616928Y-98739414D01*
X133739414Y-98616928D01*
X133841232Y-98476788D01*
X133919873Y-98322445D01*
X133973402Y-98157701D01*
X134000500Y-97986611D01*
X134000500Y-97813389D01*
X133973402Y-97642299D01*
X133919873Y-97477555D01*
X133841232Y-97323212D01*
X133739414Y-97183072D01*
X133616928Y-97060586D01*
X133476788Y-96958768D01*
X133322445Y-96880127D01*
X133157701Y-96826598D01*
X133157699Y-96826597D01*
X133157698Y-96826597D01*
X133026271Y-96805781D01*
X132986611Y-96799500D01*
X132013389Y-96799500D01*
X131973728Y-96805781D01*
X131842302Y-96826597D01*
X131677552Y-96880128D01*
X131523211Y-96958768D01*
X131443256Y-97016859D01*
X131383072Y-97060586D01*
X131383070Y-97060588D01*
X131383069Y-97060588D01*
X131260588Y-97183069D01*
X131260588Y-97183070D01*
X131260586Y-97183072D01*
X131216859Y-97243256D01*
X131158768Y-97323211D01*
X131080128Y-97477552D01*
X131026597Y-97642302D01*
X130999500Y-97813389D01*
X111140500Y-97813389D01*
X111113402Y-97642299D01*
X111059873Y-97477555D01*
X110981232Y-97323212D01*
X110879414Y-97183072D01*
X110756928Y-97060586D01*
X110616788Y-96958768D01*
X110462445Y-96880127D01*
X110297701Y-96826598D01*
X110297699Y-96826597D01*
X110297698Y-96826597D01*
X110166271Y-96805781D01*
X110126611Y-96799500D01*
X109153389Y-96799500D01*
X109113728Y-96805781D01*
X108982302Y-96826597D01*
X108817552Y-96880128D01*
X108663211Y-96958768D01*
X108583256Y-97016859D01*
X108523072Y-97060586D01*
X108523070Y-97060588D01*
X108523069Y-97060588D01*
X108400588Y-97183069D01*
X108400588Y-97183070D01*
X108400586Y-97183072D01*
X108356859Y-97243256D01*
X108298768Y-97323211D01*
X108220128Y-97477552D01*
X108166597Y-97642302D01*
X108139713Y-97812041D01*
X108109784Y-97875176D01*
X108050472Y-97912107D01*
X107980610Y-97911109D01*
X107929559Y-97880324D01*
X105322624Y-95273389D01*
X108139500Y-95273389D01*
X108139500Y-95446610D01*
X108164140Y-95602185D01*
X108166598Y-95617701D01*
X108220127Y-95782445D01*
X108298768Y-95936788D01*
X108400586Y-96076928D01*
X108523072Y-96199414D01*
X108663212Y-96301232D01*
X108817555Y-96379873D01*
X108982299Y-96433402D01*
X109153389Y-96460500D01*
X109153390Y-96460500D01*
X110126610Y-96460500D01*
X110126611Y-96460500D01*
X110297701Y-96433402D01*
X110462445Y-96379873D01*
X110616788Y-96301232D01*
X110756928Y-96199414D01*
X110879414Y-96076928D01*
X110981232Y-95936788D01*
X111059873Y-95782445D01*
X111113402Y-95617701D01*
X111140500Y-95446611D01*
X111140500Y-95273389D01*
X130999500Y-95273389D01*
X130999500Y-95446610D01*
X131024140Y-95602185D01*
X131026598Y-95617701D01*
X131080127Y-95782445D01*
X131158768Y-95936788D01*
X131260586Y-96076928D01*
X131383072Y-96199414D01*
X131523212Y-96301232D01*
X131677555Y-96379873D01*
X131842299Y-96433402D01*
X132013389Y-96460500D01*
X132013390Y-96460500D01*
X132986610Y-96460500D01*
X132986611Y-96460500D01*
X133157701Y-96433402D01*
X133322445Y-96379873D01*
X133476788Y-96301232D01*
X133616928Y-96199414D01*
X133739414Y-96076928D01*
X133841232Y-95936788D01*
X133919873Y-95782445D01*
X133973402Y-95617701D01*
X134000500Y-95446611D01*
X134000500Y-95273389D01*
X133973402Y-95102299D01*
X133919873Y-94937555D01*
X133841232Y-94783212D01*
X133739414Y-94643072D01*
X133616928Y-94520586D01*
X133476788Y-94418768D01*
X133322445Y-94340127D01*
X133157701Y-94286598D01*
X133157699Y-94286597D01*
X133157698Y-94286597D01*
X133026271Y-94265781D01*
X132986611Y-94259500D01*
X132013389Y-94259500D01*
X131973728Y-94265781D01*
X131842302Y-94286597D01*
X131677552Y-94340128D01*
X131523211Y-94418768D01*
X131443256Y-94476859D01*
X131383072Y-94520586D01*
X131383070Y-94520588D01*
X131383069Y-94520588D01*
X131260588Y-94643069D01*
X131260588Y-94643070D01*
X131260586Y-94643072D01*
X131216859Y-94703256D01*
X131158768Y-94783211D01*
X131080128Y-94937552D01*
X131026597Y-95102302D01*
X130999500Y-95273389D01*
X111140500Y-95273389D01*
X111113402Y-95102299D01*
X111059873Y-94937555D01*
X110981232Y-94783212D01*
X110879414Y-94643072D01*
X110756928Y-94520586D01*
X110616788Y-94418768D01*
X110462445Y-94340127D01*
X110297701Y-94286598D01*
X110297699Y-94286597D01*
X110297698Y-94286597D01*
X110166271Y-94265781D01*
X110126611Y-94259500D01*
X109153389Y-94259500D01*
X109113728Y-94265781D01*
X108982302Y-94286597D01*
X108817552Y-94340128D01*
X108663211Y-94418768D01*
X108583256Y-94476859D01*
X108523072Y-94520586D01*
X108523070Y-94520588D01*
X108523069Y-94520588D01*
X108400588Y-94643069D01*
X108400588Y-94643070D01*
X108400586Y-94643072D01*
X108356859Y-94703256D01*
X108298768Y-94783211D01*
X108220128Y-94937552D01*
X108166597Y-95102302D01*
X108139500Y-95273389D01*
X105322624Y-95273389D01*
X103947590Y-93898355D01*
X103947588Y-93898352D01*
X103828717Y-93779481D01*
X103828709Y-93779475D01*
X103726560Y-93720500D01*
X103691788Y-93700424D01*
X103691787Y-93700423D01*
X103630693Y-93684053D01*
X103539057Y-93659499D01*
X103380943Y-93659499D01*
X103373347Y-93659499D01*
X103373331Y-93659500D01*
X85341836Y-93659500D01*
X85274797Y-93639815D01*
X85231352Y-93591796D01*
X85197814Y-93525976D01*
X85068247Y-93347641D01*
X85068243Y-93347636D01*
X84912363Y-93191756D01*
X84912358Y-93191752D01*
X84772745Y-93090318D01*
X84730079Y-93034989D01*
X84724100Y-92965375D01*
X84756705Y-92903580D01*
X84772745Y-92889682D01*
X84912358Y-92788247D01*
X84912356Y-92788247D01*
X84912365Y-92788242D01*
X84967218Y-92733389D01*
X108139500Y-92733389D01*
X108139500Y-92906610D01*
X108164140Y-93062185D01*
X108166598Y-93077701D01*
X108220127Y-93242445D01*
X108298768Y-93396788D01*
X108400586Y-93536928D01*
X108523072Y-93659414D01*
X108663212Y-93761232D01*
X108817555Y-93839873D01*
X108982299Y-93893402D01*
X109153389Y-93920500D01*
X109153390Y-93920500D01*
X110126610Y-93920500D01*
X110126611Y-93920500D01*
X110297701Y-93893402D01*
X110462445Y-93839873D01*
X110616788Y-93761232D01*
X110756928Y-93659414D01*
X110879414Y-93536928D01*
X110981232Y-93396788D01*
X111059873Y-93242445D01*
X111113402Y-93077701D01*
X111132473Y-92957294D01*
X117405483Y-92957294D01*
X125327036Y-92957294D01*
X125327036Y-92733389D01*
X130999500Y-92733389D01*
X130999500Y-92906610D01*
X131024140Y-93062185D01*
X131026598Y-93077701D01*
X131080127Y-93242445D01*
X131158768Y-93396788D01*
X131260586Y-93536928D01*
X131383072Y-93659414D01*
X131523212Y-93761232D01*
X131677555Y-93839873D01*
X131842299Y-93893402D01*
X132013389Y-93920500D01*
X132013390Y-93920500D01*
X132986610Y-93920500D01*
X132986611Y-93920500D01*
X133157701Y-93893402D01*
X133322445Y-93839873D01*
X133476788Y-93761232D01*
X133616928Y-93659414D01*
X133739414Y-93536928D01*
X133841232Y-93396788D01*
X133919873Y-93242445D01*
X133973402Y-93077701D01*
X134000500Y-92906611D01*
X134000500Y-92733389D01*
X133973402Y-92562299D01*
X133919873Y-92397555D01*
X133841232Y-92243212D01*
X133739414Y-92103072D01*
X133616928Y-91980586D01*
X133476788Y-91878768D01*
X133322445Y-91800127D01*
X133157701Y-91746598D01*
X133157699Y-91746597D01*
X133157698Y-91746597D01*
X133026271Y-91725781D01*
X132986611Y-91719500D01*
X132013389Y-91719500D01*
X131973728Y-91725781D01*
X131842302Y-91746597D01*
X131677552Y-91800128D01*
X131523211Y-91878768D01*
X131443256Y-91936859D01*
X131383072Y-91980586D01*
X131383070Y-91980588D01*
X131383069Y-91980588D01*
X131260588Y-92103069D01*
X131260588Y-92103070D01*
X131260586Y-92103072D01*
X131216859Y-92163256D01*
X131158768Y-92243211D01*
X131080128Y-92397552D01*
X131026597Y-92562302D01*
X130999500Y-92733389D01*
X125327036Y-92733389D01*
X125327036Y-90193389D01*
X130999500Y-90193389D01*
X130999500Y-90366610D01*
X131024140Y-90522185D01*
X131026598Y-90537701D01*
X131080127Y-90702445D01*
X131158768Y-90856788D01*
X131260586Y-90996928D01*
X131383072Y-91119414D01*
X131523212Y-91221232D01*
X131677555Y-91299873D01*
X131842299Y-91353402D01*
X132013389Y-91380500D01*
X132013390Y-91380500D01*
X132986610Y-91380500D01*
X132986611Y-91380500D01*
X133157701Y-91353402D01*
X133322445Y-91299873D01*
X133476788Y-91221232D01*
X133616928Y-91119414D01*
X133739414Y-90996928D01*
X133841232Y-90856788D01*
X133919873Y-90702445D01*
X133973402Y-90537701D01*
X134000500Y-90366611D01*
X134000500Y-90193389D01*
X133973402Y-90022299D01*
X133919873Y-89857555D01*
X133841232Y-89703212D01*
X133739414Y-89563072D01*
X133616928Y-89440586D01*
X133476788Y-89338768D01*
X133322445Y-89260127D01*
X133157701Y-89206598D01*
X133157699Y-89206597D01*
X133157698Y-89206597D01*
X133026271Y-89185781D01*
X132986611Y-89179500D01*
X132013389Y-89179500D01*
X131973728Y-89185781D01*
X131842302Y-89206597D01*
X131677552Y-89260128D01*
X131523211Y-89338768D01*
X131476105Y-89372993D01*
X131383072Y-89440586D01*
X131383070Y-89440588D01*
X131383069Y-89440588D01*
X131260588Y-89563069D01*
X131260588Y-89563070D01*
X131260586Y-89563072D01*
X131220612Y-89618092D01*
X131158768Y-89703211D01*
X131080128Y-89857552D01*
X131026597Y-90022302D01*
X130999500Y-90193389D01*
X125327036Y-90193389D01*
X125327036Y-90113988D01*
X117405483Y-90113988D01*
X117405483Y-92957294D01*
X111132473Y-92957294D01*
X111140500Y-92906611D01*
X111140500Y-92733389D01*
X111113402Y-92562299D01*
X111059873Y-92397555D01*
X110981232Y-92243212D01*
X110879414Y-92103072D01*
X110756928Y-91980586D01*
X110616788Y-91878768D01*
X110462445Y-91800127D01*
X110297701Y-91746598D01*
X110297699Y-91746597D01*
X110297698Y-91746597D01*
X110166271Y-91725781D01*
X110126611Y-91719500D01*
X109153389Y-91719500D01*
X109113728Y-91725781D01*
X108982302Y-91746597D01*
X108817552Y-91800128D01*
X108663211Y-91878768D01*
X108583256Y-91936859D01*
X108523072Y-91980586D01*
X108523070Y-91980588D01*
X108523069Y-91980588D01*
X108400588Y-92103069D01*
X108400588Y-92103070D01*
X108400586Y-92103072D01*
X108356859Y-92163256D01*
X108298768Y-92243211D01*
X108220128Y-92397552D01*
X108166597Y-92562302D01*
X108139500Y-92733389D01*
X84967218Y-92733389D01*
X85068242Y-92632365D01*
X85197815Y-92454022D01*
X85297895Y-92257606D01*
X85366015Y-92047951D01*
X85400500Y-91830222D01*
X85400500Y-91609778D01*
X85366015Y-91392049D01*
X85297895Y-91182394D01*
X85297895Y-91182393D01*
X85203395Y-90996930D01*
X85197815Y-90985978D01*
X85103954Y-90856788D01*
X85068247Y-90807641D01*
X85068243Y-90807636D01*
X84912363Y-90651756D01*
X84912358Y-90651752D01*
X84772319Y-90550008D01*
X84729653Y-90494678D01*
X84723674Y-90425065D01*
X84756279Y-90363270D01*
X84772319Y-90349372D01*
X84912035Y-90247862D01*
X84912041Y-90247857D01*
X84966509Y-90193389D01*
X108139500Y-90193389D01*
X108139500Y-90366610D01*
X108164140Y-90522185D01*
X108166598Y-90537701D01*
X108220127Y-90702445D01*
X108298768Y-90856788D01*
X108400586Y-90996928D01*
X108523072Y-91119414D01*
X108663212Y-91221232D01*
X108817555Y-91299873D01*
X108982299Y-91353402D01*
X109153389Y-91380500D01*
X109153390Y-91380500D01*
X110126610Y-91380500D01*
X110126611Y-91380500D01*
X110297701Y-91353402D01*
X110462445Y-91299873D01*
X110616788Y-91221232D01*
X110756928Y-91119414D01*
X110879414Y-90996928D01*
X110981232Y-90856788D01*
X111059873Y-90702445D01*
X111113402Y-90537701D01*
X111140500Y-90366611D01*
X111140500Y-90193389D01*
X111140500Y-90193388D01*
X111122862Y-90082023D01*
X111113402Y-90022301D01*
X111113402Y-90022299D01*
X111059873Y-89857555D01*
X110981232Y-89703212D01*
X110879414Y-89563072D01*
X110756928Y-89440586D01*
X110616788Y-89338768D01*
X110462445Y-89260127D01*
X110297701Y-89206598D01*
X110297699Y-89206597D01*
X110297698Y-89206597D01*
X110166271Y-89185781D01*
X110126611Y-89179500D01*
X109153389Y-89179500D01*
X109113728Y-89185781D01*
X108982302Y-89206597D01*
X108817552Y-89260128D01*
X108663211Y-89338768D01*
X108616105Y-89372993D01*
X108523072Y-89440586D01*
X108523070Y-89440588D01*
X108523069Y-89440588D01*
X108400588Y-89563069D01*
X108400588Y-89563070D01*
X108400586Y-89563072D01*
X108360612Y-89618092D01*
X108298768Y-89703211D01*
X108220128Y-89857552D01*
X108166597Y-90022302D01*
X108139500Y-90193389D01*
X84966509Y-90193389D01*
X85059063Y-90100836D01*
X85067857Y-90092041D01*
X85197386Y-89913760D01*
X85297432Y-89717410D01*
X85365526Y-89507838D01*
X85365526Y-89507835D01*
X85377855Y-89430000D01*
X84433012Y-89430000D01*
X84465925Y-89372993D01*
X84500000Y-89245826D01*
X84500000Y-89114174D01*
X84465925Y-88987007D01*
X84433012Y-88930000D01*
X85377855Y-88930000D01*
X85365526Y-88852164D01*
X85365526Y-88852161D01*
X85297432Y-88642589D01*
X85197386Y-88446239D01*
X85067857Y-88267958D01*
X84912041Y-88112142D01*
X84733760Y-87982613D01*
X84537410Y-87882567D01*
X84327836Y-87814473D01*
X84250000Y-87802144D01*
X84250000Y-88746988D01*
X84192993Y-88714075D01*
X84065826Y-88680000D01*
X83934174Y-88680000D01*
X83807007Y-88714075D01*
X83750000Y-88746988D01*
X83750000Y-87802144D01*
X83672164Y-87814473D01*
X83672161Y-87814473D01*
X83462589Y-87882567D01*
X83266239Y-87982613D01*
X83087958Y-88112142D01*
X82932142Y-88267958D01*
X82802613Y-88446239D01*
X82702567Y-88642589D01*
X82634473Y-88852161D01*
X82634473Y-88852164D01*
X82622145Y-88930000D01*
X83566988Y-88930000D01*
X83534075Y-88987007D01*
X83500000Y-89114174D01*
X83500000Y-89245826D01*
X83534075Y-89372993D01*
X83566988Y-89430000D01*
X82622145Y-89430000D01*
X82634473Y-89507835D01*
X82634473Y-89507838D01*
X82702567Y-89717410D01*
X82802613Y-89913760D01*
X82932142Y-90092041D01*
X83087958Y-90247857D01*
X83087964Y-90247862D01*
X83227680Y-90349372D01*
X83270346Y-90404702D01*
X83276325Y-90474315D01*
X83243719Y-90536110D01*
X83227681Y-90550008D01*
X83087636Y-90651756D01*
X82931756Y-90807636D01*
X82931752Y-90807641D01*
X82802187Y-90985974D01*
X82702104Y-91182393D01*
X82702103Y-91182396D01*
X82633985Y-91392047D01*
X82599500Y-91609778D01*
X82000500Y-91609778D01*
X82000500Y-87653389D01*
X108139500Y-87653389D01*
X108139500Y-87826611D01*
X108166598Y-87997701D01*
X108220127Y-88162445D01*
X108298768Y-88316788D01*
X108400586Y-88456928D01*
X108523072Y-88579414D01*
X108663212Y-88681232D01*
X108817555Y-88759873D01*
X108982299Y-88813402D01*
X109153389Y-88840500D01*
X109153390Y-88840500D01*
X110126610Y-88840500D01*
X110126611Y-88840500D01*
X110297701Y-88813402D01*
X110462445Y-88759873D01*
X110616788Y-88681232D01*
X110756928Y-88579414D01*
X110879414Y-88456928D01*
X110981232Y-88316788D01*
X111059873Y-88162445D01*
X111113402Y-87997701D01*
X111140500Y-87826611D01*
X111140500Y-87653389D01*
X130999500Y-87653389D01*
X130999500Y-87826611D01*
X131026598Y-87997701D01*
X131080127Y-88162445D01*
X131158768Y-88316788D01*
X131260586Y-88456928D01*
X131383072Y-88579414D01*
X131523212Y-88681232D01*
X131677555Y-88759873D01*
X131842299Y-88813402D01*
X132013389Y-88840500D01*
X132013390Y-88840500D01*
X132986610Y-88840500D01*
X132986611Y-88840500D01*
X133157701Y-88813402D01*
X133322445Y-88759873D01*
X133476788Y-88681232D01*
X133616928Y-88579414D01*
X133739414Y-88456928D01*
X133841232Y-88316788D01*
X133919873Y-88162445D01*
X133973402Y-87997701D01*
X134000500Y-87826611D01*
X134000500Y-87653389D01*
X133973402Y-87482299D01*
X133919873Y-87317555D01*
X133841232Y-87163212D01*
X133739414Y-87023072D01*
X133616928Y-86900586D01*
X133476788Y-86798768D01*
X133322445Y-86720127D01*
X133157701Y-86666598D01*
X133157699Y-86666597D01*
X133157698Y-86666597D01*
X133026271Y-86645781D01*
X132986611Y-86639500D01*
X132013389Y-86639500D01*
X131973728Y-86645781D01*
X131842302Y-86666597D01*
X131677552Y-86720128D01*
X131523211Y-86798768D01*
X131443256Y-86856859D01*
X131383072Y-86900586D01*
X131383070Y-86900588D01*
X131383069Y-86900588D01*
X131260588Y-87023069D01*
X131260588Y-87023070D01*
X131260586Y-87023072D01*
X131216859Y-87083256D01*
X131158768Y-87163211D01*
X131080128Y-87317552D01*
X131026597Y-87482302D01*
X130999500Y-87653389D01*
X111140500Y-87653389D01*
X111113402Y-87482299D01*
X111059873Y-87317555D01*
X110981232Y-87163212D01*
X110879414Y-87023072D01*
X110756928Y-86900586D01*
X110616788Y-86798768D01*
X110462445Y-86720127D01*
X110297701Y-86666598D01*
X110297699Y-86666597D01*
X110297698Y-86666597D01*
X110166271Y-86645781D01*
X110126611Y-86639500D01*
X109153389Y-86639500D01*
X109113728Y-86645781D01*
X108982302Y-86666597D01*
X108817552Y-86720128D01*
X108663211Y-86798768D01*
X108583256Y-86856859D01*
X108523072Y-86900586D01*
X108523070Y-86900588D01*
X108523069Y-86900588D01*
X108400588Y-87023069D01*
X108400588Y-87023070D01*
X108400586Y-87023072D01*
X108356859Y-87083256D01*
X108298768Y-87163211D01*
X108220128Y-87317552D01*
X108166597Y-87482302D01*
X108139500Y-87653389D01*
X82000500Y-87653389D01*
X82000500Y-87457293D01*
X95905483Y-87457293D01*
X100707459Y-87457293D01*
X100707459Y-84613989D01*
X95905483Y-84613989D01*
X95905483Y-87457293D01*
X82000500Y-87457293D01*
X82000500Y-81052135D01*
X95559500Y-81052135D01*
X95559500Y-82947870D01*
X95559501Y-82947876D01*
X95565908Y-83007483D01*
X95616202Y-83142328D01*
X95616206Y-83142335D01*
X95702452Y-83257544D01*
X95702455Y-83257547D01*
X95817664Y-83343793D01*
X95817671Y-83343797D01*
X95952517Y-83394091D01*
X95952516Y-83394091D01*
X95959444Y-83394835D01*
X96012127Y-83400500D01*
X97907872Y-83400499D01*
X97967483Y-83394091D01*
X98102331Y-83343796D01*
X98217546Y-83257546D01*
X98303796Y-83142331D01*
X98331429Y-83068243D01*
X98333601Y-83062420D01*
X98375471Y-83006486D01*
X98440936Y-82982068D01*
X98509209Y-82996919D01*
X98537464Y-83018071D01*
X98587636Y-83068243D01*
X98587641Y-83068247D01*
X98689603Y-83142326D01*
X98765978Y-83197815D01*
X98894375Y-83263237D01*
X98962393Y-83297895D01*
X98962396Y-83297896D01*
X99067221Y-83331955D01*
X99172049Y-83366015D01*
X99389778Y-83400500D01*
X99389779Y-83400500D01*
X99610221Y-83400500D01*
X99610222Y-83400500D01*
X99827951Y-83366015D01*
X100037606Y-83297895D01*
X100234022Y-83197815D01*
X100412365Y-83068242D01*
X100568242Y-82912365D01*
X100697815Y-82734022D01*
X100779662Y-82573389D01*
X108139500Y-82573389D01*
X108139500Y-82746610D01*
X108165752Y-82912363D01*
X108166598Y-82917701D01*
X108220127Y-83082445D01*
X108298768Y-83236788D01*
X108400586Y-83376928D01*
X108523072Y-83499414D01*
X108663212Y-83601232D01*
X108817555Y-83679873D01*
X108982299Y-83733402D01*
X109153389Y-83760500D01*
X109839903Y-83760500D01*
X109869343Y-83769144D01*
X109899330Y-83775668D01*
X109904345Y-83779422D01*
X109906942Y-83780185D01*
X109927584Y-83796819D01*
X109995139Y-83864374D01*
X109995160Y-83864397D01*
X110018582Y-83887819D01*
X110052067Y-83949142D01*
X110047083Y-84018834D01*
X110005211Y-84074767D01*
X109939747Y-84099184D01*
X109930901Y-84099500D01*
X109153389Y-84099500D01*
X109113728Y-84105781D01*
X108982302Y-84126597D01*
X108817552Y-84180128D01*
X108663211Y-84258768D01*
X108629386Y-84283344D01*
X108523072Y-84360586D01*
X108523070Y-84360588D01*
X108523069Y-84360588D01*
X108400588Y-84483069D01*
X108400588Y-84483070D01*
X108400586Y-84483072D01*
X108387924Y-84500500D01*
X108298768Y-84623211D01*
X108220128Y-84777552D01*
X108166597Y-84942302D01*
X108139500Y-85113389D01*
X108139500Y-85286611D01*
X108166598Y-85457701D01*
X108220127Y-85622445D01*
X108298768Y-85776788D01*
X108400586Y-85916928D01*
X108523072Y-86039414D01*
X108663212Y-86141232D01*
X108817555Y-86219873D01*
X108982299Y-86273402D01*
X109153389Y-86300500D01*
X109153390Y-86300500D01*
X110126610Y-86300500D01*
X110126611Y-86300500D01*
X110297701Y-86273402D01*
X110462445Y-86219873D01*
X110616788Y-86141232D01*
X110756928Y-86039414D01*
X110879414Y-85916928D01*
X110981232Y-85776788D01*
X111059873Y-85622445D01*
X111113402Y-85457701D01*
X111140500Y-85286611D01*
X111140500Y-85113389D01*
X111113402Y-84942299D01*
X111059873Y-84777555D01*
X110981232Y-84623212D01*
X110879414Y-84483072D01*
X110756928Y-84360586D01*
X110707696Y-84324816D01*
X110665032Y-84269488D01*
X110659053Y-84199874D01*
X110691659Y-84138079D01*
X110752498Y-84103722D01*
X110780583Y-84100500D01*
X131359417Y-84100500D01*
X131426456Y-84120185D01*
X131472211Y-84172989D01*
X131482155Y-84242147D01*
X131453130Y-84305703D01*
X131432305Y-84324815D01*
X131383072Y-84360586D01*
X131383070Y-84360588D01*
X131383069Y-84360588D01*
X131260588Y-84483069D01*
X131260588Y-84483070D01*
X131260586Y-84483072D01*
X131247924Y-84500500D01*
X131158768Y-84623211D01*
X131080128Y-84777552D01*
X131026597Y-84942302D01*
X130999500Y-85113389D01*
X130999500Y-85286611D01*
X131026598Y-85457701D01*
X131080127Y-85622445D01*
X131158768Y-85776788D01*
X131260586Y-85916928D01*
X131383072Y-86039414D01*
X131523212Y-86141232D01*
X131677555Y-86219873D01*
X131842299Y-86273402D01*
X132013389Y-86300500D01*
X132013390Y-86300500D01*
X132986610Y-86300500D01*
X132986611Y-86300500D01*
X133157701Y-86273402D01*
X133322445Y-86219873D01*
X133476788Y-86141232D01*
X133616928Y-86039414D01*
X133739414Y-85916928D01*
X133841232Y-85776788D01*
X133919873Y-85622445D01*
X133973402Y-85457701D01*
X134000500Y-85286611D01*
X134000500Y-85113389D01*
X133973402Y-84942299D01*
X133919873Y-84777555D01*
X133841232Y-84623212D01*
X133739414Y-84483072D01*
X133616928Y-84360586D01*
X133567696Y-84324816D01*
X133525032Y-84269488D01*
X133519053Y-84199874D01*
X133551659Y-84138079D01*
X133612498Y-84103722D01*
X133640583Y-84100500D01*
X136927111Y-84100500D01*
X136994150Y-84120185D01*
X137014792Y-84136819D01*
X137022490Y-84144517D01*
X137156866Y-84242147D01*
X137213568Y-84283344D01*
X137257451Y-84305703D01*
X137331794Y-84343582D01*
X137382590Y-84391556D01*
X137399500Y-84454067D01*
X137399500Y-88045931D01*
X137379815Y-88112970D01*
X137331796Y-88156415D01*
X137213568Y-88216655D01*
X137142957Y-88267958D01*
X137022490Y-88355483D01*
X137022488Y-88355485D01*
X137022487Y-88355485D01*
X136855485Y-88522487D01*
X136855485Y-88522488D01*
X136855483Y-88522490D01*
X136814125Y-88579414D01*
X136716657Y-88713566D01*
X136609433Y-88924003D01*
X136536446Y-89148631D01*
X136499500Y-89381902D01*
X136499500Y-89618097D01*
X136536446Y-89851368D01*
X136609433Y-90075996D01*
X136697004Y-90247862D01*
X136716657Y-90286433D01*
X136855483Y-90477510D01*
X137022490Y-90644517D01*
X137213567Y-90783343D01*
X137261243Y-90807635D01*
X137424003Y-90890566D01*
X137424005Y-90890566D01*
X137424008Y-90890568D01*
X137544412Y-90929689D01*
X137648631Y-90963553D01*
X137881903Y-91000500D01*
X137881908Y-91000500D01*
X138118097Y-91000500D01*
X138351368Y-90963553D01*
X138575992Y-90890568D01*
X138786433Y-90783343D01*
X138977510Y-90644517D01*
X139144517Y-90477510D01*
X139283343Y-90286433D01*
X139390568Y-90075992D01*
X139463553Y-89851368D01*
X139484770Y-89717410D01*
X139500500Y-89618097D01*
X139500500Y-89381902D01*
X140999500Y-89381902D01*
X140999500Y-89618097D01*
X141036446Y-89851368D01*
X141109433Y-90075996D01*
X141197004Y-90247862D01*
X141216657Y-90286433D01*
X141355483Y-90477510D01*
X141522490Y-90644517D01*
X141713567Y-90783343D01*
X141761243Y-90807635D01*
X141924003Y-90890566D01*
X141924005Y-90890566D01*
X141924008Y-90890568D01*
X142044412Y-90929689D01*
X142148631Y-90963553D01*
X142381903Y-91000500D01*
X142381908Y-91000500D01*
X142618097Y-91000500D01*
X142851368Y-90963553D01*
X143075992Y-90890568D01*
X143286433Y-90783343D01*
X143477510Y-90644517D01*
X143644517Y-90477510D01*
X143783343Y-90286433D01*
X143890568Y-90075992D01*
X143963553Y-89851368D01*
X143984770Y-89717410D01*
X144000500Y-89618097D01*
X144000500Y-89381902D01*
X143963553Y-89148631D01*
X143890566Y-88924003D01*
X143806936Y-88759871D01*
X143783343Y-88713567D01*
X143644517Y-88522490D01*
X143477510Y-88355483D01*
X143286433Y-88216657D01*
X143286429Y-88216655D01*
X143075996Y-88109433D01*
X142851368Y-88036446D01*
X142618097Y-87999500D01*
X142618092Y-87999500D01*
X142381908Y-87999500D01*
X142381903Y-87999500D01*
X142148631Y-88036446D01*
X141924003Y-88109433D01*
X141713566Y-88216657D01*
X141642957Y-88267958D01*
X141522490Y-88355483D01*
X141522488Y-88355485D01*
X141522487Y-88355485D01*
X141355485Y-88522487D01*
X141355485Y-88522488D01*
X141355483Y-88522490D01*
X141314125Y-88579414D01*
X141216657Y-88713566D01*
X141109433Y-88924003D01*
X141036446Y-89148631D01*
X140999500Y-89381902D01*
X139500500Y-89381902D01*
X139463553Y-89148631D01*
X139390566Y-88924003D01*
X139306936Y-88759871D01*
X139283343Y-88713567D01*
X139144517Y-88522490D01*
X138977510Y-88355483D01*
X138857043Y-88267958D01*
X138786431Y-88216655D01*
X138668204Y-88156415D01*
X138617409Y-88108441D01*
X138600500Y-88045931D01*
X138600500Y-84454067D01*
X138620185Y-84387028D01*
X138668205Y-84343582D01*
X138786433Y-84283343D01*
X138977510Y-84144517D01*
X139144517Y-83977510D01*
X139283343Y-83786433D01*
X139390568Y-83575992D01*
X139463553Y-83351368D01*
X139481701Y-83236788D01*
X139500500Y-83118097D01*
X139500500Y-82881902D01*
X140999500Y-82881902D01*
X140999500Y-83118097D01*
X141036446Y-83351368D01*
X141109433Y-83575996D01*
X141189636Y-83733402D01*
X141216657Y-83786433D01*
X141355483Y-83977510D01*
X141522490Y-84144517D01*
X141713567Y-84283343D01*
X141794966Y-84324818D01*
X141924003Y-84390566D01*
X141924005Y-84390566D01*
X141924008Y-84390568D01*
X142044412Y-84429689D01*
X142148631Y-84463553D01*
X142381903Y-84500500D01*
X142381908Y-84500500D01*
X142618097Y-84500500D01*
X142851368Y-84463553D01*
X142880563Y-84454067D01*
X143075992Y-84390568D01*
X143286433Y-84283343D01*
X143477510Y-84144517D01*
X143644517Y-83977510D01*
X143783343Y-83786433D01*
X143890568Y-83575992D01*
X143963553Y-83351368D01*
X143981701Y-83236788D01*
X144000500Y-83118097D01*
X144000500Y-82881902D01*
X143963553Y-82648631D01*
X143890566Y-82424003D01*
X143783342Y-82213566D01*
X143644517Y-82022490D01*
X143477510Y-81855483D01*
X143286433Y-81716657D01*
X143075996Y-81609433D01*
X142851368Y-81536446D01*
X142618097Y-81499500D01*
X142618092Y-81499500D01*
X142381908Y-81499500D01*
X142381903Y-81499500D01*
X142148631Y-81536446D01*
X141924003Y-81609433D01*
X141713566Y-81716657D01*
X141604550Y-81795862D01*
X141522490Y-81855483D01*
X141522488Y-81855485D01*
X141522487Y-81855485D01*
X141355485Y-82022487D01*
X141355485Y-82022488D01*
X141355483Y-82022490D01*
X141311366Y-82083212D01*
X141216657Y-82213566D01*
X141109433Y-82424003D01*
X141036446Y-82648631D01*
X140999500Y-82881902D01*
X139500500Y-82881902D01*
X139463553Y-82648631D01*
X139390566Y-82424003D01*
X139283342Y-82213566D01*
X139144517Y-82022490D01*
X138977510Y-81855483D01*
X138786433Y-81716657D01*
X138575996Y-81609433D01*
X138351368Y-81536446D01*
X138118097Y-81499500D01*
X138118092Y-81499500D01*
X137881908Y-81499500D01*
X137881903Y-81499500D01*
X137648631Y-81536446D01*
X137424003Y-81609433D01*
X137213566Y-81716657D01*
X137104550Y-81795862D01*
X137022490Y-81855483D01*
X137022488Y-81855485D01*
X137022487Y-81855485D01*
X136855485Y-82022487D01*
X136855485Y-82022488D01*
X136855483Y-82022490D01*
X136811366Y-82083212D01*
X136716657Y-82213566D01*
X136609433Y-82424003D01*
X136536446Y-82648631D01*
X136513280Y-82794898D01*
X136483351Y-82858033D01*
X136424039Y-82894964D01*
X136390807Y-82899500D01*
X134121471Y-82899500D01*
X134054432Y-82879815D01*
X134008677Y-82827011D01*
X133998733Y-82757853D01*
X133998997Y-82756105D01*
X134000500Y-82746613D01*
X134000500Y-82573389D01*
X133973402Y-82402299D01*
X133919873Y-82237555D01*
X133841232Y-82083212D01*
X133739414Y-81943072D01*
X133616928Y-81820586D01*
X133476788Y-81718768D01*
X133322445Y-81640127D01*
X133157701Y-81586598D01*
X133157699Y-81586597D01*
X133157698Y-81586597D01*
X133026271Y-81565781D01*
X132986611Y-81559500D01*
X132013389Y-81559500D01*
X131973728Y-81565781D01*
X131842302Y-81586597D01*
X131677552Y-81640128D01*
X131523211Y-81718768D01*
X131443256Y-81776859D01*
X131383072Y-81820586D01*
X131383070Y-81820588D01*
X131383069Y-81820588D01*
X131260588Y-81943069D01*
X131260588Y-81943070D01*
X131260586Y-81943072D01*
X131216859Y-82003256D01*
X131158768Y-82083211D01*
X131080128Y-82237552D01*
X131026597Y-82402302D01*
X130999500Y-82573389D01*
X130999500Y-82746613D01*
X131001003Y-82756105D01*
X130992046Y-82825398D01*
X130947049Y-82878849D01*
X130880297Y-82899487D01*
X130878529Y-82899500D01*
X111261471Y-82899500D01*
X111194432Y-82879815D01*
X111148677Y-82827011D01*
X111138733Y-82757853D01*
X111138997Y-82756105D01*
X111140500Y-82746613D01*
X111140500Y-82573389D01*
X111113402Y-82402299D01*
X111059873Y-82237555D01*
X110981232Y-82083212D01*
X110879414Y-81943072D01*
X110756928Y-81820586D01*
X110616788Y-81718768D01*
X110462445Y-81640127D01*
X110297701Y-81586598D01*
X110297699Y-81586597D01*
X110297698Y-81586597D01*
X110166271Y-81565781D01*
X110126611Y-81559500D01*
X109153389Y-81559500D01*
X109113728Y-81565781D01*
X108982302Y-81586597D01*
X108817552Y-81640128D01*
X108663211Y-81718768D01*
X108583256Y-81776859D01*
X108523072Y-81820586D01*
X108523070Y-81820588D01*
X108523069Y-81820588D01*
X108400588Y-81943069D01*
X108400588Y-81943070D01*
X108400586Y-81943072D01*
X108356859Y-82003256D01*
X108298768Y-82083211D01*
X108220128Y-82237552D01*
X108166597Y-82402302D01*
X108139500Y-82573389D01*
X100779662Y-82573389D01*
X100797895Y-82537606D01*
X100866015Y-82327951D01*
X100900500Y-82110222D01*
X100900500Y-81889778D01*
X100866015Y-81672049D01*
X100843188Y-81601794D01*
X100841193Y-81531953D01*
X100873436Y-81475797D01*
X102315845Y-80033389D01*
X108139500Y-80033389D01*
X108139500Y-80206611D01*
X108166598Y-80377701D01*
X108220127Y-80542445D01*
X108298768Y-80696788D01*
X108400586Y-80836928D01*
X108523072Y-80959414D01*
X108663212Y-81061232D01*
X108817555Y-81139873D01*
X108982299Y-81193402D01*
X109153389Y-81220500D01*
X109153390Y-81220500D01*
X110126610Y-81220500D01*
X110126611Y-81220500D01*
X110297701Y-81193402D01*
X110462445Y-81139873D01*
X110616788Y-81061232D01*
X110756928Y-80959414D01*
X110879414Y-80836928D01*
X110981232Y-80696788D01*
X111059873Y-80542445D01*
X111113402Y-80377701D01*
X111140500Y-80206611D01*
X111140500Y-80033389D01*
X130999500Y-80033389D01*
X130999500Y-80206611D01*
X131026598Y-80377701D01*
X131080127Y-80542445D01*
X131158768Y-80696788D01*
X131260586Y-80836928D01*
X131383072Y-80959414D01*
X131523212Y-81061232D01*
X131677555Y-81139873D01*
X131842299Y-81193402D01*
X132013389Y-81220500D01*
X132013390Y-81220500D01*
X132986610Y-81220500D01*
X132986611Y-81220500D01*
X133157701Y-81193402D01*
X133322445Y-81139873D01*
X133476788Y-81061232D01*
X133616928Y-80959414D01*
X133739414Y-80836928D01*
X133841232Y-80696788D01*
X133919873Y-80542445D01*
X133973402Y-80377701D01*
X134000500Y-80206611D01*
X134000500Y-80033389D01*
X133973402Y-79862299D01*
X133919873Y-79697555D01*
X133841232Y-79543212D01*
X133739414Y-79403072D01*
X133616928Y-79280586D01*
X133476788Y-79178768D01*
X133322445Y-79100127D01*
X133157701Y-79046598D01*
X133157699Y-79046597D01*
X133157698Y-79046597D01*
X133026271Y-79025781D01*
X132986611Y-79019500D01*
X132013389Y-79019500D01*
X131973728Y-79025781D01*
X131842302Y-79046597D01*
X131677552Y-79100128D01*
X131523211Y-79178768D01*
X131443256Y-79236859D01*
X131383072Y-79280586D01*
X131383070Y-79280588D01*
X131383069Y-79280588D01*
X131260588Y-79403069D01*
X131260588Y-79403070D01*
X131260586Y-79403072D01*
X131216859Y-79463256D01*
X131158768Y-79543211D01*
X131080128Y-79697552D01*
X131026597Y-79862302D01*
X131014159Y-79940836D01*
X130999500Y-80033389D01*
X111140500Y-80033389D01*
X111113402Y-79862299D01*
X111059873Y-79697555D01*
X110981232Y-79543212D01*
X110879414Y-79403072D01*
X110756928Y-79280586D01*
X110616788Y-79178768D01*
X110462445Y-79100127D01*
X110297701Y-79046598D01*
X110297699Y-79046597D01*
X110297698Y-79046597D01*
X110166271Y-79025781D01*
X110126611Y-79019500D01*
X109153389Y-79019500D01*
X109113728Y-79025781D01*
X108982302Y-79046597D01*
X108817552Y-79100128D01*
X108663211Y-79178768D01*
X108583256Y-79236859D01*
X108523072Y-79280586D01*
X108523070Y-79280588D01*
X108523069Y-79280588D01*
X108400588Y-79403069D01*
X108400588Y-79403070D01*
X108400586Y-79403072D01*
X108356859Y-79463256D01*
X108298768Y-79543211D01*
X108220128Y-79697552D01*
X108166597Y-79862302D01*
X108154159Y-79940836D01*
X108139500Y-80033389D01*
X102315845Y-80033389D01*
X104132416Y-78216819D01*
X104193739Y-78183334D01*
X104220097Y-78180500D01*
X108252815Y-78180500D01*
X108319854Y-78200185D01*
X108353131Y-78231612D01*
X108400586Y-78296928D01*
X108523072Y-78419414D01*
X108663212Y-78521232D01*
X108817555Y-78599873D01*
X108982299Y-78653402D01*
X109153389Y-78680500D01*
X109153390Y-78680500D01*
X110126610Y-78680500D01*
X110126611Y-78680500D01*
X110297701Y-78653402D01*
X110462445Y-78599873D01*
X110616788Y-78521232D01*
X110756928Y-78419414D01*
X110879414Y-78296928D01*
X110981232Y-78156788D01*
X111059873Y-78002445D01*
X111113402Y-77837701D01*
X111140500Y-77666611D01*
X111140500Y-77493389D01*
X130999500Y-77493389D01*
X130999500Y-77666611D01*
X131026598Y-77837701D01*
X131080127Y-78002445D01*
X131158768Y-78156788D01*
X131260586Y-78296928D01*
X131383072Y-78419414D01*
X131523212Y-78521232D01*
X131677555Y-78599873D01*
X131842299Y-78653402D01*
X132013389Y-78680500D01*
X132013390Y-78680500D01*
X132986610Y-78680500D01*
X132986611Y-78680500D01*
X133157701Y-78653402D01*
X133322445Y-78599873D01*
X133476788Y-78521232D01*
X133616928Y-78419414D01*
X133739414Y-78296928D01*
X133841232Y-78156788D01*
X133919873Y-78002445D01*
X133973402Y-77837701D01*
X134000500Y-77666611D01*
X134000500Y-77493389D01*
X133973402Y-77322299D01*
X133919873Y-77157555D01*
X133841232Y-77003212D01*
X133739414Y-76863072D01*
X133616928Y-76740586D01*
X133476788Y-76638768D01*
X133322445Y-76560127D01*
X133157701Y-76506598D01*
X133157699Y-76506597D01*
X133157698Y-76506597D01*
X133026271Y-76485781D01*
X132986611Y-76479500D01*
X132013389Y-76479500D01*
X131973728Y-76485781D01*
X131842302Y-76506597D01*
X131677552Y-76560128D01*
X131523211Y-76638768D01*
X131443256Y-76696859D01*
X131383072Y-76740586D01*
X131383070Y-76740588D01*
X131383069Y-76740588D01*
X131260588Y-76863069D01*
X131260588Y-76863070D01*
X131260586Y-76863072D01*
X131216859Y-76923256D01*
X131158768Y-77003211D01*
X131080128Y-77157552D01*
X131026597Y-77322302D01*
X130999500Y-77493389D01*
X111140500Y-77493389D01*
X111113402Y-77322299D01*
X111059873Y-77157555D01*
X110981232Y-77003212D01*
X110879414Y-76863072D01*
X110756928Y-76740586D01*
X110616788Y-76638768D01*
X110462445Y-76560127D01*
X110297701Y-76506598D01*
X110297699Y-76506597D01*
X110297698Y-76506597D01*
X110166271Y-76485781D01*
X110126611Y-76479500D01*
X109153389Y-76479500D01*
X109113728Y-76485781D01*
X108982302Y-76506597D01*
X108817552Y-76560128D01*
X108663211Y-76638768D01*
X108583256Y-76696859D01*
X108523072Y-76740586D01*
X108523070Y-76740588D01*
X108523069Y-76740588D01*
X108400588Y-76863069D01*
X108400588Y-76863070D01*
X108400586Y-76863072D01*
X108353133Y-76928386D01*
X108297803Y-76971051D01*
X108252815Y-76979500D01*
X104006669Y-76979500D01*
X104006653Y-76979499D01*
X103999057Y-76979499D01*
X103840943Y-76979499D01*
X103733587Y-77008265D01*
X103688210Y-77020424D01*
X103688209Y-77020425D01*
X103638096Y-77049359D01*
X103638095Y-77049360D01*
X103594689Y-77074420D01*
X103551285Y-77099479D01*
X103551282Y-77099481D01*
X103439478Y-77211286D01*
X100024202Y-80626561D01*
X99962879Y-80660046D01*
X99898203Y-80656811D01*
X99873584Y-80648812D01*
X99827952Y-80633985D01*
X99719086Y-80616742D01*
X99610222Y-80599500D01*
X99389778Y-80599500D01*
X99317201Y-80610995D01*
X99172047Y-80633985D01*
X98962396Y-80702103D01*
X98962393Y-80702104D01*
X98765974Y-80802187D01*
X98587641Y-80931752D01*
X98587636Y-80931756D01*
X98537463Y-80981929D01*
X98476140Y-81015413D01*
X98406448Y-81010428D01*
X98350515Y-80968557D01*
X98333601Y-80937580D01*
X98303797Y-80857671D01*
X98303793Y-80857664D01*
X98217547Y-80742455D01*
X98217544Y-80742452D01*
X98102335Y-80656206D01*
X98102328Y-80656202D01*
X97967482Y-80605908D01*
X97967483Y-80605908D01*
X97907883Y-80599501D01*
X97907881Y-80599500D01*
X97907873Y-80599500D01*
X97907864Y-80599500D01*
X96012129Y-80599500D01*
X96012123Y-80599501D01*
X95952516Y-80605908D01*
X95817671Y-80656202D01*
X95817664Y-80656206D01*
X95702455Y-80742452D01*
X95702452Y-80742455D01*
X95616206Y-80857664D01*
X95616202Y-80857671D01*
X95565908Y-80992517D01*
X95559501Y-81052116D01*
X95559500Y-81052135D01*
X82000500Y-81052135D01*
X82000500Y-74953389D01*
X108139500Y-74953389D01*
X108139500Y-75126611D01*
X108166598Y-75297701D01*
X108220127Y-75462445D01*
X108298768Y-75616788D01*
X108400586Y-75756928D01*
X108523072Y-75879414D01*
X108663212Y-75981232D01*
X108817555Y-76059873D01*
X108982299Y-76113402D01*
X109153389Y-76140500D01*
X109153390Y-76140500D01*
X110126610Y-76140500D01*
X110126611Y-76140500D01*
X110297701Y-76113402D01*
X110462445Y-76059873D01*
X110616788Y-75981232D01*
X110756928Y-75879414D01*
X110879414Y-75756928D01*
X110981232Y-75616788D01*
X111059873Y-75462445D01*
X111113402Y-75297701D01*
X111140500Y-75126611D01*
X111140500Y-74953389D01*
X130999500Y-74953389D01*
X130999500Y-75126611D01*
X131026598Y-75297701D01*
X131080127Y-75462445D01*
X131158768Y-75616788D01*
X131260586Y-75756928D01*
X131383072Y-75879414D01*
X131523212Y-75981232D01*
X131677555Y-76059873D01*
X131842299Y-76113402D01*
X132013389Y-76140500D01*
X132013390Y-76140500D01*
X132986610Y-76140500D01*
X132986611Y-76140500D01*
X133157701Y-76113402D01*
X133322445Y-76059873D01*
X133476788Y-75981232D01*
X133616928Y-75879414D01*
X133739414Y-75756928D01*
X133841232Y-75616788D01*
X133919873Y-75462445D01*
X133973402Y-75297701D01*
X134000500Y-75126611D01*
X134000500Y-74953389D01*
X133973402Y-74782299D01*
X133919873Y-74617555D01*
X133841232Y-74463212D01*
X133739414Y-74323072D01*
X133616928Y-74200586D01*
X133476788Y-74098768D01*
X133322445Y-74020127D01*
X133157701Y-73966598D01*
X133157699Y-73966597D01*
X133157698Y-73966597D01*
X133026271Y-73945781D01*
X132986611Y-73939500D01*
X132013389Y-73939500D01*
X131973728Y-73945781D01*
X131842302Y-73966597D01*
X131677552Y-74020128D01*
X131523211Y-74098768D01*
X131443256Y-74156859D01*
X131383072Y-74200586D01*
X131383070Y-74200588D01*
X131383069Y-74200588D01*
X131260588Y-74323069D01*
X131260588Y-74323070D01*
X131260586Y-74323072D01*
X131216859Y-74383256D01*
X131158768Y-74463211D01*
X131080128Y-74617552D01*
X131026597Y-74782302D01*
X130999500Y-74953389D01*
X111140500Y-74953389D01*
X111113402Y-74782299D01*
X111059873Y-74617555D01*
X110981232Y-74463212D01*
X110879414Y-74323072D01*
X110756928Y-74200586D01*
X110616788Y-74098768D01*
X110462445Y-74020127D01*
X110297701Y-73966598D01*
X110297699Y-73966597D01*
X110297698Y-73966597D01*
X110166271Y-73945781D01*
X110126611Y-73939500D01*
X109153389Y-73939500D01*
X109113728Y-73945781D01*
X108982302Y-73966597D01*
X108817552Y-74020128D01*
X108663211Y-74098768D01*
X108583256Y-74156859D01*
X108523072Y-74200586D01*
X108523070Y-74200588D01*
X108523069Y-74200588D01*
X108400588Y-74323069D01*
X108400588Y-74323070D01*
X108400586Y-74323072D01*
X108356859Y-74383256D01*
X108298768Y-74463211D01*
X108220128Y-74617552D01*
X108166597Y-74782302D01*
X108139500Y-74953389D01*
X82000500Y-74953389D01*
X82000500Y-71852155D01*
X108140000Y-71852155D01*
X108140000Y-72250000D01*
X109324314Y-72250000D01*
X109319920Y-72254394D01*
X109267259Y-72345606D01*
X109240000Y-72447339D01*
X109240000Y-72552661D01*
X109267259Y-72654394D01*
X109319920Y-72745606D01*
X109324314Y-72750000D01*
X108140000Y-72750000D01*
X108140000Y-73147844D01*
X108146401Y-73207372D01*
X108146403Y-73207379D01*
X108196645Y-73342086D01*
X108196649Y-73342093D01*
X108282809Y-73457187D01*
X108282812Y-73457190D01*
X108397906Y-73543350D01*
X108397913Y-73543354D01*
X108532620Y-73593596D01*
X108532627Y-73593598D01*
X108592155Y-73599999D01*
X108592172Y-73600000D01*
X109390000Y-73600000D01*
X109390000Y-72815686D01*
X109394394Y-72820080D01*
X109485606Y-72872741D01*
X109587339Y-72900000D01*
X109692661Y-72900000D01*
X109794394Y-72872741D01*
X109885606Y-72820080D01*
X109890000Y-72815686D01*
X109890000Y-73600000D01*
X110687828Y-73600000D01*
X110687844Y-73599999D01*
X110747372Y-73593598D01*
X110747379Y-73593596D01*
X110882086Y-73543354D01*
X110882093Y-73543350D01*
X110997187Y-73457190D01*
X110997190Y-73457187D01*
X111083350Y-73342093D01*
X111083354Y-73342086D01*
X111133596Y-73207379D01*
X111133598Y-73207372D01*
X111139999Y-73147844D01*
X111140000Y-73147827D01*
X111140000Y-72750000D01*
X109955686Y-72750000D01*
X109960080Y-72745606D01*
X110012741Y-72654394D01*
X110040000Y-72552661D01*
X110040000Y-72447339D01*
X110030903Y-72413389D01*
X130999500Y-72413389D01*
X130999500Y-72586611D01*
X131026598Y-72757701D01*
X131080127Y-72922445D01*
X131158768Y-73076788D01*
X131260586Y-73216928D01*
X131383072Y-73339414D01*
X131523212Y-73441232D01*
X131677555Y-73519873D01*
X131842299Y-73573402D01*
X132013389Y-73600500D01*
X132013390Y-73600500D01*
X132986610Y-73600500D01*
X132986611Y-73600500D01*
X133157701Y-73573402D01*
X133322445Y-73519873D01*
X133476788Y-73441232D01*
X133616928Y-73339414D01*
X133739414Y-73216928D01*
X133841232Y-73076788D01*
X133919873Y-72922445D01*
X133973402Y-72757701D01*
X134000500Y-72586611D01*
X134000500Y-72413389D01*
X133973402Y-72242299D01*
X133919873Y-72077555D01*
X133841232Y-71923212D01*
X133739414Y-71783072D01*
X133616928Y-71660586D01*
X133476788Y-71558768D01*
X133322445Y-71480127D01*
X133157701Y-71426598D01*
X133157699Y-71426597D01*
X133157698Y-71426597D01*
X133026271Y-71405781D01*
X132986611Y-71399500D01*
X132013389Y-71399500D01*
X131973728Y-71405781D01*
X131842302Y-71426597D01*
X131677552Y-71480128D01*
X131523211Y-71558768D01*
X131443256Y-71616859D01*
X131383072Y-71660586D01*
X131383070Y-71660588D01*
X131383069Y-71660588D01*
X131260588Y-71783069D01*
X131260588Y-71783070D01*
X131260586Y-71783072D01*
X131253649Y-71792620D01*
X131158768Y-71923211D01*
X131080128Y-72077552D01*
X131026597Y-72242302D01*
X131025378Y-72250000D01*
X130999500Y-72413389D01*
X110030903Y-72413389D01*
X110012741Y-72345606D01*
X109960080Y-72254394D01*
X109955686Y-72250000D01*
X111140000Y-72250000D01*
X111140000Y-71852172D01*
X111139999Y-71852155D01*
X111133598Y-71792627D01*
X111133596Y-71792620D01*
X111083354Y-71657913D01*
X111083350Y-71657906D01*
X110997190Y-71542812D01*
X110997187Y-71542809D01*
X110882093Y-71456649D01*
X110882086Y-71456645D01*
X110747379Y-71406403D01*
X110747372Y-71406401D01*
X110687844Y-71400000D01*
X109890000Y-71400000D01*
X109890000Y-72184314D01*
X109885606Y-72179920D01*
X109794394Y-72127259D01*
X109692661Y-72100000D01*
X109587339Y-72100000D01*
X109485606Y-72127259D01*
X109394394Y-72179920D01*
X109390000Y-72184314D01*
X109390000Y-71400000D01*
X108592155Y-71400000D01*
X108532627Y-71406401D01*
X108532620Y-71406403D01*
X108397913Y-71456645D01*
X108397906Y-71456649D01*
X108282812Y-71542809D01*
X108282809Y-71542812D01*
X108196649Y-71657906D01*
X108196645Y-71657913D01*
X108146403Y-71792620D01*
X108146401Y-71792627D01*
X108140000Y-71852155D01*
X82000500Y-71852155D01*
X82000500Y-64124500D01*
X82020185Y-64057461D01*
X82072989Y-64011706D01*
X82124500Y-64000500D01*
X145875500Y-64000500D01*
X145942539Y-64020185D01*
G37*
%TD.AperFunction*%
%TD*%
M02*
