%TF.GenerationSoftware,KiCad,Pcbnew,9.0.7*%
%TF.CreationDate,2026-02-19T21:55:12-05:00*%
%TF.ProjectId,HRCStepTracker,48524353-7465-4705-9472-61636b65722e,rev?*%
%TF.SameCoordinates,Original*%
%TF.FileFunction,Copper,L4,Bot*%
%TF.FilePolarity,Positive*%
%FSLAX46Y46*%
G04 Gerber Fmt 4.6, Leading zero omitted, Abs format (unit mm)*
G04 Created by KiCad (PCBNEW 9.0.7) date 2026-02-19 21:55:12*
%MOMM*%
%LPD*%
G01*
G04 APERTURE LIST*
%TA.AperFunction,ComponentPad*%
%ADD10R,1.800000X1.800000*%
%TD*%
%TA.AperFunction,ComponentPad*%
%ADD11R,2.000000X1.200000*%
%TD*%
%TA.AperFunction,ComponentPad*%
%ADD12O,2.000000X1.200000*%
%TD*%
%TA.AperFunction,ComponentPad*%
%ADD13C,1.800000*%
%TD*%
%TA.AperFunction,ComponentPad*%
%ADD14C,2.000000*%
%TD*%
%TA.AperFunction,Conductor*%
%ADD15C,0.200000*%
%TD*%
G04 APERTURE END LIST*
D10*
%TO.P,U1,1,OUT+*%
%TO.N,+5V*%
X105160000Y-132920000D03*
%TO.P,U1,2,B+*%
%TO.N,Net-(BT1-+)*%
X105160000Y-135460000D03*
%TO.P,U1,3,B-*%
%TO.N,Net-(BT1--)*%
X105160000Y-140540000D03*
%TO.P,U1,4,OUT-*%
%TO.N,GND*%
X105160000Y-143080000D03*
%TD*%
D11*
%TO.P,U4,1,3V3*%
%TO.N,+3V3*%
X109640000Y-72500000D03*
D12*
%TO.P,U4,2,EN/RESET*%
%TO.N,unconnected-(U4-EN{slash}RESET-Pad2)*%
X109640000Y-75040000D03*
%TO.P,U4,3,GPIO2/MTMS*%
%TO.N,Net-(D2-A)*%
X109640000Y-77580000D03*
%TO.P,U4,4,GPIO3/MTDI*%
%TO.N,unconnected-(U4-GPIO3{slash}MTDI-Pad4)*%
X109640000Y-80120000D03*
%TO.P,U4,5,GPIO4/MTCK*%
%TO.N,Net-(U4-GPIO4{slash}MTCK)*%
X109640000Y-82660000D03*
%TO.P,U4,6,GPIO5/MTDO*%
%TO.N,unconnected-(U4-GPIO5{slash}MTDO-Pad6)*%
X109640000Y-85200000D03*
%TO.P,U4,7,GPIO0*%
%TO.N,unconnected-(U4-GPIO0-Pad7)*%
X109640000Y-87740000D03*
%TO.P,U4,8,GPIO1*%
%TO.N,unconnected-(U4-GPIO1-Pad8)*%
X109640000Y-90280000D03*
%TO.P,U4,9,GPIO27*%
%TO.N,unconnected-(U4-GPIO27-Pad9)*%
X109640000Y-92820000D03*
%TO.P,U4,10,GPIO6*%
%TO.N,unconnected-(U4-GPIO6-Pad10)*%
X109640000Y-95360000D03*
%TO.P,U4,11,GPIO7*%
%TO.N,unconnected-(U4-GPIO7-Pad11)*%
X109640000Y-97900000D03*
%TO.P,U4,12,GPIO26*%
%TO.N,Net-(U4-GPIO26)*%
X109640000Y-100440000D03*
%TO.P,U4,13,GPIO25*%
%TO.N,Net-(U4-GPIO25)*%
X109640000Y-102980000D03*
%TO.P,U4,14,5V*%
%TO.N,+5V*%
X109640000Y-105520000D03*
%TO.P,U4,15,GND*%
%TO.N,GND*%
X109640000Y-108060000D03*
%TO.P,U4,16,NC*%
%TO.N,unconnected-(U4-NC-Pad16)*%
X109640000Y-110600000D03*
%TO.P,U4,17,NC*%
%TO.N,unconnected-(U4-NC-Pad17)*%
X132500000Y-110600000D03*
%TO.P,U4,18,GND*%
%TO.N,GND*%
X132500000Y-108060000D03*
%TO.P,U4,19,GPIO13/USB_D-*%
%TO.N,unconnected-(U4-GPIO13{slash}USB_D--Pad19)*%
X132500000Y-105520000D03*
%TO.P,U4,20,GPIO14/USB_D+*%
%TO.N,unconnected-(U4-GPIO14{slash}USB_D+-Pad20)*%
X132500000Y-102980000D03*
%TO.P,U4,21,GND*%
%TO.N,GND*%
X132500000Y-100440000D03*
%TO.P,U4,22,GPIO28*%
%TO.N,unconnected-(U4-GPIO28-Pad22)*%
X132500000Y-97900000D03*
%TO.P,U4,23,NC*%
%TO.N,unconnected-(U4-NC-Pad23)*%
X132500000Y-95360000D03*
%TO.P,U4,24,GPIO8*%
%TO.N,unconnected-(U4-GPIO8-Pad24)*%
X132500000Y-92820000D03*
%TO.P,U4,25,GPIO9*%
%TO.N,unconnected-(U4-GPIO9-Pad25)*%
X132500000Y-90280000D03*
%TO.P,U4,26,GPIO10*%
%TO.N,unconnected-(U4-GPIO10-Pad26)*%
X132500000Y-87740000D03*
%TO.P,U4,27,GPIO15*%
%TO.N,unconnected-(U4-GPIO15-Pad27)*%
X132500000Y-85200000D03*
%TO.P,U4,28,GPIO23*%
%TO.N,Net-(U4-GPIO23)*%
X132500000Y-82660000D03*
%TO.P,U4,29,GPIO24*%
%TO.N,Net-(U4-GPIO24)*%
X132500000Y-80120000D03*
%TO.P,U4,30,GPIO12/U0RXD*%
%TO.N,unconnected-(U4-GPIO12{slash}U0RXD-Pad30)*%
X132500000Y-77580000D03*
%TO.P,U4,31,GPIO11/U0TXD*%
%TO.N,unconnected-(U4-GPIO11{slash}U0TXD-Pad31)*%
X132500000Y-75040000D03*
%TO.P,U4,32,GND*%
%TO.N,GND*%
X132500000Y-72500000D03*
%TD*%
D10*
%TO.P,D2,1,K*%
%TO.N,GND*%
X96960000Y-82000000D03*
D13*
%TO.P,D2,2,A*%
%TO.N,Net-(D2-A)*%
X99500000Y-82000000D03*
%TD*%
%TO.P,U6,1,VCC*%
%TO.N,+3V3*%
X84000000Y-89180000D03*
%TO.P,U6,2,GND*%
%TO.N,GND*%
X84000000Y-91720000D03*
%TO.P,U6,3,SCL*%
%TO.N,Net-(U4-GPIO26)*%
X84000000Y-94260000D03*
%TO.P,U6,4,SDA*%
%TO.N,Net-(U4-GPIO25)*%
X84000000Y-96800000D03*
%TO.P,U6,5,EDA*%
%TO.N,unconnected-(U6-EDA-Pad5)*%
X84000000Y-99340000D03*
%TO.P,U6,6,ECL*%
%TO.N,unconnected-(U6-ECL-Pad6)*%
X84000000Y-101880000D03*
%TO.P,U6,7,ADO*%
%TO.N,unconnected-(U6-ADO-Pad7)*%
X84000000Y-104420000D03*
%TO.P,U6,8,INT*%
%TO.N,unconnected-(U6-INT-Pad8)*%
X84000000Y-106960000D03*
%TO.P,U6,9,NCS*%
%TO.N,unconnected-(U6-NCS-Pad9)*%
X84000000Y-109500000D03*
%TO.P,U6,10,FSYNC*%
%TO.N,unconnected-(U6-FSYNC-Pad10)*%
X84000000Y-112040000D03*
%TD*%
D14*
%TO.P,SW2,1,1*%
%TO.N,GND*%
X142500000Y-83000000D03*
X142500000Y-89500000D03*
%TO.P,SW2,2,2*%
%TO.N,Net-(U4-GPIO4{slash}MTCK)*%
X138000000Y-83000000D03*
X138000000Y-89500000D03*
%TD*%
D13*
%TO.P,U5,1,GND*%
%TO.N,GND*%
X137150000Y-113605000D03*
%TO.P,U5,2,VCC*%
%TO.N,+3V3*%
X137150000Y-116145000D03*
%TO.P,U5,3,SCL*%
%TO.N,Net-(U4-GPIO24)*%
X137150000Y-118685000D03*
%TO.P,U5,4,SDA*%
%TO.N,Net-(U4-GPIO23)*%
X137150000Y-121225000D03*
%TD*%
D15*
%TO.N,+3V3*%
X137150000Y-116145000D02*
X137005000Y-116000000D01*
%TO.N,Net-(U4-GPIO24)*%
X136000000Y-83620000D02*
X132500000Y-80120000D01*
X136000000Y-117535000D02*
X136000000Y-83620000D01*
X137150000Y-118685000D02*
X136000000Y-117535000D01*
%TO.N,Net-(U4-GPIO23)*%
X135000000Y-84500000D02*
X133160000Y-82660000D01*
X137150000Y-121225000D02*
X135000000Y-119075000D01*
X133160000Y-82660000D02*
X132500000Y-82660000D01*
X135000000Y-119075000D02*
X135000000Y-84500000D01*
%TO.N,+5V*%
X105160000Y-106840000D02*
X106480000Y-105520000D01*
X105160000Y-132920000D02*
X105160000Y-106840000D01*
X106480000Y-105520000D02*
X109640000Y-105520000D01*
%TD*%
%TA.AperFunction,Conductor*%
%TO.N,GND*%
G36*
X145942539Y-64020185D02*
G01*
X145988294Y-64072989D01*
X145999500Y-64124500D01*
X145999500Y-146375500D01*
X145979815Y-146442539D01*
X145927011Y-146488294D01*
X145875500Y-146499500D01*
X82124500Y-146499500D01*
X82057461Y-146479815D01*
X82011706Y-146427011D01*
X82000500Y-146375500D01*
X82000500Y-139592135D01*
X103759500Y-139592135D01*
X103759500Y-141487870D01*
X103759501Y-141487876D01*
X103765908Y-141547483D01*
X103816202Y-141682328D01*
X103816204Y-141682331D01*
X103856459Y-141736105D01*
X103880877Y-141801568D01*
X103866026Y-141869841D01*
X103856460Y-141884726D01*
X103816649Y-141937907D01*
X103816645Y-141937913D01*
X103766403Y-142072620D01*
X103766401Y-142072627D01*
X103760000Y-142132155D01*
X103760000Y-142830000D01*
X104726988Y-142830000D01*
X104694075Y-142887007D01*
X104660000Y-143014174D01*
X104660000Y-143145826D01*
X104694075Y-143272993D01*
X104726988Y-143330000D01*
X103760000Y-143330000D01*
X103760000Y-144027844D01*
X103766401Y-144087372D01*
X103766403Y-144087379D01*
X103816645Y-144222086D01*
X103816649Y-144222093D01*
X103902809Y-144337187D01*
X103902812Y-144337190D01*
X104017906Y-144423350D01*
X104017913Y-144423354D01*
X104152620Y-144473596D01*
X104152627Y-144473598D01*
X104212155Y-144479999D01*
X104212172Y-144480000D01*
X104910000Y-144480000D01*
X104910000Y-143513012D01*
X104967007Y-143545925D01*
X105094174Y-143580000D01*
X105225826Y-143580000D01*
X105352993Y-143545925D01*
X105410000Y-143513012D01*
X105410000Y-144480000D01*
X106107828Y-144480000D01*
X106107844Y-144479999D01*
X106167372Y-144473598D01*
X106167379Y-144473596D01*
X106302086Y-144423354D01*
X106302093Y-144423350D01*
X106417187Y-144337190D01*
X106417190Y-144337187D01*
X106503350Y-144222093D01*
X106503354Y-144222086D01*
X106553596Y-144087379D01*
X106553598Y-144087372D01*
X106559999Y-144027844D01*
X106560000Y-144027827D01*
X106560000Y-143330000D01*
X105593012Y-143330000D01*
X105625925Y-143272993D01*
X105660000Y-143145826D01*
X105660000Y-143014174D01*
X105625925Y-142887007D01*
X105593012Y-142830000D01*
X106560000Y-142830000D01*
X106560000Y-142132172D01*
X106559999Y-142132155D01*
X106553598Y-142072627D01*
X106553596Y-142072620D01*
X106503354Y-141937913D01*
X106503350Y-141937907D01*
X106463540Y-141884726D01*
X106439123Y-141819262D01*
X106453975Y-141750989D01*
X106463537Y-141736108D01*
X106503796Y-141682331D01*
X106554091Y-141547483D01*
X106560500Y-141487873D01*
X106560499Y-139592128D01*
X106554091Y-139532517D01*
X106503796Y-139397669D01*
X106503795Y-139397668D01*
X106503793Y-139397664D01*
X106417547Y-139282455D01*
X106417544Y-139282452D01*
X106302335Y-139196206D01*
X106302328Y-139196202D01*
X106167482Y-139145908D01*
X106167483Y-139145908D01*
X106107883Y-139139501D01*
X106107881Y-139139500D01*
X106107873Y-139139500D01*
X106107864Y-139139500D01*
X104212129Y-139139500D01*
X104212123Y-139139501D01*
X104152516Y-139145908D01*
X104017671Y-139196202D01*
X104017664Y-139196206D01*
X103902455Y-139282452D01*
X103902452Y-139282455D01*
X103816206Y-139397664D01*
X103816202Y-139397671D01*
X103765908Y-139532517D01*
X103759501Y-139592116D01*
X103759501Y-139592123D01*
X103759500Y-139592135D01*
X82000500Y-139592135D01*
X82000500Y-131972135D01*
X103759500Y-131972135D01*
X103759500Y-133867870D01*
X103759501Y-133867876D01*
X103765908Y-133927483D01*
X103816202Y-134062328D01*
X103816203Y-134062330D01*
X103856148Y-134115689D01*
X103880565Y-134181153D01*
X103865714Y-134249426D01*
X103856148Y-134264311D01*
X103816203Y-134317669D01*
X103816202Y-134317671D01*
X103765908Y-134452517D01*
X103759501Y-134512116D01*
X103759501Y-134512123D01*
X103759500Y-134512135D01*
X103759500Y-136407870D01*
X103759501Y-136407876D01*
X103765908Y-136467483D01*
X103816202Y-136602328D01*
X103816206Y-136602335D01*
X103902452Y-136717544D01*
X103902455Y-136717547D01*
X104017664Y-136803793D01*
X104017671Y-136803797D01*
X104152517Y-136854091D01*
X104152516Y-136854091D01*
X104159444Y-136854835D01*
X104212127Y-136860500D01*
X106107872Y-136860499D01*
X106167483Y-136854091D01*
X106302331Y-136803796D01*
X106417546Y-136717546D01*
X106503796Y-136602331D01*
X106554091Y-136467483D01*
X106560500Y-136407873D01*
X106560499Y-134512128D01*
X106554091Y-134452517D01*
X106503796Y-134317669D01*
X106463851Y-134264310D01*
X106439435Y-134198847D01*
X106454286Y-134130574D01*
X106463852Y-134115689D01*
X106503796Y-134062331D01*
X106554091Y-133927483D01*
X106560500Y-133867873D01*
X106560499Y-131972128D01*
X106554091Y-131912517D01*
X106503796Y-131777669D01*
X106503795Y-131777668D01*
X106503793Y-131777664D01*
X106417547Y-131662455D01*
X106417544Y-131662452D01*
X106302335Y-131576206D01*
X106302328Y-131576202D01*
X106167482Y-131525908D01*
X106167483Y-131525908D01*
X106107883Y-131519501D01*
X106107881Y-131519500D01*
X106107873Y-131519500D01*
X106107865Y-131519500D01*
X105884500Y-131519500D01*
X105817461Y-131499815D01*
X105771706Y-131447011D01*
X105760500Y-131395500D01*
X105760500Y-110513389D01*
X108139500Y-110513389D01*
X108139500Y-110686610D01*
X108164140Y-110842185D01*
X108166598Y-110857701D01*
X108220127Y-111022445D01*
X108298768Y-111176788D01*
X108400586Y-111316928D01*
X108523072Y-111439414D01*
X108663212Y-111541232D01*
X108817555Y-111619873D01*
X108982299Y-111673402D01*
X109153389Y-111700500D01*
X109153390Y-111700500D01*
X110126610Y-111700500D01*
X110126611Y-111700500D01*
X110297701Y-111673402D01*
X110462445Y-111619873D01*
X110616788Y-111541232D01*
X110756928Y-111439414D01*
X110879414Y-111316928D01*
X110981232Y-111176788D01*
X111059873Y-111022445D01*
X111113402Y-110857701D01*
X111140500Y-110686611D01*
X111140500Y-110513389D01*
X130999500Y-110513389D01*
X130999500Y-110686610D01*
X131024140Y-110842185D01*
X131026598Y-110857701D01*
X131080127Y-111022445D01*
X131158768Y-111176788D01*
X131260586Y-111316928D01*
X131383072Y-111439414D01*
X131523212Y-111541232D01*
X131677555Y-111619873D01*
X131842299Y-111673402D01*
X132013389Y-111700500D01*
X132013390Y-111700500D01*
X132986610Y-111700500D01*
X132986611Y-111700500D01*
X133157701Y-111673402D01*
X133322445Y-111619873D01*
X133476788Y-111541232D01*
X133616928Y-111439414D01*
X133739414Y-111316928D01*
X133841232Y-111176788D01*
X133919873Y-111022445D01*
X133973402Y-110857701D01*
X134000500Y-110686611D01*
X134000500Y-110513389D01*
X133973402Y-110342299D01*
X133919873Y-110177555D01*
X133841232Y-110023212D01*
X133739414Y-109883072D01*
X133616928Y-109760586D01*
X133476788Y-109658768D01*
X133322445Y-109580127D01*
X133157701Y-109526598D01*
X133157699Y-109526597D01*
X133157698Y-109526597D01*
X133026271Y-109505781D01*
X132986611Y-109499500D01*
X132013389Y-109499500D01*
X131973728Y-109505781D01*
X131842302Y-109526597D01*
X131677552Y-109580128D01*
X131523211Y-109658768D01*
X131443256Y-109716859D01*
X131383072Y-109760586D01*
X131383070Y-109760588D01*
X131383069Y-109760588D01*
X131260588Y-109883069D01*
X131260588Y-109883070D01*
X131260586Y-109883072D01*
X131216859Y-109943256D01*
X131158768Y-110023211D01*
X131080128Y-110177552D01*
X131026597Y-110342302D01*
X130999500Y-110513389D01*
X111140500Y-110513389D01*
X111113402Y-110342299D01*
X111059873Y-110177555D01*
X110981232Y-110023212D01*
X110879414Y-109883072D01*
X110756928Y-109760586D01*
X110616788Y-109658768D01*
X110462445Y-109580127D01*
X110297701Y-109526598D01*
X110297699Y-109526597D01*
X110297698Y-109526597D01*
X110166271Y-109505781D01*
X110126611Y-109499500D01*
X109153389Y-109499500D01*
X109113728Y-109505781D01*
X108982302Y-109526597D01*
X108817552Y-109580128D01*
X108663211Y-109658768D01*
X108583256Y-109716859D01*
X108523072Y-109760586D01*
X108523070Y-109760588D01*
X108523069Y-109760588D01*
X108400588Y-109883069D01*
X108400588Y-109883070D01*
X108400586Y-109883072D01*
X108356859Y-109943256D01*
X108298768Y-110023211D01*
X108220128Y-110177552D01*
X108166597Y-110342302D01*
X108139500Y-110513389D01*
X105760500Y-110513389D01*
X105760500Y-107809999D01*
X108165884Y-107809999D01*
X108165885Y-107810000D01*
X109324314Y-107810000D01*
X109319920Y-107814394D01*
X109267259Y-107905606D01*
X109240000Y-108007339D01*
X109240000Y-108112661D01*
X109267259Y-108214394D01*
X109319920Y-108305606D01*
X109324314Y-108310000D01*
X108165885Y-108310000D01*
X108167085Y-108317584D01*
X108220591Y-108482255D01*
X108299195Y-108636524D01*
X108400967Y-108776602D01*
X108523397Y-108899032D01*
X108663475Y-109000804D01*
X108817742Y-109079408D01*
X108982415Y-109132914D01*
X109153429Y-109160000D01*
X109390000Y-109160000D01*
X109390000Y-108375686D01*
X109394394Y-108380080D01*
X109485606Y-108432741D01*
X109587339Y-108460000D01*
X109692661Y-108460000D01*
X109794394Y-108432741D01*
X109885606Y-108380080D01*
X109890000Y-108375686D01*
X109890000Y-109160000D01*
X110126571Y-109160000D01*
X110297584Y-109132914D01*
X110462257Y-109079408D01*
X110616524Y-109000804D01*
X110756602Y-108899032D01*
X110879032Y-108776602D01*
X110980804Y-108636524D01*
X111059408Y-108482255D01*
X111112914Y-108317584D01*
X111114115Y-108310000D01*
X109955686Y-108310000D01*
X109960080Y-108305606D01*
X110012741Y-108214394D01*
X110040000Y-108112661D01*
X110040000Y-108007339D01*
X110012741Y-107905606D01*
X109960080Y-107814394D01*
X109955686Y-107810000D01*
X111114115Y-107810000D01*
X111114115Y-107809999D01*
X131025884Y-107809999D01*
X131025885Y-107810000D01*
X132184314Y-107810000D01*
X132179920Y-107814394D01*
X132127259Y-107905606D01*
X132100000Y-108007339D01*
X132100000Y-108112661D01*
X132127259Y-108214394D01*
X132179920Y-108305606D01*
X132184314Y-108310000D01*
X131025885Y-108310000D01*
X131027085Y-108317584D01*
X131080591Y-108482255D01*
X131159195Y-108636524D01*
X131260967Y-108776602D01*
X131383397Y-108899032D01*
X131523475Y-109000804D01*
X131677742Y-109079408D01*
X131842415Y-109132914D01*
X132013429Y-109160000D01*
X132250000Y-109160000D01*
X132250000Y-108375686D01*
X132254394Y-108380080D01*
X132345606Y-108432741D01*
X132447339Y-108460000D01*
X132552661Y-108460000D01*
X132654394Y-108432741D01*
X132745606Y-108380080D01*
X132750000Y-108375686D01*
X132750000Y-109160000D01*
X132986571Y-109160000D01*
X133157584Y-109132914D01*
X133322257Y-109079408D01*
X133476524Y-109000804D01*
X133616602Y-108899032D01*
X133739032Y-108776602D01*
X133840804Y-108636524D01*
X133919408Y-108482255D01*
X133972914Y-108317584D01*
X133974115Y-108310000D01*
X132815686Y-108310000D01*
X132820080Y-108305606D01*
X132872741Y-108214394D01*
X132900000Y-108112661D01*
X132900000Y-108007339D01*
X132872741Y-107905606D01*
X132820080Y-107814394D01*
X132815686Y-107810000D01*
X133974115Y-107810000D01*
X133974115Y-107809999D01*
X133972914Y-107802415D01*
X133919408Y-107637744D01*
X133840804Y-107483475D01*
X133739032Y-107343397D01*
X133616602Y-107220967D01*
X133476524Y-107119195D01*
X133322257Y-107040591D01*
X133157584Y-106987085D01*
X132986571Y-106960000D01*
X132750000Y-106960000D01*
X132750000Y-107744314D01*
X132745606Y-107739920D01*
X132654394Y-107687259D01*
X132552661Y-107660000D01*
X132447339Y-107660000D01*
X132345606Y-107687259D01*
X132254394Y-107739920D01*
X132250000Y-107744314D01*
X132250000Y-106960000D01*
X132013429Y-106960000D01*
X131842415Y-106987085D01*
X131677742Y-107040591D01*
X131523475Y-107119195D01*
X131383397Y-107220967D01*
X131260967Y-107343397D01*
X131159195Y-107483475D01*
X131080591Y-107637744D01*
X131027085Y-107802415D01*
X131025884Y-107809999D01*
X111114115Y-107809999D01*
X111112914Y-107802415D01*
X111059408Y-107637744D01*
X110980804Y-107483475D01*
X110879032Y-107343397D01*
X110756602Y-107220967D01*
X110616524Y-107119195D01*
X110462257Y-107040591D01*
X110297584Y-106987085D01*
X110126571Y-106960000D01*
X109890000Y-106960000D01*
X109890000Y-107744314D01*
X109885606Y-107739920D01*
X109794394Y-107687259D01*
X109692661Y-107660000D01*
X109587339Y-107660000D01*
X109485606Y-107687259D01*
X109394394Y-107739920D01*
X109390000Y-107744314D01*
X109390000Y-106960000D01*
X109153429Y-106960000D01*
X108982415Y-106987085D01*
X108817742Y-107040591D01*
X108663475Y-107119195D01*
X108523397Y-107220967D01*
X108400967Y-107343397D01*
X108299195Y-107483475D01*
X108220591Y-107637744D01*
X108167085Y-107802415D01*
X108165884Y-107809999D01*
X105760500Y-107809999D01*
X105760500Y-107140097D01*
X105780185Y-107073058D01*
X105796819Y-107052416D01*
X106692416Y-106156819D01*
X106753739Y-106123334D01*
X106780097Y-106120500D01*
X108252815Y-106120500D01*
X108319854Y-106140185D01*
X108353131Y-106171612D01*
X108400586Y-106236928D01*
X108523072Y-106359414D01*
X108663212Y-106461232D01*
X108817555Y-106539873D01*
X108982299Y-106593402D01*
X109153389Y-106620500D01*
X109153390Y-106620500D01*
X110126610Y-106620500D01*
X110126611Y-106620500D01*
X110297701Y-106593402D01*
X110462445Y-106539873D01*
X110616788Y-106461232D01*
X110756928Y-106359414D01*
X110879414Y-106236928D01*
X110981232Y-106096788D01*
X111059873Y-105942445D01*
X111113402Y-105777701D01*
X111140500Y-105606611D01*
X111140500Y-105433389D01*
X130999500Y-105433389D01*
X130999500Y-105606610D01*
X131024140Y-105762185D01*
X131026598Y-105777701D01*
X131080127Y-105942445D01*
X131158768Y-106096788D01*
X131260586Y-106236928D01*
X131383072Y-106359414D01*
X131523212Y-106461232D01*
X131677555Y-106539873D01*
X131842299Y-106593402D01*
X132013389Y-106620500D01*
X132013390Y-106620500D01*
X132986610Y-106620500D01*
X132986611Y-106620500D01*
X133157701Y-106593402D01*
X133322445Y-106539873D01*
X133476788Y-106461232D01*
X133616928Y-106359414D01*
X133739414Y-106236928D01*
X133841232Y-106096788D01*
X133919873Y-105942445D01*
X133973402Y-105777701D01*
X134000500Y-105606611D01*
X134000500Y-105433389D01*
X133973402Y-105262299D01*
X133919873Y-105097555D01*
X133841232Y-104943212D01*
X133739414Y-104803072D01*
X133616928Y-104680586D01*
X133476788Y-104578768D01*
X133322445Y-104500127D01*
X133157701Y-104446598D01*
X133157699Y-104446597D01*
X133157698Y-104446597D01*
X133026271Y-104425781D01*
X132986611Y-104419500D01*
X132013389Y-104419500D01*
X131973728Y-104425781D01*
X131842302Y-104446597D01*
X131677552Y-104500128D01*
X131523211Y-104578768D01*
X131443256Y-104636859D01*
X131383072Y-104680586D01*
X131383070Y-104680588D01*
X131383069Y-104680588D01*
X131260588Y-104803069D01*
X131260588Y-104803070D01*
X131260586Y-104803072D01*
X131216859Y-104863256D01*
X131158768Y-104943211D01*
X131080128Y-105097552D01*
X131026597Y-105262302D01*
X130999500Y-105433389D01*
X111140500Y-105433389D01*
X111113402Y-105262299D01*
X111059873Y-105097555D01*
X110981232Y-104943212D01*
X110879414Y-104803072D01*
X110756928Y-104680586D01*
X110616788Y-104578768D01*
X110462445Y-104500127D01*
X110297701Y-104446598D01*
X110297699Y-104446597D01*
X110297698Y-104446597D01*
X110166271Y-104425781D01*
X110126611Y-104419500D01*
X109153389Y-104419500D01*
X109113728Y-104425781D01*
X108982302Y-104446597D01*
X108817552Y-104500128D01*
X108663211Y-104578768D01*
X108583256Y-104636859D01*
X108523072Y-104680586D01*
X108523070Y-104680588D01*
X108523069Y-104680588D01*
X108400588Y-104803069D01*
X108400588Y-104803070D01*
X108400586Y-104803072D01*
X108353133Y-104868386D01*
X108297803Y-104911051D01*
X108252815Y-104919500D01*
X106566669Y-104919500D01*
X106566653Y-104919499D01*
X106559057Y-104919499D01*
X106400943Y-104919499D01*
X106293587Y-104948265D01*
X106248210Y-104960424D01*
X106248209Y-104960425D01*
X106198096Y-104989359D01*
X106198095Y-104989360D01*
X106154689Y-105014420D01*
X106111285Y-105039479D01*
X106111282Y-105039481D01*
X104679481Y-106471282D01*
X104679480Y-106471284D01*
X104639881Y-106539873D01*
X104629361Y-106558094D01*
X104629359Y-106558096D01*
X104600425Y-106608209D01*
X104600424Y-106608210D01*
X104584544Y-106667472D01*
X104559499Y-106760943D01*
X104559499Y-106760945D01*
X104559499Y-106929046D01*
X104559500Y-106929059D01*
X104559500Y-131395500D01*
X104539815Y-131462539D01*
X104487011Y-131508294D01*
X104435501Y-131519500D01*
X104212130Y-131519500D01*
X104212123Y-131519501D01*
X104152516Y-131525908D01*
X104017671Y-131576202D01*
X104017664Y-131576206D01*
X103902455Y-131662452D01*
X103902452Y-131662455D01*
X103816206Y-131777664D01*
X103816202Y-131777671D01*
X103765908Y-131912517D01*
X103759501Y-131972116D01*
X103759501Y-131972123D01*
X103759500Y-131972135D01*
X82000500Y-131972135D01*
X82000500Y-89069778D01*
X82599500Y-89069778D01*
X82599500Y-89290221D01*
X82633985Y-89507952D01*
X82702103Y-89717603D01*
X82702104Y-89717606D01*
X82802187Y-89914025D01*
X82931752Y-90092358D01*
X82931756Y-90092363D01*
X83087636Y-90248243D01*
X83087641Y-90248247D01*
X83227680Y-90349991D01*
X83270346Y-90405320D01*
X83276325Y-90474934D01*
X83243720Y-90536729D01*
X83227681Y-90550627D01*
X83087959Y-90652142D01*
X83087958Y-90652142D01*
X82932142Y-90807958D01*
X82802613Y-90986239D01*
X82702567Y-91182589D01*
X82634473Y-91392161D01*
X82634473Y-91392164D01*
X82622145Y-91470000D01*
X83566988Y-91470000D01*
X83534075Y-91527007D01*
X83500000Y-91654174D01*
X83500000Y-91785826D01*
X83534075Y-91912993D01*
X83566988Y-91970000D01*
X82622145Y-91970000D01*
X82634473Y-92047835D01*
X82634473Y-92047838D01*
X82702567Y-92257410D01*
X82802613Y-92453760D01*
X82932142Y-92632041D01*
X83087958Y-92787857D01*
X83087964Y-92787862D01*
X83227680Y-92889372D01*
X83270346Y-92944702D01*
X83276325Y-93014315D01*
X83243719Y-93076110D01*
X83227681Y-93090008D01*
X83087636Y-93191756D01*
X82931756Y-93347636D01*
X82931752Y-93347641D01*
X82802187Y-93525974D01*
X82702104Y-93722393D01*
X82702103Y-93722396D01*
X82633985Y-93932047D01*
X82599500Y-94149778D01*
X82599500Y-94370221D01*
X82633985Y-94587952D01*
X82702103Y-94797603D01*
X82702104Y-94797606D01*
X82802187Y-94994025D01*
X82931752Y-95172358D01*
X82931756Y-95172363D01*
X83087636Y-95328243D01*
X83087641Y-95328247D01*
X83227254Y-95429682D01*
X83269920Y-95485012D01*
X83275899Y-95554625D01*
X83243293Y-95616420D01*
X83227254Y-95630318D01*
X83087641Y-95731752D01*
X83087636Y-95731756D01*
X82931756Y-95887636D01*
X82931752Y-95887641D01*
X82802187Y-96065974D01*
X82702104Y-96262393D01*
X82702103Y-96262396D01*
X82633985Y-96472047D01*
X82599500Y-96689778D01*
X82599500Y-96910221D01*
X82633985Y-97127952D01*
X82702103Y-97337603D01*
X82702104Y-97337606D01*
X82802187Y-97534025D01*
X82931752Y-97712358D01*
X82931756Y-97712363D01*
X83087636Y-97868243D01*
X83087641Y-97868247D01*
X83227254Y-97969682D01*
X83269920Y-98025012D01*
X83275899Y-98094625D01*
X83243293Y-98156420D01*
X83227254Y-98170318D01*
X83087641Y-98271752D01*
X83087636Y-98271756D01*
X82931756Y-98427636D01*
X82931752Y-98427641D01*
X82802187Y-98605974D01*
X82702104Y-98802393D01*
X82702103Y-98802396D01*
X82633985Y-99012047D01*
X82599500Y-99229778D01*
X82599500Y-99450221D01*
X82633985Y-99667952D01*
X82702103Y-99877603D01*
X82702104Y-99877606D01*
X82802187Y-100074025D01*
X82931752Y-100252358D01*
X82931756Y-100252363D01*
X83087636Y-100408243D01*
X83087641Y-100408247D01*
X83227254Y-100509682D01*
X83269920Y-100565012D01*
X83275899Y-100634625D01*
X83243293Y-100696420D01*
X83227254Y-100710318D01*
X83087641Y-100811752D01*
X83087636Y-100811756D01*
X82931756Y-100967636D01*
X82931752Y-100967641D01*
X82802187Y-101145974D01*
X82702104Y-101342393D01*
X82702103Y-101342396D01*
X82633985Y-101552047D01*
X82599500Y-101769778D01*
X82599500Y-101990221D01*
X82633985Y-102207952D01*
X82702103Y-102417603D01*
X82702104Y-102417606D01*
X82802187Y-102614025D01*
X82931752Y-102792358D01*
X82931756Y-102792363D01*
X83087636Y-102948243D01*
X83087641Y-102948247D01*
X83227254Y-103049682D01*
X83269920Y-103105012D01*
X83275899Y-103174625D01*
X83243293Y-103236420D01*
X83227254Y-103250318D01*
X83087641Y-103351752D01*
X83087636Y-103351756D01*
X82931756Y-103507636D01*
X82931752Y-103507641D01*
X82802187Y-103685974D01*
X82702104Y-103882393D01*
X82702103Y-103882396D01*
X82633985Y-104092047D01*
X82599500Y-104309778D01*
X82599500Y-104530221D01*
X82633985Y-104747952D01*
X82702103Y-104957603D01*
X82702104Y-104957606D01*
X82802187Y-105154025D01*
X82931752Y-105332358D01*
X82931756Y-105332363D01*
X83087636Y-105488243D01*
X83087641Y-105488247D01*
X83227254Y-105589682D01*
X83269920Y-105645012D01*
X83275899Y-105714625D01*
X83243293Y-105776420D01*
X83227254Y-105790318D01*
X83087641Y-105891752D01*
X83087636Y-105891756D01*
X82931756Y-106047636D01*
X82931752Y-106047641D01*
X82802187Y-106225974D01*
X82702104Y-106422393D01*
X82702103Y-106422396D01*
X82633985Y-106632047D01*
X82599500Y-106849778D01*
X82599500Y-107070221D01*
X82633985Y-107287952D01*
X82702103Y-107497603D01*
X82702104Y-107497606D01*
X82802187Y-107694025D01*
X82931752Y-107872358D01*
X82931756Y-107872363D01*
X83087636Y-108028243D01*
X83087641Y-108028247D01*
X83227254Y-108129682D01*
X83269920Y-108185012D01*
X83275899Y-108254625D01*
X83243293Y-108316420D01*
X83227254Y-108330318D01*
X83087641Y-108431752D01*
X83087636Y-108431756D01*
X82931756Y-108587636D01*
X82931752Y-108587641D01*
X82802187Y-108765974D01*
X82702104Y-108962393D01*
X82702103Y-108962396D01*
X82633985Y-109172047D01*
X82599500Y-109389778D01*
X82599500Y-109610221D01*
X82633985Y-109827952D01*
X82702103Y-110037603D01*
X82702104Y-110037606D01*
X82802187Y-110234025D01*
X82931752Y-110412358D01*
X82931756Y-110412363D01*
X83087636Y-110568243D01*
X83087641Y-110568247D01*
X83227254Y-110669682D01*
X83269920Y-110725012D01*
X83275899Y-110794625D01*
X83243293Y-110856420D01*
X83227254Y-110870318D01*
X83087641Y-110971752D01*
X83087636Y-110971756D01*
X82931756Y-111127636D01*
X82931752Y-111127641D01*
X82802187Y-111305974D01*
X82702104Y-111502393D01*
X82702103Y-111502396D01*
X82633985Y-111712047D01*
X82599500Y-111929778D01*
X82599500Y-112150221D01*
X82633985Y-112367952D01*
X82702103Y-112577603D01*
X82702104Y-112577606D01*
X82802187Y-112774025D01*
X82931752Y-112952358D01*
X82931756Y-112952363D01*
X83087636Y-113108243D01*
X83087641Y-113108247D01*
X83130073Y-113139075D01*
X83265978Y-113237815D01*
X83384083Y-113297993D01*
X83462393Y-113337895D01*
X83462396Y-113337896D01*
X83567221Y-113371955D01*
X83672049Y-113406015D01*
X83889778Y-113440500D01*
X83889779Y-113440500D01*
X84110221Y-113440500D01*
X84110222Y-113440500D01*
X84327951Y-113406015D01*
X84537606Y-113337895D01*
X84734022Y-113237815D01*
X84912365Y-113108242D01*
X85068242Y-112952365D01*
X85197815Y-112774022D01*
X85297895Y-112577606D01*
X85366015Y-112367951D01*
X85400500Y-112150222D01*
X85400500Y-111929778D01*
X85366015Y-111712049D01*
X85297895Y-111502394D01*
X85297895Y-111502393D01*
X85203395Y-111316930D01*
X85197815Y-111305978D01*
X85103954Y-111176788D01*
X85068247Y-111127641D01*
X85068243Y-111127636D01*
X84912363Y-110971756D01*
X84912358Y-110971752D01*
X84772745Y-110870318D01*
X84730079Y-110814989D01*
X84724100Y-110745375D01*
X84756705Y-110683580D01*
X84772745Y-110669682D01*
X84912358Y-110568247D01*
X84912356Y-110568247D01*
X84912365Y-110568242D01*
X85068242Y-110412365D01*
X85197815Y-110234022D01*
X85297895Y-110037606D01*
X85366015Y-109827951D01*
X85400500Y-109610222D01*
X85400500Y-109389778D01*
X85366015Y-109172049D01*
X85297895Y-108962394D01*
X85297895Y-108962393D01*
X85263237Y-108894375D01*
X85197815Y-108765978D01*
X85103762Y-108636524D01*
X85068247Y-108587641D01*
X85068243Y-108587636D01*
X84912363Y-108431756D01*
X84912358Y-108431752D01*
X84772745Y-108330318D01*
X84730079Y-108274989D01*
X84724100Y-108205375D01*
X84756705Y-108143580D01*
X84772745Y-108129682D01*
X84912358Y-108028247D01*
X84912356Y-108028247D01*
X84912365Y-108028242D01*
X85068242Y-107872365D01*
X85197815Y-107694022D01*
X85297895Y-107497606D01*
X85366015Y-107287951D01*
X85400500Y-107070222D01*
X85400500Y-106849778D01*
X85366015Y-106632049D01*
X85331955Y-106527221D01*
X85297896Y-106422396D01*
X85297895Y-106422393D01*
X85203395Y-106236930D01*
X85197815Y-106225978D01*
X85181260Y-106203192D01*
X85068247Y-106047641D01*
X85068243Y-106047636D01*
X84912363Y-105891756D01*
X84912358Y-105891752D01*
X84772745Y-105790318D01*
X84730079Y-105734989D01*
X84724100Y-105665375D01*
X84756705Y-105603580D01*
X84772745Y-105589682D01*
X84912358Y-105488247D01*
X84912356Y-105488247D01*
X84912365Y-105488242D01*
X85068242Y-105332365D01*
X85197815Y-105154022D01*
X85297895Y-104957606D01*
X85366015Y-104747951D01*
X85400500Y-104530222D01*
X85400500Y-104309778D01*
X85366015Y-104092049D01*
X85297895Y-103882394D01*
X85297895Y-103882393D01*
X85203395Y-103696930D01*
X85197815Y-103685978D01*
X85103954Y-103556788D01*
X85068247Y-103507641D01*
X85068243Y-103507636D01*
X84912363Y-103351756D01*
X84912358Y-103351752D01*
X84772745Y-103250318D01*
X84730079Y-103194989D01*
X84724100Y-103125375D01*
X84756705Y-103063580D01*
X84772745Y-103049682D01*
X84912358Y-102948247D01*
X84912356Y-102948247D01*
X84912365Y-102948242D01*
X84967218Y-102893389D01*
X108139500Y-102893389D01*
X108139500Y-103066610D01*
X108164140Y-103222185D01*
X108166598Y-103237701D01*
X108220127Y-103402445D01*
X108298768Y-103556788D01*
X108400586Y-103696928D01*
X108523072Y-103819414D01*
X108663212Y-103921232D01*
X108817555Y-103999873D01*
X108982299Y-104053402D01*
X109153389Y-104080500D01*
X109153390Y-104080500D01*
X110126610Y-104080500D01*
X110126611Y-104080500D01*
X110297701Y-104053402D01*
X110462445Y-103999873D01*
X110616788Y-103921232D01*
X110756928Y-103819414D01*
X110879414Y-103696928D01*
X110981232Y-103556788D01*
X111059873Y-103402445D01*
X111113402Y-103237701D01*
X111140500Y-103066611D01*
X111140500Y-102893389D01*
X130999500Y-102893389D01*
X130999500Y-103066610D01*
X131024140Y-103222185D01*
X131026598Y-103237701D01*
X131080127Y-103402445D01*
X131158768Y-103556788D01*
X131260586Y-103696928D01*
X131383072Y-103819414D01*
X131523212Y-103921232D01*
X131677555Y-103999873D01*
X131842299Y-104053402D01*
X132013389Y-104080500D01*
X132013390Y-104080500D01*
X132986610Y-104080500D01*
X132986611Y-104080500D01*
X133157701Y-104053402D01*
X133322445Y-103999873D01*
X133476788Y-103921232D01*
X133616928Y-103819414D01*
X133739414Y-103696928D01*
X133841232Y-103556788D01*
X133919873Y-103402445D01*
X133973402Y-103237701D01*
X134000500Y-103066611D01*
X134000500Y-102893389D01*
X133973402Y-102722299D01*
X133919873Y-102557555D01*
X133841232Y-102403212D01*
X133739414Y-102263072D01*
X133616928Y-102140586D01*
X133476788Y-102038768D01*
X133322445Y-101960127D01*
X133157701Y-101906598D01*
X133157699Y-101906597D01*
X133157698Y-101906597D01*
X133026271Y-101885781D01*
X132986611Y-101879500D01*
X132013389Y-101879500D01*
X131973728Y-101885781D01*
X131842302Y-101906597D01*
X131677552Y-101960128D01*
X131523211Y-102038768D01*
X131443256Y-102096859D01*
X131383072Y-102140586D01*
X131383070Y-102140588D01*
X131383069Y-102140588D01*
X131260588Y-102263069D01*
X131260588Y-102263070D01*
X131260586Y-102263072D01*
X131216859Y-102323256D01*
X131158768Y-102403211D01*
X131080128Y-102557552D01*
X131026597Y-102722302D01*
X130999500Y-102893389D01*
X111140500Y-102893389D01*
X111113402Y-102722299D01*
X111059873Y-102557555D01*
X110981232Y-102403212D01*
X110879414Y-102263072D01*
X110756928Y-102140586D01*
X110616788Y-102038768D01*
X110462445Y-101960127D01*
X110297701Y-101906598D01*
X110297699Y-101906597D01*
X110297698Y-101906597D01*
X110166271Y-101885781D01*
X110126611Y-101879500D01*
X109153389Y-101879500D01*
X109113728Y-101885781D01*
X108982302Y-101906597D01*
X108817552Y-101960128D01*
X108663211Y-102038768D01*
X108583256Y-102096859D01*
X108523072Y-102140586D01*
X108523070Y-102140588D01*
X108523069Y-102140588D01*
X108400588Y-102263069D01*
X108400588Y-102263070D01*
X108400586Y-102263072D01*
X108356859Y-102323256D01*
X108298768Y-102403211D01*
X108220128Y-102557552D01*
X108166597Y-102722302D01*
X108139500Y-102893389D01*
X84967218Y-102893389D01*
X85068242Y-102792365D01*
X85197815Y-102614022D01*
X85297895Y-102417606D01*
X85366015Y-102207951D01*
X85400500Y-101990222D01*
X85400500Y-101769778D01*
X85366015Y-101552049D01*
X85297895Y-101342394D01*
X85297895Y-101342393D01*
X85203395Y-101156930D01*
X85197815Y-101145978D01*
X85103762Y-101016524D01*
X85068247Y-100967641D01*
X85068243Y-100967636D01*
X84912363Y-100811756D01*
X84912358Y-100811752D01*
X84772745Y-100710318D01*
X84730079Y-100654989D01*
X84724100Y-100585375D01*
X84756705Y-100523580D01*
X84772745Y-100509682D01*
X84912358Y-100408247D01*
X84912356Y-100408247D01*
X84912365Y-100408242D01*
X84967218Y-100353389D01*
X108139500Y-100353389D01*
X108139500Y-100526610D01*
X108164140Y-100682185D01*
X108166598Y-100697701D01*
X108220127Y-100862445D01*
X108298768Y-101016788D01*
X108400586Y-101156928D01*
X108523072Y-101279414D01*
X108663212Y-101381232D01*
X108817555Y-101459873D01*
X108982299Y-101513402D01*
X109153389Y-101540500D01*
X109153390Y-101540500D01*
X110126610Y-101540500D01*
X110126611Y-101540500D01*
X110297701Y-101513402D01*
X110462445Y-101459873D01*
X110616788Y-101381232D01*
X110756928Y-101279414D01*
X110879414Y-101156928D01*
X110981232Y-101016788D01*
X111059873Y-100862445D01*
X111113402Y-100697701D01*
X111120167Y-100654989D01*
X111123565Y-100633537D01*
X111123565Y-100633536D01*
X111140500Y-100526611D01*
X111140500Y-100353388D01*
X111123565Y-100246462D01*
X111123565Y-100246460D01*
X111116929Y-100204573D01*
X111114621Y-100189999D01*
X131025884Y-100189999D01*
X131025885Y-100190000D01*
X132184314Y-100190000D01*
X132179920Y-100194394D01*
X132127259Y-100285606D01*
X132100000Y-100387339D01*
X132100000Y-100492661D01*
X132127259Y-100594394D01*
X132179920Y-100685606D01*
X132184314Y-100690000D01*
X131025885Y-100690000D01*
X131027085Y-100697584D01*
X131080591Y-100862255D01*
X131159195Y-101016524D01*
X131260967Y-101156602D01*
X131383397Y-101279032D01*
X131523475Y-101380804D01*
X131677742Y-101459408D01*
X131842415Y-101512914D01*
X132013429Y-101540000D01*
X132250000Y-101540000D01*
X132250000Y-100755686D01*
X132254394Y-100760080D01*
X132345606Y-100812741D01*
X132447339Y-100840000D01*
X132552661Y-100840000D01*
X132654394Y-100812741D01*
X132745606Y-100760080D01*
X132750000Y-100755686D01*
X132750000Y-101540000D01*
X132986571Y-101540000D01*
X133157584Y-101512914D01*
X133322257Y-101459408D01*
X133476524Y-101380804D01*
X133616602Y-101279032D01*
X133739032Y-101156602D01*
X133840804Y-101016524D01*
X133919408Y-100862255D01*
X133972914Y-100697584D01*
X133974115Y-100690000D01*
X132815686Y-100690000D01*
X132820080Y-100685606D01*
X132872741Y-100594394D01*
X132900000Y-100492661D01*
X132900000Y-100387339D01*
X132872741Y-100285606D01*
X132820080Y-100194394D01*
X132815686Y-100190000D01*
X133974115Y-100190000D01*
X133974115Y-100189999D01*
X133972914Y-100182415D01*
X133919408Y-100017744D01*
X133840804Y-99863475D01*
X133739032Y-99723397D01*
X133616602Y-99600967D01*
X133476524Y-99499195D01*
X133322257Y-99420591D01*
X133157584Y-99367085D01*
X132986571Y-99340000D01*
X132750000Y-99340000D01*
X132750000Y-100124314D01*
X132745606Y-100119920D01*
X132654394Y-100067259D01*
X132552661Y-100040000D01*
X132447339Y-100040000D01*
X132345606Y-100067259D01*
X132254394Y-100119920D01*
X132250000Y-100124314D01*
X132250000Y-99340000D01*
X132013429Y-99340000D01*
X131842415Y-99367085D01*
X131677742Y-99420591D01*
X131523475Y-99499195D01*
X131383397Y-99600967D01*
X131260967Y-99723397D01*
X131159195Y-99863475D01*
X131080591Y-100017744D01*
X131027085Y-100182415D01*
X131025884Y-100189999D01*
X111114621Y-100189999D01*
X111113402Y-100182299D01*
X111059873Y-100017555D01*
X110981232Y-99863212D01*
X110879414Y-99723072D01*
X110756928Y-99600586D01*
X110616788Y-99498768D01*
X110462445Y-99420127D01*
X110297701Y-99366598D01*
X110297699Y-99366597D01*
X110297698Y-99366597D01*
X110166271Y-99345781D01*
X110126611Y-99339500D01*
X109153389Y-99339500D01*
X109113728Y-99345781D01*
X108982302Y-99366597D01*
X108817552Y-99420128D01*
X108663211Y-99498768D01*
X108583256Y-99556859D01*
X108523072Y-99600586D01*
X108523070Y-99600588D01*
X108523069Y-99600588D01*
X108400588Y-99723069D01*
X108400588Y-99723070D01*
X108400586Y-99723072D01*
X108400350Y-99723397D01*
X108298768Y-99863211D01*
X108220128Y-100017552D01*
X108166597Y-100182302D01*
X108139500Y-100353389D01*
X84967218Y-100353389D01*
X85068242Y-100252365D01*
X85197815Y-100074022D01*
X85297895Y-99877606D01*
X85366015Y-99667951D01*
X85400500Y-99450222D01*
X85400500Y-99229778D01*
X85366015Y-99012049D01*
X85297895Y-98802394D01*
X85297895Y-98802393D01*
X85203395Y-98616930D01*
X85197815Y-98605978D01*
X85103954Y-98476788D01*
X85068247Y-98427641D01*
X85068243Y-98427636D01*
X84912363Y-98271756D01*
X84912358Y-98271752D01*
X84772745Y-98170318D01*
X84730079Y-98114989D01*
X84724100Y-98045375D01*
X84756705Y-97983580D01*
X84772745Y-97969682D01*
X84912358Y-97868247D01*
X84912356Y-97868247D01*
X84912365Y-97868242D01*
X84967218Y-97813389D01*
X108139500Y-97813389D01*
X108139500Y-97986610D01*
X108164140Y-98142185D01*
X108166598Y-98157701D01*
X108220127Y-98322445D01*
X108298768Y-98476788D01*
X108400586Y-98616928D01*
X108523072Y-98739414D01*
X108663212Y-98841232D01*
X108817555Y-98919873D01*
X108982299Y-98973402D01*
X109153389Y-99000500D01*
X109153390Y-99000500D01*
X110126610Y-99000500D01*
X110126611Y-99000500D01*
X110297701Y-98973402D01*
X110462445Y-98919873D01*
X110616788Y-98841232D01*
X110756928Y-98739414D01*
X110879414Y-98616928D01*
X110981232Y-98476788D01*
X111059873Y-98322445D01*
X111113402Y-98157701D01*
X111140500Y-97986611D01*
X111140500Y-97813389D01*
X130999500Y-97813389D01*
X130999500Y-97986610D01*
X131024140Y-98142185D01*
X131026598Y-98157701D01*
X131080127Y-98322445D01*
X131158768Y-98476788D01*
X131260586Y-98616928D01*
X131383072Y-98739414D01*
X131523212Y-98841232D01*
X131677555Y-98919873D01*
X131842299Y-98973402D01*
X132013389Y-99000500D01*
X132013390Y-99000500D01*
X132986610Y-99000500D01*
X132986611Y-99000500D01*
X133157701Y-98973402D01*
X133322445Y-98919873D01*
X133476788Y-98841232D01*
X133616928Y-98739414D01*
X133739414Y-98616928D01*
X133841232Y-98476788D01*
X133919873Y-98322445D01*
X133973402Y-98157701D01*
X134000500Y-97986611D01*
X134000500Y-97813389D01*
X133973402Y-97642299D01*
X133919873Y-97477555D01*
X133841232Y-97323212D01*
X133739414Y-97183072D01*
X133616928Y-97060586D01*
X133476788Y-96958768D01*
X133322445Y-96880127D01*
X133157701Y-96826598D01*
X133157699Y-96826597D01*
X133157698Y-96826597D01*
X133026271Y-96805781D01*
X132986611Y-96799500D01*
X132013389Y-96799500D01*
X131973728Y-96805781D01*
X131842302Y-96826597D01*
X131677552Y-96880128D01*
X131523211Y-96958768D01*
X131443256Y-97016859D01*
X131383072Y-97060586D01*
X131383070Y-97060588D01*
X131383069Y-97060588D01*
X131260588Y-97183069D01*
X131260588Y-97183070D01*
X131260586Y-97183072D01*
X131216859Y-97243256D01*
X131158768Y-97323211D01*
X131080128Y-97477552D01*
X131026597Y-97642302D01*
X130999500Y-97813389D01*
X111140500Y-97813389D01*
X111113402Y-97642299D01*
X111059873Y-97477555D01*
X110981232Y-97323212D01*
X110879414Y-97183072D01*
X110756928Y-97060586D01*
X110616788Y-96958768D01*
X110462445Y-96880127D01*
X110297701Y-96826598D01*
X110297699Y-96826597D01*
X110297698Y-96826597D01*
X110166271Y-96805781D01*
X110126611Y-96799500D01*
X109153389Y-96799500D01*
X109113728Y-96805781D01*
X108982302Y-96826597D01*
X108817552Y-96880128D01*
X108663211Y-96958768D01*
X108583256Y-97016859D01*
X108523072Y-97060586D01*
X108523070Y-97060588D01*
X108523069Y-97060588D01*
X108400588Y-97183069D01*
X108400588Y-97183070D01*
X108400586Y-97183072D01*
X108356859Y-97243256D01*
X108298768Y-97323211D01*
X108220128Y-97477552D01*
X108166597Y-97642302D01*
X108139500Y-97813389D01*
X84967218Y-97813389D01*
X85068242Y-97712365D01*
X85197815Y-97534022D01*
X85297895Y-97337606D01*
X85366015Y-97127951D01*
X85400500Y-96910222D01*
X85400500Y-96689778D01*
X85366015Y-96472049D01*
X85297895Y-96262394D01*
X85297895Y-96262393D01*
X85203395Y-96076930D01*
X85197815Y-96065978D01*
X85103954Y-95936788D01*
X85068247Y-95887641D01*
X85068243Y-95887636D01*
X84912363Y-95731756D01*
X84912358Y-95731752D01*
X84772745Y-95630318D01*
X84730079Y-95574989D01*
X84724100Y-95505375D01*
X84756705Y-95443580D01*
X84772745Y-95429682D01*
X84912358Y-95328247D01*
X84912356Y-95328247D01*
X84912365Y-95328242D01*
X84967218Y-95273389D01*
X108139500Y-95273389D01*
X108139500Y-95446610D01*
X108164140Y-95602185D01*
X108166598Y-95617701D01*
X108220127Y-95782445D01*
X108298768Y-95936788D01*
X108400586Y-96076928D01*
X108523072Y-96199414D01*
X108663212Y-96301232D01*
X108817555Y-96379873D01*
X108982299Y-96433402D01*
X109153389Y-96460500D01*
X109153390Y-96460500D01*
X110126610Y-96460500D01*
X110126611Y-96460500D01*
X110297701Y-96433402D01*
X110462445Y-96379873D01*
X110616788Y-96301232D01*
X110756928Y-96199414D01*
X110879414Y-96076928D01*
X110981232Y-95936788D01*
X111059873Y-95782445D01*
X111113402Y-95617701D01*
X111140500Y-95446611D01*
X111140500Y-95273389D01*
X130999500Y-95273389D01*
X130999500Y-95446610D01*
X131024140Y-95602185D01*
X131026598Y-95617701D01*
X131080127Y-95782445D01*
X131158768Y-95936788D01*
X131260586Y-96076928D01*
X131383072Y-96199414D01*
X131523212Y-96301232D01*
X131677555Y-96379873D01*
X131842299Y-96433402D01*
X132013389Y-96460500D01*
X132013390Y-96460500D01*
X132986610Y-96460500D01*
X132986611Y-96460500D01*
X133157701Y-96433402D01*
X133322445Y-96379873D01*
X133476788Y-96301232D01*
X133616928Y-96199414D01*
X133739414Y-96076928D01*
X133841232Y-95936788D01*
X133919873Y-95782445D01*
X133973402Y-95617701D01*
X134000500Y-95446611D01*
X134000500Y-95273389D01*
X133973402Y-95102299D01*
X133919873Y-94937555D01*
X133841232Y-94783212D01*
X133739414Y-94643072D01*
X133616928Y-94520586D01*
X133476788Y-94418768D01*
X133322445Y-94340127D01*
X133157701Y-94286598D01*
X133157699Y-94286597D01*
X133157698Y-94286597D01*
X133026271Y-94265781D01*
X132986611Y-94259500D01*
X132013389Y-94259500D01*
X131973728Y-94265781D01*
X131842302Y-94286597D01*
X131677552Y-94340128D01*
X131523211Y-94418768D01*
X131443256Y-94476859D01*
X131383072Y-94520586D01*
X131383070Y-94520588D01*
X131383069Y-94520588D01*
X131260588Y-94643069D01*
X131260588Y-94643070D01*
X131260586Y-94643072D01*
X131216859Y-94703256D01*
X131158768Y-94783211D01*
X131080128Y-94937552D01*
X131026597Y-95102302D01*
X130999500Y-95273389D01*
X111140500Y-95273389D01*
X111113402Y-95102299D01*
X111059873Y-94937555D01*
X110981232Y-94783212D01*
X110879414Y-94643072D01*
X110756928Y-94520586D01*
X110616788Y-94418768D01*
X110462445Y-94340127D01*
X110297701Y-94286598D01*
X110297699Y-94286597D01*
X110297698Y-94286597D01*
X110166271Y-94265781D01*
X110126611Y-94259500D01*
X109153389Y-94259500D01*
X109113728Y-94265781D01*
X108982302Y-94286597D01*
X108817552Y-94340128D01*
X108663211Y-94418768D01*
X108583256Y-94476859D01*
X108523072Y-94520586D01*
X108523070Y-94520588D01*
X108523069Y-94520588D01*
X108400588Y-94643069D01*
X108400588Y-94643070D01*
X108400586Y-94643072D01*
X108356859Y-94703256D01*
X108298768Y-94783211D01*
X108220128Y-94937552D01*
X108166597Y-95102302D01*
X108139500Y-95273389D01*
X84967218Y-95273389D01*
X85068242Y-95172365D01*
X85197815Y-94994022D01*
X85297895Y-94797606D01*
X85366015Y-94587951D01*
X85400500Y-94370222D01*
X85400500Y-94149778D01*
X85366015Y-93932049D01*
X85297895Y-93722394D01*
X85297895Y-93722393D01*
X85203395Y-93536930D01*
X85197815Y-93525978D01*
X85103954Y-93396788D01*
X85068247Y-93347641D01*
X85068243Y-93347636D01*
X84912363Y-93191756D01*
X84912358Y-93191752D01*
X84772319Y-93090008D01*
X84729653Y-93034678D01*
X84723674Y-92965065D01*
X84756279Y-92903270D01*
X84772319Y-92889372D01*
X84912035Y-92787862D01*
X84912041Y-92787857D01*
X84966509Y-92733389D01*
X108139500Y-92733389D01*
X108139500Y-92906610D01*
X108164140Y-93062185D01*
X108166598Y-93077701D01*
X108220127Y-93242445D01*
X108298768Y-93396788D01*
X108400586Y-93536928D01*
X108523072Y-93659414D01*
X108663212Y-93761232D01*
X108817555Y-93839873D01*
X108982299Y-93893402D01*
X109153389Y-93920500D01*
X109153390Y-93920500D01*
X110126610Y-93920500D01*
X110126611Y-93920500D01*
X110297701Y-93893402D01*
X110462445Y-93839873D01*
X110616788Y-93761232D01*
X110756928Y-93659414D01*
X110879414Y-93536928D01*
X110981232Y-93396788D01*
X111059873Y-93242445D01*
X111113402Y-93077701D01*
X111140500Y-92906611D01*
X111140500Y-92733389D01*
X130999500Y-92733389D01*
X130999500Y-92906610D01*
X131024140Y-93062185D01*
X131026598Y-93077701D01*
X131080127Y-93242445D01*
X131158768Y-93396788D01*
X131260586Y-93536928D01*
X131383072Y-93659414D01*
X131523212Y-93761232D01*
X131677555Y-93839873D01*
X131842299Y-93893402D01*
X132013389Y-93920500D01*
X132013390Y-93920500D01*
X132986610Y-93920500D01*
X132986611Y-93920500D01*
X133157701Y-93893402D01*
X133322445Y-93839873D01*
X133476788Y-93761232D01*
X133616928Y-93659414D01*
X133739414Y-93536928D01*
X133841232Y-93396788D01*
X133919873Y-93242445D01*
X133973402Y-93077701D01*
X134000500Y-92906611D01*
X134000500Y-92733389D01*
X133973402Y-92562299D01*
X133919873Y-92397555D01*
X133841232Y-92243212D01*
X133739414Y-92103072D01*
X133616928Y-91980586D01*
X133476788Y-91878768D01*
X133322445Y-91800127D01*
X133157701Y-91746598D01*
X133157699Y-91746597D01*
X133157698Y-91746597D01*
X133026271Y-91725781D01*
X132986611Y-91719500D01*
X132013389Y-91719500D01*
X131973728Y-91725781D01*
X131842302Y-91746597D01*
X131677552Y-91800128D01*
X131523211Y-91878768D01*
X131476105Y-91912993D01*
X131383072Y-91980586D01*
X131383070Y-91980588D01*
X131383069Y-91980588D01*
X131260588Y-92103069D01*
X131260588Y-92103070D01*
X131260586Y-92103072D01*
X131216859Y-92163256D01*
X131158768Y-92243211D01*
X131080128Y-92397552D01*
X131026597Y-92562302D01*
X130999500Y-92733389D01*
X111140500Y-92733389D01*
X111113402Y-92562299D01*
X111059873Y-92397555D01*
X110981232Y-92243212D01*
X110879414Y-92103072D01*
X110756928Y-91980586D01*
X110616788Y-91878768D01*
X110462445Y-91800127D01*
X110297701Y-91746598D01*
X110297699Y-91746597D01*
X110297698Y-91746597D01*
X110166271Y-91725781D01*
X110126611Y-91719500D01*
X109153389Y-91719500D01*
X109113728Y-91725781D01*
X108982302Y-91746597D01*
X108817552Y-91800128D01*
X108663211Y-91878768D01*
X108616105Y-91912993D01*
X108523072Y-91980586D01*
X108523070Y-91980588D01*
X108523069Y-91980588D01*
X108400588Y-92103069D01*
X108400588Y-92103070D01*
X108400586Y-92103072D01*
X108356859Y-92163256D01*
X108298768Y-92243211D01*
X108220128Y-92397552D01*
X108166597Y-92562302D01*
X108139500Y-92733389D01*
X84966509Y-92733389D01*
X85059063Y-92640836D01*
X85067857Y-92632041D01*
X85197386Y-92453760D01*
X85297432Y-92257410D01*
X85365526Y-92047838D01*
X85365526Y-92047835D01*
X85377855Y-91970000D01*
X84433012Y-91970000D01*
X84465925Y-91912993D01*
X84500000Y-91785826D01*
X84500000Y-91654174D01*
X84465925Y-91527007D01*
X84433012Y-91470000D01*
X85377855Y-91470000D01*
X85365526Y-91392164D01*
X85365526Y-91392161D01*
X85297432Y-91182589D01*
X85197386Y-90986239D01*
X85067857Y-90807958D01*
X84912041Y-90652142D01*
X84772318Y-90550627D01*
X84729653Y-90495297D01*
X84723674Y-90425684D01*
X84756280Y-90363889D01*
X84772313Y-90349994D01*
X84912365Y-90248242D01*
X84967218Y-90193389D01*
X108139500Y-90193389D01*
X108139500Y-90366610D01*
X108161923Y-90508188D01*
X108166598Y-90537701D01*
X108220127Y-90702445D01*
X108298768Y-90856788D01*
X108400586Y-90996928D01*
X108523072Y-91119414D01*
X108663212Y-91221232D01*
X108817555Y-91299873D01*
X108982299Y-91353402D01*
X109153389Y-91380500D01*
X109153390Y-91380500D01*
X110126610Y-91380500D01*
X110126611Y-91380500D01*
X110297701Y-91353402D01*
X110462445Y-91299873D01*
X110616788Y-91221232D01*
X110756928Y-91119414D01*
X110879414Y-90996928D01*
X110981232Y-90856788D01*
X111059873Y-90702445D01*
X111113402Y-90537701D01*
X111140500Y-90366611D01*
X111140500Y-90193389D01*
X130999500Y-90193389D01*
X130999500Y-90366610D01*
X131021923Y-90508188D01*
X131026598Y-90537701D01*
X131080127Y-90702445D01*
X131158768Y-90856788D01*
X131260586Y-90996928D01*
X131383072Y-91119414D01*
X131523212Y-91221232D01*
X131677555Y-91299873D01*
X131842299Y-91353402D01*
X132013389Y-91380500D01*
X132013390Y-91380500D01*
X132986610Y-91380500D01*
X132986611Y-91380500D01*
X133157701Y-91353402D01*
X133322445Y-91299873D01*
X133476788Y-91221232D01*
X133616928Y-91119414D01*
X133739414Y-90996928D01*
X133841232Y-90856788D01*
X133919873Y-90702445D01*
X133973402Y-90537701D01*
X134000500Y-90366611D01*
X134000500Y-90193389D01*
X133973402Y-90022299D01*
X133919873Y-89857555D01*
X133841232Y-89703212D01*
X133739414Y-89563072D01*
X133616928Y-89440586D01*
X133476788Y-89338768D01*
X133322445Y-89260127D01*
X133157701Y-89206598D01*
X133157699Y-89206597D01*
X133157698Y-89206597D01*
X133026271Y-89185781D01*
X132986611Y-89179500D01*
X132013389Y-89179500D01*
X131973728Y-89185781D01*
X131842302Y-89206597D01*
X131677552Y-89260128D01*
X131523211Y-89338768D01*
X131463843Y-89381902D01*
X131383072Y-89440586D01*
X131383070Y-89440588D01*
X131383069Y-89440588D01*
X131260588Y-89563069D01*
X131260588Y-89563070D01*
X131260586Y-89563072D01*
X131220641Y-89618052D01*
X131158768Y-89703211D01*
X131080128Y-89857552D01*
X131026597Y-90022302D01*
X130999500Y-90193389D01*
X111140500Y-90193389D01*
X111113402Y-90022299D01*
X111059873Y-89857555D01*
X110981232Y-89703212D01*
X110879414Y-89563072D01*
X110756928Y-89440586D01*
X110616788Y-89338768D01*
X110462445Y-89260127D01*
X110297701Y-89206598D01*
X110297699Y-89206597D01*
X110297698Y-89206597D01*
X110166271Y-89185781D01*
X110126611Y-89179500D01*
X109153389Y-89179500D01*
X109113728Y-89185781D01*
X108982302Y-89206597D01*
X108817552Y-89260128D01*
X108663211Y-89338768D01*
X108603843Y-89381902D01*
X108523072Y-89440586D01*
X108523070Y-89440588D01*
X108523069Y-89440588D01*
X108400588Y-89563069D01*
X108400588Y-89563070D01*
X108400586Y-89563072D01*
X108360641Y-89618052D01*
X108298768Y-89703211D01*
X108220128Y-89857552D01*
X108166597Y-90022302D01*
X108139500Y-90193389D01*
X84967218Y-90193389D01*
X85068242Y-90092365D01*
X85197815Y-89914022D01*
X85297895Y-89717606D01*
X85366015Y-89507951D01*
X85400500Y-89290222D01*
X85400500Y-89069778D01*
X85366015Y-88852049D01*
X85297895Y-88642394D01*
X85297895Y-88642393D01*
X85236799Y-88522488D01*
X85197815Y-88445978D01*
X85181260Y-88423192D01*
X85068247Y-88267641D01*
X85068243Y-88267636D01*
X84912363Y-88111756D01*
X84912358Y-88111752D01*
X84734025Y-87982187D01*
X84734024Y-87982186D01*
X84734022Y-87982185D01*
X84671096Y-87950122D01*
X84537606Y-87882104D01*
X84537603Y-87882103D01*
X84327952Y-87813985D01*
X84219086Y-87796742D01*
X84110222Y-87779500D01*
X83889778Y-87779500D01*
X83817201Y-87790995D01*
X83672047Y-87813985D01*
X83462396Y-87882103D01*
X83462393Y-87882104D01*
X83265974Y-87982187D01*
X83087641Y-88111752D01*
X83087636Y-88111756D01*
X82931756Y-88267636D01*
X82931752Y-88267641D01*
X82802187Y-88445974D01*
X82702104Y-88642393D01*
X82702103Y-88642396D01*
X82633985Y-88852047D01*
X82599500Y-89069778D01*
X82000500Y-89069778D01*
X82000500Y-87653389D01*
X108139500Y-87653389D01*
X108139500Y-87826610D01*
X108164140Y-87982185D01*
X108166598Y-87997701D01*
X108220127Y-88162445D01*
X108298768Y-88316788D01*
X108400586Y-88456928D01*
X108523072Y-88579414D01*
X108663212Y-88681232D01*
X108817555Y-88759873D01*
X108982299Y-88813402D01*
X109153389Y-88840500D01*
X109153390Y-88840500D01*
X110126610Y-88840500D01*
X110126611Y-88840500D01*
X110297701Y-88813402D01*
X110462445Y-88759873D01*
X110616788Y-88681232D01*
X110756928Y-88579414D01*
X110879414Y-88456928D01*
X110981232Y-88316788D01*
X111059873Y-88162445D01*
X111113402Y-87997701D01*
X111140500Y-87826611D01*
X111140500Y-87653389D01*
X130999500Y-87653389D01*
X130999500Y-87826610D01*
X131024140Y-87982185D01*
X131026598Y-87997701D01*
X131080127Y-88162445D01*
X131158768Y-88316788D01*
X131260586Y-88456928D01*
X131383072Y-88579414D01*
X131523212Y-88681232D01*
X131677555Y-88759873D01*
X131842299Y-88813402D01*
X132013389Y-88840500D01*
X132013390Y-88840500D01*
X132986610Y-88840500D01*
X132986611Y-88840500D01*
X133157701Y-88813402D01*
X133322445Y-88759873D01*
X133476788Y-88681232D01*
X133616928Y-88579414D01*
X133739414Y-88456928D01*
X133841232Y-88316788D01*
X133919873Y-88162445D01*
X133973402Y-87997701D01*
X134000500Y-87826611D01*
X134000500Y-87653389D01*
X133973402Y-87482299D01*
X133919873Y-87317555D01*
X133841232Y-87163212D01*
X133739414Y-87023072D01*
X133616928Y-86900586D01*
X133476788Y-86798768D01*
X133322445Y-86720127D01*
X133157701Y-86666598D01*
X133157699Y-86666597D01*
X133157698Y-86666597D01*
X133026271Y-86645781D01*
X132986611Y-86639500D01*
X132013389Y-86639500D01*
X131973728Y-86645781D01*
X131842302Y-86666597D01*
X131677552Y-86720128D01*
X131523211Y-86798768D01*
X131443256Y-86856859D01*
X131383072Y-86900586D01*
X131383070Y-86900588D01*
X131383069Y-86900588D01*
X131260588Y-87023069D01*
X131260588Y-87023070D01*
X131260586Y-87023072D01*
X131216859Y-87083256D01*
X131158768Y-87163211D01*
X131080128Y-87317552D01*
X131026597Y-87482302D01*
X130999500Y-87653389D01*
X111140500Y-87653389D01*
X111113402Y-87482299D01*
X111059873Y-87317555D01*
X110981232Y-87163212D01*
X110879414Y-87023072D01*
X110756928Y-86900586D01*
X110616788Y-86798768D01*
X110462445Y-86720127D01*
X110297701Y-86666598D01*
X110297699Y-86666597D01*
X110297698Y-86666597D01*
X110166271Y-86645781D01*
X110126611Y-86639500D01*
X109153389Y-86639500D01*
X109113728Y-86645781D01*
X108982302Y-86666597D01*
X108817552Y-86720128D01*
X108663211Y-86798768D01*
X108583256Y-86856859D01*
X108523072Y-86900586D01*
X108523070Y-86900588D01*
X108523069Y-86900588D01*
X108400588Y-87023069D01*
X108400588Y-87023070D01*
X108400586Y-87023072D01*
X108356859Y-87083256D01*
X108298768Y-87163211D01*
X108220128Y-87317552D01*
X108166597Y-87482302D01*
X108139500Y-87653389D01*
X82000500Y-87653389D01*
X82000500Y-85113389D01*
X108139500Y-85113389D01*
X108139500Y-85286611D01*
X108166598Y-85457701D01*
X108220127Y-85622445D01*
X108298768Y-85776788D01*
X108400586Y-85916928D01*
X108523072Y-86039414D01*
X108663212Y-86141232D01*
X108817555Y-86219873D01*
X108982299Y-86273402D01*
X109153389Y-86300500D01*
X109153390Y-86300500D01*
X110126610Y-86300500D01*
X110126611Y-86300500D01*
X110297701Y-86273402D01*
X110462445Y-86219873D01*
X110616788Y-86141232D01*
X110756928Y-86039414D01*
X110879414Y-85916928D01*
X110981232Y-85776788D01*
X111059873Y-85622445D01*
X111113402Y-85457701D01*
X111140500Y-85286611D01*
X111140500Y-85113389D01*
X130999500Y-85113389D01*
X130999500Y-85286611D01*
X131026598Y-85457701D01*
X131080127Y-85622445D01*
X131158768Y-85776788D01*
X131260586Y-85916928D01*
X131383072Y-86039414D01*
X131523212Y-86141232D01*
X131677555Y-86219873D01*
X131842299Y-86273402D01*
X132013389Y-86300500D01*
X132013390Y-86300500D01*
X132986610Y-86300500D01*
X132986611Y-86300500D01*
X133157701Y-86273402D01*
X133322445Y-86219873D01*
X133476788Y-86141232D01*
X133616928Y-86039414D01*
X133739414Y-85916928D01*
X133841232Y-85776788D01*
X133919873Y-85622445D01*
X133973402Y-85457701D01*
X134000500Y-85286611D01*
X134000500Y-85113389D01*
X133973402Y-84942299D01*
X133919873Y-84777555D01*
X133841232Y-84623212D01*
X133739414Y-84483072D01*
X133616928Y-84360586D01*
X133476788Y-84258768D01*
X133322445Y-84180127D01*
X133157701Y-84126598D01*
X133157699Y-84126597D01*
X133157698Y-84126597D01*
X133026271Y-84105781D01*
X132986611Y-84099500D01*
X132013389Y-84099500D01*
X131973728Y-84105781D01*
X131842302Y-84126597D01*
X131677552Y-84180128D01*
X131523211Y-84258768D01*
X131443256Y-84316859D01*
X131383072Y-84360586D01*
X131383070Y-84360588D01*
X131383069Y-84360588D01*
X131260588Y-84483069D01*
X131260588Y-84483070D01*
X131260586Y-84483072D01*
X131248287Y-84500000D01*
X131158768Y-84623211D01*
X131080128Y-84777552D01*
X131026597Y-84942302D01*
X130999500Y-85113389D01*
X111140500Y-85113389D01*
X111113402Y-84942299D01*
X111059873Y-84777555D01*
X110981232Y-84623212D01*
X110879414Y-84483072D01*
X110756928Y-84360586D01*
X110616788Y-84258768D01*
X110462445Y-84180127D01*
X110297701Y-84126598D01*
X110297699Y-84126597D01*
X110297698Y-84126597D01*
X110166271Y-84105781D01*
X110126611Y-84099500D01*
X109153389Y-84099500D01*
X109113728Y-84105781D01*
X108982302Y-84126597D01*
X108817552Y-84180128D01*
X108663211Y-84258768D01*
X108583256Y-84316859D01*
X108523072Y-84360586D01*
X108523070Y-84360588D01*
X108523069Y-84360588D01*
X108400588Y-84483069D01*
X108400588Y-84483070D01*
X108400586Y-84483072D01*
X108388287Y-84500000D01*
X108298768Y-84623211D01*
X108220128Y-84777552D01*
X108166597Y-84942302D01*
X108139500Y-85113389D01*
X82000500Y-85113389D01*
X82000500Y-81052155D01*
X95560000Y-81052155D01*
X95560000Y-81750000D01*
X96584722Y-81750000D01*
X96540667Y-81826306D01*
X96510000Y-81940756D01*
X96510000Y-82059244D01*
X96540667Y-82173694D01*
X96584722Y-82250000D01*
X95560000Y-82250000D01*
X95560000Y-82947844D01*
X95566401Y-83007372D01*
X95566403Y-83007379D01*
X95616645Y-83142086D01*
X95616649Y-83142093D01*
X95702809Y-83257187D01*
X95702812Y-83257190D01*
X95817906Y-83343350D01*
X95817913Y-83343354D01*
X95952620Y-83393596D01*
X95952627Y-83393598D01*
X96012155Y-83399999D01*
X96012172Y-83400000D01*
X96710000Y-83400000D01*
X96710000Y-82375277D01*
X96786306Y-82419333D01*
X96900756Y-82450000D01*
X97019244Y-82450000D01*
X97133694Y-82419333D01*
X97210000Y-82375277D01*
X97210000Y-83400000D01*
X97907828Y-83400000D01*
X97907844Y-83399999D01*
X97967372Y-83393598D01*
X97967379Y-83393596D01*
X98102086Y-83343354D01*
X98102093Y-83343350D01*
X98217187Y-83257190D01*
X98217190Y-83257187D01*
X98303350Y-83142093D01*
X98303354Y-83142086D01*
X98333213Y-83062031D01*
X98375084Y-83006097D01*
X98440548Y-82981680D01*
X98508821Y-82996531D01*
X98537076Y-83017683D01*
X98587636Y-83068243D01*
X98587641Y-83068247D01*
X98743192Y-83181260D01*
X98765978Y-83197815D01*
X98870916Y-83251284D01*
X98962393Y-83297895D01*
X98962396Y-83297896D01*
X99067221Y-83331955D01*
X99172049Y-83366015D01*
X99389778Y-83400500D01*
X99389779Y-83400500D01*
X99610221Y-83400500D01*
X99610222Y-83400500D01*
X99827951Y-83366015D01*
X100037606Y-83297895D01*
X100234022Y-83197815D01*
X100412365Y-83068242D01*
X100568242Y-82912365D01*
X100697815Y-82734022D01*
X100779662Y-82573389D01*
X108139500Y-82573389D01*
X108139500Y-82746610D01*
X108165752Y-82912363D01*
X108166598Y-82917701D01*
X108215512Y-83068243D01*
X108220128Y-83082447D01*
X108249188Y-83139480D01*
X108298768Y-83236788D01*
X108400586Y-83376928D01*
X108523072Y-83499414D01*
X108663212Y-83601232D01*
X108817555Y-83679873D01*
X108982299Y-83733402D01*
X109153389Y-83760500D01*
X109153390Y-83760500D01*
X110126610Y-83760500D01*
X110126611Y-83760500D01*
X110297701Y-83733402D01*
X110462445Y-83679873D01*
X110616788Y-83601232D01*
X110756928Y-83499414D01*
X110879414Y-83376928D01*
X110981232Y-83236788D01*
X111059873Y-83082445D01*
X111113402Y-82917701D01*
X111140500Y-82746611D01*
X111140500Y-82573389D01*
X111113402Y-82402299D01*
X111059873Y-82237555D01*
X110981232Y-82083212D01*
X110879414Y-81943072D01*
X110756928Y-81820586D01*
X110616788Y-81718768D01*
X110462445Y-81640127D01*
X110297701Y-81586598D01*
X110297699Y-81586597D01*
X110297698Y-81586597D01*
X110166271Y-81565781D01*
X110126611Y-81559500D01*
X109153389Y-81559500D01*
X109113728Y-81565781D01*
X108982302Y-81586597D01*
X108817552Y-81640128D01*
X108663211Y-81718768D01*
X108620225Y-81750000D01*
X108523072Y-81820586D01*
X108523070Y-81820588D01*
X108523069Y-81820588D01*
X108400588Y-81943069D01*
X108400588Y-81943070D01*
X108400586Y-81943072D01*
X108356859Y-82003256D01*
X108298768Y-82083211D01*
X108220128Y-82237552D01*
X108166597Y-82402302D01*
X108139500Y-82573389D01*
X100779662Y-82573389D01*
X100797895Y-82537606D01*
X100866015Y-82327951D01*
X100900500Y-82110222D01*
X100900500Y-81889778D01*
X100866015Y-81672049D01*
X100829446Y-81559500D01*
X100797896Y-81462396D01*
X100797895Y-81462393D01*
X100763237Y-81394375D01*
X100697815Y-81265978D01*
X100671054Y-81229144D01*
X100568247Y-81087641D01*
X100568243Y-81087636D01*
X100412363Y-80931756D01*
X100412358Y-80931752D01*
X100234025Y-80802187D01*
X100234024Y-80802186D01*
X100234022Y-80802185D01*
X100171096Y-80770122D01*
X100037606Y-80702104D01*
X100037603Y-80702103D01*
X99827952Y-80633985D01*
X99719086Y-80616742D01*
X99610222Y-80599500D01*
X99389778Y-80599500D01*
X99317201Y-80610995D01*
X99172047Y-80633985D01*
X98962396Y-80702103D01*
X98962393Y-80702104D01*
X98765974Y-80802187D01*
X98587641Y-80931752D01*
X98587636Y-80931756D01*
X98537075Y-80982317D01*
X98475752Y-81015801D01*
X98406060Y-81010816D01*
X98350127Y-80968945D01*
X98333213Y-80937968D01*
X98303354Y-80857913D01*
X98303350Y-80857906D01*
X98217190Y-80742812D01*
X98217187Y-80742809D01*
X98102093Y-80656649D01*
X98102086Y-80656645D01*
X97967379Y-80606403D01*
X97967372Y-80606401D01*
X97907844Y-80600000D01*
X97210000Y-80600000D01*
X97210000Y-81624722D01*
X97133694Y-81580667D01*
X97019244Y-81550000D01*
X96900756Y-81550000D01*
X96786306Y-81580667D01*
X96710000Y-81624722D01*
X96710000Y-80600000D01*
X96012155Y-80600000D01*
X95952627Y-80606401D01*
X95952620Y-80606403D01*
X95817913Y-80656645D01*
X95817906Y-80656649D01*
X95702812Y-80742809D01*
X95702809Y-80742812D01*
X95616649Y-80857906D01*
X95616645Y-80857913D01*
X95566403Y-80992620D01*
X95566401Y-80992627D01*
X95560000Y-81052155D01*
X82000500Y-81052155D01*
X82000500Y-80033389D01*
X108139500Y-80033389D01*
X108139500Y-80206611D01*
X108166598Y-80377701D01*
X108220127Y-80542445D01*
X108298768Y-80696788D01*
X108400586Y-80836928D01*
X108523072Y-80959414D01*
X108663212Y-81061232D01*
X108817555Y-81139873D01*
X108982299Y-81193402D01*
X109153389Y-81220500D01*
X109153390Y-81220500D01*
X110126610Y-81220500D01*
X110126611Y-81220500D01*
X110297701Y-81193402D01*
X110462445Y-81139873D01*
X110616788Y-81061232D01*
X110756928Y-80959414D01*
X110879414Y-80836928D01*
X110981232Y-80696788D01*
X111059873Y-80542445D01*
X111113402Y-80377701D01*
X111140500Y-80206611D01*
X111140500Y-80033389D01*
X130999500Y-80033389D01*
X130999500Y-80206611D01*
X131026598Y-80377701D01*
X131080127Y-80542445D01*
X131158768Y-80696788D01*
X131260586Y-80836928D01*
X131383072Y-80959414D01*
X131523212Y-81061232D01*
X131677555Y-81139873D01*
X131842299Y-81193402D01*
X132013389Y-81220500D01*
X132699903Y-81220500D01*
X132729343Y-81229144D01*
X132759330Y-81235668D01*
X132764345Y-81239422D01*
X132766942Y-81240185D01*
X132787584Y-81256819D01*
X132878584Y-81347819D01*
X132912069Y-81409142D01*
X132907085Y-81478834D01*
X132865213Y-81534767D01*
X132799749Y-81559184D01*
X132790903Y-81559500D01*
X132013389Y-81559500D01*
X131973728Y-81565781D01*
X131842302Y-81586597D01*
X131677552Y-81640128D01*
X131523211Y-81718768D01*
X131480225Y-81750000D01*
X131383072Y-81820586D01*
X131383070Y-81820588D01*
X131383069Y-81820588D01*
X131260588Y-81943069D01*
X131260588Y-81943070D01*
X131260586Y-81943072D01*
X131216859Y-82003256D01*
X131158768Y-82083211D01*
X131080128Y-82237552D01*
X131026597Y-82402302D01*
X130999500Y-82573389D01*
X130999500Y-82746610D01*
X131025752Y-82912363D01*
X131026598Y-82917701D01*
X131075512Y-83068243D01*
X131080128Y-83082447D01*
X131109188Y-83139480D01*
X131158768Y-83236788D01*
X131260586Y-83376928D01*
X131383072Y-83499414D01*
X131523212Y-83601232D01*
X131677555Y-83679873D01*
X131842299Y-83733402D01*
X132013389Y-83760500D01*
X132013390Y-83760500D01*
X132986610Y-83760500D01*
X132986611Y-83760500D01*
X133157701Y-83733402D01*
X133256365Y-83701343D01*
X133326200Y-83699348D01*
X133382359Y-83731594D01*
X134363181Y-84712416D01*
X134396666Y-84773739D01*
X134399500Y-84800097D01*
X134399500Y-118988330D01*
X134399499Y-118988348D01*
X134399499Y-119154054D01*
X134399498Y-119154054D01*
X134440423Y-119306785D01*
X134449659Y-119322782D01*
X134519477Y-119443712D01*
X134519481Y-119443717D01*
X134638349Y-119562585D01*
X134638355Y-119562590D01*
X135776561Y-120700796D01*
X135810046Y-120762119D01*
X135806811Y-120826794D01*
X135783985Y-120897045D01*
X135749500Y-121114778D01*
X135749500Y-121335221D01*
X135783985Y-121552952D01*
X135852103Y-121762603D01*
X135852104Y-121762606D01*
X135952187Y-121959025D01*
X136081752Y-122137358D01*
X136081756Y-122137363D01*
X136237636Y-122293243D01*
X136237641Y-122293247D01*
X136393192Y-122406260D01*
X136415978Y-122422815D01*
X136544375Y-122488237D01*
X136612393Y-122522895D01*
X136612396Y-122522896D01*
X136717221Y-122556955D01*
X136822049Y-122591015D01*
X137039778Y-122625500D01*
X137039779Y-122625500D01*
X137260221Y-122625500D01*
X137260222Y-122625500D01*
X137477951Y-122591015D01*
X137687606Y-122522895D01*
X137884022Y-122422815D01*
X138062365Y-122293242D01*
X138218242Y-122137365D01*
X138347815Y-121959022D01*
X138447895Y-121762606D01*
X138516015Y-121552951D01*
X138550500Y-121335222D01*
X138550500Y-121114778D01*
X138516015Y-120897049D01*
X138447895Y-120687394D01*
X138447895Y-120687393D01*
X138413237Y-120619375D01*
X138347815Y-120490978D01*
X138331260Y-120468192D01*
X138218247Y-120312641D01*
X138218243Y-120312636D01*
X138062363Y-120156756D01*
X138062358Y-120156752D01*
X137922745Y-120055318D01*
X137880079Y-119999989D01*
X137874100Y-119930375D01*
X137906705Y-119868580D01*
X137922745Y-119854682D01*
X138062358Y-119753247D01*
X138062356Y-119753247D01*
X138062365Y-119753242D01*
X138218242Y-119597365D01*
X138347815Y-119419022D01*
X138447895Y-119222606D01*
X138516015Y-119012951D01*
X138550500Y-118795222D01*
X138550500Y-118574778D01*
X138516015Y-118357049D01*
X138447895Y-118147394D01*
X138447895Y-118147393D01*
X138413237Y-118079375D01*
X138347815Y-117950978D01*
X138331260Y-117928192D01*
X138218247Y-117772641D01*
X138218243Y-117772636D01*
X138062363Y-117616756D01*
X138062358Y-117616752D01*
X137922745Y-117515318D01*
X137880079Y-117459989D01*
X137874100Y-117390375D01*
X137906705Y-117328580D01*
X137922745Y-117314682D01*
X138062358Y-117213247D01*
X138062356Y-117213247D01*
X138062365Y-117213242D01*
X138218242Y-117057365D01*
X138347815Y-116879022D01*
X138447895Y-116682606D01*
X138516015Y-116472951D01*
X138550500Y-116255222D01*
X138550500Y-116034778D01*
X138516015Y-115817049D01*
X138447895Y-115607394D01*
X138447895Y-115607393D01*
X138413237Y-115539375D01*
X138347815Y-115410978D01*
X138331260Y-115388192D01*
X138218247Y-115232641D01*
X138218243Y-115232636D01*
X138062363Y-115076756D01*
X138062358Y-115076752D01*
X137922319Y-114975008D01*
X137879653Y-114919678D01*
X137873674Y-114850065D01*
X137906279Y-114788270D01*
X137922319Y-114774372D01*
X137947513Y-114756066D01*
X137947514Y-114756066D01*
X137279409Y-114087962D01*
X137342993Y-114070925D01*
X137457007Y-114005099D01*
X137550099Y-113912007D01*
X137615925Y-113797993D01*
X137632962Y-113734410D01*
X138301066Y-114402514D01*
X138301066Y-114402513D01*
X138347386Y-114338760D01*
X138447432Y-114142410D01*
X138515526Y-113932835D01*
X138550000Y-113715181D01*
X138550000Y-113494818D01*
X138515526Y-113277164D01*
X138447432Y-113067589D01*
X138347388Y-112871243D01*
X138301066Y-112807485D01*
X138301065Y-112807485D01*
X137632962Y-113475589D01*
X137615925Y-113412007D01*
X137550099Y-113297993D01*
X137457007Y-113204901D01*
X137342993Y-113139075D01*
X137279408Y-113122037D01*
X137947513Y-112453932D01*
X137883756Y-112407611D01*
X137687410Y-112307567D01*
X137477835Y-112239473D01*
X137260181Y-112205000D01*
X137039819Y-112205000D01*
X136822166Y-112239472D01*
X136762816Y-112258756D01*
X136692975Y-112260750D01*
X136633143Y-112224668D01*
X136602316Y-112161967D01*
X136600500Y-112140824D01*
X136600500Y-90508188D01*
X136620185Y-90441149D01*
X136672989Y-90395394D01*
X136742147Y-90385450D01*
X136805703Y-90414475D01*
X136824816Y-90435301D01*
X136855483Y-90477510D01*
X137022490Y-90644517D01*
X137213567Y-90783343D01*
X137261877Y-90807958D01*
X137424003Y-90890566D01*
X137424005Y-90890566D01*
X137424008Y-90890568D01*
X137544412Y-90929689D01*
X137648631Y-90963553D01*
X137881903Y-91000500D01*
X137881908Y-91000500D01*
X138118097Y-91000500D01*
X138351368Y-90963553D01*
X138352870Y-90963065D01*
X138575992Y-90890568D01*
X138786433Y-90783343D01*
X138977510Y-90644517D01*
X139144517Y-90477510D01*
X139283343Y-90286433D01*
X139390568Y-90075992D01*
X139463553Y-89851368D01*
X139484739Y-89717606D01*
X139500500Y-89618097D01*
X139500500Y-89381947D01*
X141000000Y-89381947D01*
X141000000Y-89618052D01*
X141036934Y-89851247D01*
X141109897Y-90075802D01*
X141217087Y-90286174D01*
X141277338Y-90369104D01*
X141277340Y-90369105D01*
X141976212Y-89670233D01*
X141987482Y-89712292D01*
X142059890Y-89837708D01*
X142162292Y-89940110D01*
X142287708Y-90012518D01*
X142329765Y-90023787D01*
X141630893Y-90722658D01*
X141713828Y-90782914D01*
X141924197Y-90890102D01*
X142148752Y-90963065D01*
X142148751Y-90963065D01*
X142381948Y-91000000D01*
X142618052Y-91000000D01*
X142851247Y-90963065D01*
X143075802Y-90890102D01*
X143286163Y-90782918D01*
X143286169Y-90782914D01*
X143369104Y-90722658D01*
X143369105Y-90722658D01*
X142670233Y-90023787D01*
X142712292Y-90012518D01*
X142837708Y-89940110D01*
X142940110Y-89837708D01*
X143012518Y-89712292D01*
X143023787Y-89670234D01*
X143722658Y-90369105D01*
X143722658Y-90369104D01*
X143782914Y-90286169D01*
X143782918Y-90286163D01*
X143890102Y-90075802D01*
X143963065Y-89851247D01*
X144000000Y-89618052D01*
X144000000Y-89381947D01*
X143963065Y-89148752D01*
X143890102Y-88924197D01*
X143782914Y-88713828D01*
X143722658Y-88630894D01*
X143722658Y-88630893D01*
X143023787Y-89329765D01*
X143012518Y-89287708D01*
X142940110Y-89162292D01*
X142837708Y-89059890D01*
X142712292Y-88987482D01*
X142670234Y-88976212D01*
X143369105Y-88277340D01*
X143369104Y-88277338D01*
X143286174Y-88217087D01*
X143075802Y-88109897D01*
X142851247Y-88036934D01*
X142851248Y-88036934D01*
X142618052Y-88000000D01*
X142381948Y-88000000D01*
X142148752Y-88036934D01*
X141924197Y-88109897D01*
X141713830Y-88217084D01*
X141630894Y-88277340D01*
X142329766Y-88976212D01*
X142287708Y-88987482D01*
X142162292Y-89059890D01*
X142059890Y-89162292D01*
X141987482Y-89287708D01*
X141976212Y-89329766D01*
X141277340Y-88630894D01*
X141217084Y-88713830D01*
X141109897Y-88924197D01*
X141036934Y-89148752D01*
X141000000Y-89381947D01*
X139500500Y-89381947D01*
X139500500Y-89381902D01*
X139463553Y-89148631D01*
X139411192Y-88987482D01*
X139390568Y-88924008D01*
X139390566Y-88924005D01*
X139390566Y-88924003D01*
X139283477Y-88713830D01*
X139283343Y-88713567D01*
X139144517Y-88522490D01*
X138977510Y-88355483D01*
X138786433Y-88216657D01*
X138575996Y-88109433D01*
X138351368Y-88036446D01*
X138118097Y-87999500D01*
X138118092Y-87999500D01*
X137881908Y-87999500D01*
X137881903Y-87999500D01*
X137648631Y-88036446D01*
X137424003Y-88109433D01*
X137213566Y-88216657D01*
X137130047Y-88277338D01*
X137022490Y-88355483D01*
X137022488Y-88355485D01*
X137022487Y-88355485D01*
X136855484Y-88522488D01*
X136824818Y-88564697D01*
X136769487Y-88607362D01*
X136699874Y-88613341D01*
X136638079Y-88580735D01*
X136603722Y-88519896D01*
X136600500Y-88491811D01*
X136600500Y-84008188D01*
X136620185Y-83941149D01*
X136672989Y-83895394D01*
X136742147Y-83885450D01*
X136805703Y-83914475D01*
X136824816Y-83935301D01*
X136855483Y-83977510D01*
X137022490Y-84144517D01*
X137213567Y-84283343D01*
X137312991Y-84334002D01*
X137424003Y-84390566D01*
X137424005Y-84390566D01*
X137424008Y-84390568D01*
X137544412Y-84429689D01*
X137648631Y-84463553D01*
X137881903Y-84500500D01*
X137881908Y-84500500D01*
X138118097Y-84500500D01*
X138351368Y-84463553D01*
X138352870Y-84463065D01*
X138575992Y-84390568D01*
X138786433Y-84283343D01*
X138977510Y-84144517D01*
X139144517Y-83977510D01*
X139283343Y-83786433D01*
X139390568Y-83575992D01*
X139463553Y-83351368D01*
X139472022Y-83297895D01*
X139500500Y-83118097D01*
X139500500Y-82881947D01*
X141000000Y-82881947D01*
X141000000Y-83118052D01*
X141036934Y-83351247D01*
X141109897Y-83575802D01*
X141217087Y-83786174D01*
X141277338Y-83869104D01*
X141277340Y-83869105D01*
X141976212Y-83170233D01*
X141987482Y-83212292D01*
X142059890Y-83337708D01*
X142162292Y-83440110D01*
X142287708Y-83512518D01*
X142329765Y-83523787D01*
X141630893Y-84222658D01*
X141713828Y-84282914D01*
X141924197Y-84390102D01*
X142148752Y-84463065D01*
X142148751Y-84463065D01*
X142381948Y-84500000D01*
X142618052Y-84500000D01*
X142851247Y-84463065D01*
X143075802Y-84390102D01*
X143286163Y-84282918D01*
X143286169Y-84282914D01*
X143369104Y-84222658D01*
X143369105Y-84222658D01*
X142670233Y-83523787D01*
X142712292Y-83512518D01*
X142837708Y-83440110D01*
X142940110Y-83337708D01*
X143012518Y-83212292D01*
X143023787Y-83170234D01*
X143722658Y-83869105D01*
X143722658Y-83869104D01*
X143782914Y-83786169D01*
X143782918Y-83786163D01*
X143890102Y-83575802D01*
X143963065Y-83351247D01*
X144000000Y-83118052D01*
X144000000Y-82881947D01*
X143963065Y-82648752D01*
X143890102Y-82424197D01*
X143782914Y-82213828D01*
X143722658Y-82130894D01*
X143722658Y-82130893D01*
X143023787Y-82829765D01*
X143012518Y-82787708D01*
X142940110Y-82662292D01*
X142837708Y-82559890D01*
X142712292Y-82487482D01*
X142670234Y-82476212D01*
X143369105Y-81777340D01*
X143369104Y-81777338D01*
X143286174Y-81717087D01*
X143075802Y-81609897D01*
X142851247Y-81536934D01*
X142851248Y-81536934D01*
X142618052Y-81500000D01*
X142381948Y-81500000D01*
X142148752Y-81536934D01*
X141924197Y-81609897D01*
X141713830Y-81717084D01*
X141630894Y-81777340D01*
X142329766Y-82476212D01*
X142287708Y-82487482D01*
X142162292Y-82559890D01*
X142059890Y-82662292D01*
X141987482Y-82787708D01*
X141976212Y-82829766D01*
X141277340Y-82130894D01*
X141217084Y-82213830D01*
X141109897Y-82424197D01*
X141036934Y-82648752D01*
X141000000Y-82881947D01*
X139500500Y-82881947D01*
X139500500Y-82881902D01*
X139463553Y-82648631D01*
X139390566Y-82424003D01*
X139315310Y-82276306D01*
X139283343Y-82213567D01*
X139144517Y-82022490D01*
X138977510Y-81855483D01*
X138786433Y-81716657D01*
X138575996Y-81609433D01*
X138351368Y-81536446D01*
X138118097Y-81499500D01*
X138118092Y-81499500D01*
X137881908Y-81499500D01*
X137881903Y-81499500D01*
X137648631Y-81536446D01*
X137424003Y-81609433D01*
X137213566Y-81716657D01*
X137203881Y-81723694D01*
X137022490Y-81855483D01*
X137022488Y-81855485D01*
X137022487Y-81855485D01*
X136855485Y-82022487D01*
X136855485Y-82022488D01*
X136855483Y-82022490D01*
X136811366Y-82083212D01*
X136716657Y-82213566D01*
X136609433Y-82424003D01*
X136536446Y-82648631D01*
X136499500Y-82881902D01*
X136499500Y-82970903D01*
X136479815Y-83037942D01*
X136427011Y-83083697D01*
X136357853Y-83093641D01*
X136294297Y-83064616D01*
X136287819Y-83058584D01*
X133933556Y-80704321D01*
X133900071Y-80642998D01*
X133905055Y-80573306D01*
X133910749Y-80560350D01*
X133919873Y-80542445D01*
X133973402Y-80377701D01*
X134000500Y-80206611D01*
X134000500Y-80033389D01*
X133973402Y-79862299D01*
X133919873Y-79697555D01*
X133841232Y-79543212D01*
X133739414Y-79403072D01*
X133616928Y-79280586D01*
X133476788Y-79178768D01*
X133322445Y-79100127D01*
X133157701Y-79046598D01*
X133157699Y-79046597D01*
X133157698Y-79046597D01*
X133026271Y-79025781D01*
X132986611Y-79019500D01*
X132013389Y-79019500D01*
X131973728Y-79025781D01*
X131842302Y-79046597D01*
X131677552Y-79100128D01*
X131523211Y-79178768D01*
X131443256Y-79236859D01*
X131383072Y-79280586D01*
X131383070Y-79280588D01*
X131383069Y-79280588D01*
X131260588Y-79403069D01*
X131260588Y-79403070D01*
X131260586Y-79403072D01*
X131216859Y-79463256D01*
X131158768Y-79543211D01*
X131080128Y-79697552D01*
X131026597Y-79862302D01*
X130999500Y-80033389D01*
X111140500Y-80033389D01*
X111113402Y-79862299D01*
X111059873Y-79697555D01*
X110981232Y-79543212D01*
X110879414Y-79403072D01*
X110756928Y-79280586D01*
X110616788Y-79178768D01*
X110462445Y-79100127D01*
X110297701Y-79046598D01*
X110297699Y-79046597D01*
X110297698Y-79046597D01*
X110166271Y-79025781D01*
X110126611Y-79019500D01*
X109153389Y-79019500D01*
X109113728Y-79025781D01*
X108982302Y-79046597D01*
X108817552Y-79100128D01*
X108663211Y-79178768D01*
X108583256Y-79236859D01*
X108523072Y-79280586D01*
X108523070Y-79280588D01*
X108523069Y-79280588D01*
X108400588Y-79403069D01*
X108400588Y-79403070D01*
X108400586Y-79403072D01*
X108356859Y-79463256D01*
X108298768Y-79543211D01*
X108220128Y-79697552D01*
X108166597Y-79862302D01*
X108139500Y-80033389D01*
X82000500Y-80033389D01*
X82000500Y-77493389D01*
X108139500Y-77493389D01*
X108139500Y-77666611D01*
X108166598Y-77837701D01*
X108220127Y-78002445D01*
X108298768Y-78156788D01*
X108400586Y-78296928D01*
X108523072Y-78419414D01*
X108663212Y-78521232D01*
X108817555Y-78599873D01*
X108982299Y-78653402D01*
X109153389Y-78680500D01*
X109153390Y-78680500D01*
X110126610Y-78680500D01*
X110126611Y-78680500D01*
X110297701Y-78653402D01*
X110462445Y-78599873D01*
X110616788Y-78521232D01*
X110756928Y-78419414D01*
X110879414Y-78296928D01*
X110981232Y-78156788D01*
X111059873Y-78002445D01*
X111113402Y-77837701D01*
X111140500Y-77666611D01*
X111140500Y-77493389D01*
X130999500Y-77493389D01*
X130999500Y-77666611D01*
X131026598Y-77837701D01*
X131080127Y-78002445D01*
X131158768Y-78156788D01*
X131260586Y-78296928D01*
X131383072Y-78419414D01*
X131523212Y-78521232D01*
X131677555Y-78599873D01*
X131842299Y-78653402D01*
X132013389Y-78680500D01*
X132013390Y-78680500D01*
X132986610Y-78680500D01*
X132986611Y-78680500D01*
X133157701Y-78653402D01*
X133322445Y-78599873D01*
X133476788Y-78521232D01*
X133616928Y-78419414D01*
X133739414Y-78296928D01*
X133841232Y-78156788D01*
X133919873Y-78002445D01*
X133973402Y-77837701D01*
X134000500Y-77666611D01*
X134000500Y-77493389D01*
X133973402Y-77322299D01*
X133919873Y-77157555D01*
X133841232Y-77003212D01*
X133739414Y-76863072D01*
X133616928Y-76740586D01*
X133476788Y-76638768D01*
X133322445Y-76560127D01*
X133157701Y-76506598D01*
X133157699Y-76506597D01*
X133157698Y-76506597D01*
X133026271Y-76485781D01*
X132986611Y-76479500D01*
X132013389Y-76479500D01*
X131973728Y-76485781D01*
X131842302Y-76506597D01*
X131677552Y-76560128D01*
X131523211Y-76638768D01*
X131443256Y-76696859D01*
X131383072Y-76740586D01*
X131383070Y-76740588D01*
X131383069Y-76740588D01*
X131260588Y-76863069D01*
X131260588Y-76863070D01*
X131260586Y-76863072D01*
X131216859Y-76923256D01*
X131158768Y-77003211D01*
X131080128Y-77157552D01*
X131026597Y-77322302D01*
X130999500Y-77493389D01*
X111140500Y-77493389D01*
X111113402Y-77322299D01*
X111059873Y-77157555D01*
X110981232Y-77003212D01*
X110879414Y-76863072D01*
X110756928Y-76740586D01*
X110616788Y-76638768D01*
X110462445Y-76560127D01*
X110297701Y-76506598D01*
X110297699Y-76506597D01*
X110297698Y-76506597D01*
X110166271Y-76485781D01*
X110126611Y-76479500D01*
X109153389Y-76479500D01*
X109113728Y-76485781D01*
X108982302Y-76506597D01*
X108817552Y-76560128D01*
X108663211Y-76638768D01*
X108583256Y-76696859D01*
X108523072Y-76740586D01*
X108523070Y-76740588D01*
X108523069Y-76740588D01*
X108400588Y-76863069D01*
X108400588Y-76863070D01*
X108400586Y-76863072D01*
X108356859Y-76923256D01*
X108298768Y-77003211D01*
X108220128Y-77157552D01*
X108166597Y-77322302D01*
X108139500Y-77493389D01*
X82000500Y-77493389D01*
X82000500Y-74953389D01*
X108139500Y-74953389D01*
X108139500Y-75126611D01*
X108166598Y-75297701D01*
X108220127Y-75462445D01*
X108298768Y-75616788D01*
X108400586Y-75756928D01*
X108523072Y-75879414D01*
X108663212Y-75981232D01*
X108817555Y-76059873D01*
X108982299Y-76113402D01*
X109153389Y-76140500D01*
X109153390Y-76140500D01*
X110126610Y-76140500D01*
X110126611Y-76140500D01*
X110297701Y-76113402D01*
X110462445Y-76059873D01*
X110616788Y-75981232D01*
X110756928Y-75879414D01*
X110879414Y-75756928D01*
X110981232Y-75616788D01*
X111059873Y-75462445D01*
X111113402Y-75297701D01*
X111140500Y-75126611D01*
X111140500Y-74953389D01*
X130999500Y-74953389D01*
X130999500Y-75126611D01*
X131026598Y-75297701D01*
X131080127Y-75462445D01*
X131158768Y-75616788D01*
X131260586Y-75756928D01*
X131383072Y-75879414D01*
X131523212Y-75981232D01*
X131677555Y-76059873D01*
X131842299Y-76113402D01*
X132013389Y-76140500D01*
X132013390Y-76140500D01*
X132986610Y-76140500D01*
X132986611Y-76140500D01*
X133157701Y-76113402D01*
X133322445Y-76059873D01*
X133476788Y-75981232D01*
X133616928Y-75879414D01*
X133739414Y-75756928D01*
X133841232Y-75616788D01*
X133919873Y-75462445D01*
X133973402Y-75297701D01*
X134000500Y-75126611D01*
X134000500Y-74953389D01*
X133973402Y-74782299D01*
X133919873Y-74617555D01*
X133841232Y-74463212D01*
X133739414Y-74323072D01*
X133616928Y-74200586D01*
X133476788Y-74098768D01*
X133322445Y-74020127D01*
X133157701Y-73966598D01*
X133157699Y-73966597D01*
X133157698Y-73966597D01*
X133026271Y-73945781D01*
X132986611Y-73939500D01*
X132013389Y-73939500D01*
X131973728Y-73945781D01*
X131842302Y-73966597D01*
X131677552Y-74020128D01*
X131523211Y-74098768D01*
X131443256Y-74156859D01*
X131383072Y-74200586D01*
X131383070Y-74200588D01*
X131383069Y-74200588D01*
X131260588Y-74323069D01*
X131260588Y-74323070D01*
X131260586Y-74323072D01*
X131216859Y-74383256D01*
X131158768Y-74463211D01*
X131080128Y-74617552D01*
X131026597Y-74782302D01*
X130999500Y-74953389D01*
X111140500Y-74953389D01*
X111113402Y-74782299D01*
X111059873Y-74617555D01*
X110981232Y-74463212D01*
X110879414Y-74323072D01*
X110756928Y-74200586D01*
X110616788Y-74098768D01*
X110462445Y-74020127D01*
X110297701Y-73966598D01*
X110297699Y-73966597D01*
X110297698Y-73966597D01*
X110166271Y-73945781D01*
X110126611Y-73939500D01*
X109153389Y-73939500D01*
X109113728Y-73945781D01*
X108982302Y-73966597D01*
X108817552Y-74020128D01*
X108663211Y-74098768D01*
X108583256Y-74156859D01*
X108523072Y-74200586D01*
X108523070Y-74200588D01*
X108523069Y-74200588D01*
X108400588Y-74323069D01*
X108400588Y-74323070D01*
X108400586Y-74323072D01*
X108356859Y-74383256D01*
X108298768Y-74463211D01*
X108220128Y-74617552D01*
X108166597Y-74782302D01*
X108139500Y-74953389D01*
X82000500Y-74953389D01*
X82000500Y-71852135D01*
X108139500Y-71852135D01*
X108139500Y-73147870D01*
X108139501Y-73147876D01*
X108145908Y-73207483D01*
X108196202Y-73342328D01*
X108196206Y-73342335D01*
X108282452Y-73457544D01*
X108282455Y-73457547D01*
X108397664Y-73543793D01*
X108397671Y-73543797D01*
X108532517Y-73594091D01*
X108532516Y-73594091D01*
X108539444Y-73594835D01*
X108592127Y-73600500D01*
X110687872Y-73600499D01*
X110747483Y-73594091D01*
X110882331Y-73543796D01*
X110997546Y-73457546D01*
X111083796Y-73342331D01*
X111134091Y-73207483D01*
X111140500Y-73147873D01*
X111140499Y-72249999D01*
X131025884Y-72249999D01*
X131025885Y-72250000D01*
X132184314Y-72250000D01*
X132179920Y-72254394D01*
X132127259Y-72345606D01*
X132100000Y-72447339D01*
X132100000Y-72552661D01*
X132127259Y-72654394D01*
X132179920Y-72745606D01*
X132184314Y-72750000D01*
X131025885Y-72750000D01*
X131027085Y-72757584D01*
X131080591Y-72922255D01*
X131159195Y-73076524D01*
X131260967Y-73216602D01*
X131383397Y-73339032D01*
X131523475Y-73440804D01*
X131677742Y-73519408D01*
X131842415Y-73572914D01*
X132013429Y-73600000D01*
X132250000Y-73600000D01*
X132250000Y-72815686D01*
X132254394Y-72820080D01*
X132345606Y-72872741D01*
X132447339Y-72900000D01*
X132552661Y-72900000D01*
X132654394Y-72872741D01*
X132745606Y-72820080D01*
X132750000Y-72815686D01*
X132750000Y-73600000D01*
X132986571Y-73600000D01*
X133157584Y-73572914D01*
X133322257Y-73519408D01*
X133476524Y-73440804D01*
X133616602Y-73339032D01*
X133739032Y-73216602D01*
X133840804Y-73076524D01*
X133919408Y-72922255D01*
X133972914Y-72757584D01*
X133974115Y-72750000D01*
X132815686Y-72750000D01*
X132820080Y-72745606D01*
X132872741Y-72654394D01*
X132900000Y-72552661D01*
X132900000Y-72447339D01*
X132872741Y-72345606D01*
X132820080Y-72254394D01*
X132815686Y-72250000D01*
X133974115Y-72250000D01*
X133974115Y-72249999D01*
X133972914Y-72242415D01*
X133919408Y-72077744D01*
X133840804Y-71923475D01*
X133739032Y-71783397D01*
X133616602Y-71660967D01*
X133476524Y-71559195D01*
X133322257Y-71480591D01*
X133157584Y-71427085D01*
X132986571Y-71400000D01*
X132750000Y-71400000D01*
X132750000Y-72184314D01*
X132745606Y-72179920D01*
X132654394Y-72127259D01*
X132552661Y-72100000D01*
X132447339Y-72100000D01*
X132345606Y-72127259D01*
X132254394Y-72179920D01*
X132250000Y-72184314D01*
X132250000Y-71400000D01*
X132013429Y-71400000D01*
X131842415Y-71427085D01*
X131677742Y-71480591D01*
X131523475Y-71559195D01*
X131383397Y-71660967D01*
X131260967Y-71783397D01*
X131159195Y-71923475D01*
X131080591Y-72077744D01*
X131027085Y-72242415D01*
X131025884Y-72249999D01*
X111140499Y-72249999D01*
X111140499Y-71852128D01*
X111134091Y-71792517D01*
X111130689Y-71783397D01*
X111083797Y-71657671D01*
X111083793Y-71657664D01*
X110997547Y-71542455D01*
X110997544Y-71542452D01*
X110882335Y-71456206D01*
X110882328Y-71456202D01*
X110747482Y-71405908D01*
X110747483Y-71405908D01*
X110687883Y-71399501D01*
X110687881Y-71399500D01*
X110687873Y-71399500D01*
X110687864Y-71399500D01*
X108592129Y-71399500D01*
X108592123Y-71399501D01*
X108532516Y-71405908D01*
X108397671Y-71456202D01*
X108397664Y-71456206D01*
X108282455Y-71542452D01*
X108282452Y-71542455D01*
X108196206Y-71657664D01*
X108196202Y-71657671D01*
X108145908Y-71792517D01*
X108139501Y-71852116D01*
X108139501Y-71852123D01*
X108139500Y-71852135D01*
X82000500Y-71852135D01*
X82000500Y-64124500D01*
X82020185Y-64057461D01*
X82072989Y-64011706D01*
X82124500Y-64000500D01*
X145875500Y-64000500D01*
X145942539Y-64020185D01*
G37*
%TD.AperFunction*%
%TD*%
M02*
